{"glyphs":{"0":{"ha":703,"x_min":0,"x_max":0,"o":"m 404 669 b 429 666 410 669 422 668 b 464 659 437 663 452 660 b 496 653 478 658 490 656 l 515 640 b 538 627 519 635 530 630 b 557 619 545 623 555 620 b 571 602 560 617 566 610 b 583 587 575 595 581 588 b 607 581 586 584 597 582 b 638 573 619 580 632 576 b 654 557 644 570 651 562 b 665 535 657 553 662 542 b 689 480 668 527 678 503 b 714 414 700 455 710 429 b 723 356 718 399 721 373 b 723 292 726 331 726 317 b 714 234 721 274 717 249 b 695 183 711 221 702 198 b 674 131 689 169 679 145 l 660 99 b 649 85 658 95 653 89 b 632 74 644 81 637 76 b 607 69 627 72 617 69 b 585 63 599 68 590 65 b 573 47 581 60 576 54 b 562 31 570 41 565 33 b 542 19 558 27 549 21 b 510 6 534 17 520 10 b 473 -6 501 1 484 -5 b 438 -15 462 -8 445 -12 b 409 -21 429 -19 417 -21 b 378 -16 403 -21 388 -19 b 345 -10 367 -13 352 -10 b 324 -7 339 -10 329 -9 b 300 6 319 -6 307 -1 b 271 20 291 11 279 18 b 253 30 265 24 256 27 b 240 46 249 31 244 38 l 227 62 b 202 67 224 63 213 66 b 171 75 190 69 177 72 b 156 91 166 79 158 86 b 144 113 152 95 147 106 b 120 169 143 121 131 145 b 95 234 109 194 99 219 b 86 292 93 249 88 274 b 86 356 84 317 84 331 b 95 414 88 373 92 399 b 120 480 99 429 109 455 b 144 535 131 503 143 527 b 156 557 147 542 152 553 b 171 573 158 562 166 569 b 202 581 177 576 190 580 b 226 587 212 582 223 584 b 238 602 229 588 234 595 b 252 619 244 610 249 617 b 271 627 255 620 264 623 b 294 640 280 630 290 635 l 313 653 b 345 659 319 656 331 658 b 379 666 357 660 372 663 b 404 669 385 668 396 669 m 409 643 b 384 640 406 644 395 643 b 349 634 373 637 358 635 b 325 631 342 634 331 632 b 306 618 320 629 311 622 b 281 604 300 612 289 606 b 264 595 273 602 266 598 b 260 582 262 594 260 588 b 265 560 260 579 262 569 b 270 524 269 550 270 540 b 264 480 270 509 269 496 b 255 443 261 467 256 451 b 248 389 253 435 250 410 b 244 326 246 367 244 339 b 247 270 244 313 245 288 l 252 219 b 263 170 254 207 259 186 b 270 123 269 150 270 137 b 265 87 270 110 269 97 b 260 65 262 78 260 69 b 266 52 260 60 262 55 b 283 43 269 49 276 44 b 311 28 289 40 302 33 b 344 15 324 19 330 17 l 386 8 l 410 2 l 431 9 b 469 19 443 13 460 17 b 505 31 478 19 494 26 b 532 41 517 35 528 40 b 544 47 535 44 541 45 b 549 60 548 50 549 54 b 544 85 549 67 547 77 b 538 116 542 94 539 107 b 543 159 537 129 538 138 l 554 202 b 561 258 556 210 559 235 b 565 320 563 281 565 308 b 562 376 565 331 564 356 b 556 433 561 394 558 419 b 545 480 555 445 549 466 b 539 524 541 496 539 509 b 544 560 539 540 540 550 b 549 582 546 569 549 579 b 545 595 549 588 547 594 b 528 604 544 598 535 602 b 504 618 520 606 509 612 b 483 631 498 622 489 629 b 460 634 479 632 468 634 b 431 638 452 634 439 636 b 409 643 423 640 413 643 "},"1":{"ha":431,"x_min":0,"x_max":0,"o":"m 301 666 b 324 660 310 666 319 662 b 336 645 328 657 333 651 b 342 622 339 638 342 630 b 336 592 342 616 339 602 b 330 549 333 581 331 562 b 328 323 328 534 328 455 l 329 120 l 317 94 b 306 59 310 79 306 65 b 308 49 306 56 306 51 b 317 48 310 47 314 47 b 328 58 319 48 325 53 b 340 82 331 64 336 74 l 352 102 b 364 109 355 105 361 107 b 382 112 368 110 376 112 b 406 106 390 112 397 109 b 423 91 413 103 419 96 b 432 67 426 86 430 74 b 434 34 434 56 435 45 b 430 9 433 26 431 14 b 420 -6 428 5 424 -4 b 405 -17 417 -10 410 -15 b 381 -20 397 -20 391 -21 b 355 -12 370 -19 363 -17 b 331 6 349 -8 337 -1 b 309 22 323 12 314 19 b 274 27 304 25 294 27 b 222 22 250 28 244 28 b 184 7 209 18 192 11 l 156 -10 b 126 -20 144 -17 137 -19 b 101 -17 116 -21 109 -20 b 84 -5 96 -15 89 -9 b 74 17 81 -1 77 9 b 72 48 72 27 71 36 b 79 79 73 61 75 69 b 96 100 83 90 87 94 b 119 108 103 104 113 107 b 144 106 128 109 135 108 b 162 94 152 104 158 100 b 182 67 167 90 176 77 b 201 43 191 55 198 44 b 212 44 206 40 208 40 b 217 52 214 44 217 49 b 206 87 217 56 213 70 l 194 115 l 194 306 b 199 514 194 492 194 497 b 204 539 202 522 204 534 b 200 552 204 544 202 550 b 194 556 198 554 195 556 b 186 551 192 556 189 554 b 181 532 182 547 181 543 b 179 509 181 524 180 514 b 169 492 178 503 173 495 b 154 481 165 487 157 482 b 135 479 149 480 140 479 b 114 482 131 479 120 480 b 92 497 105 485 98 490 b 77 521 83 505 80 512 b 74 552 75 529 74 542 b 76 578 74 561 75 573 b 85 595 77 582 81 591 b 104 608 90 601 95 606 b 130 610 113 610 121 611 b 153 601 136 609 145 606 b 169 594 159 597 168 594 b 176 597 172 594 175 595 b 179 619 178 598 179 609 b 184 645 180 635 181 640 l 198 655 b 245 661 206 657 218 659 b 285 666 267 662 284 665 b 301 666 285 667 293 667 "},"2":{"ha":668,"x_min":0,"x_max":0,"o":"m 386 669 b 478 661 463 669 466 668 b 517 654 487 656 497 655 b 549 648 533 653 544 650 b 560 631 552 646 557 638 b 572 616 563 625 569 618 b 596 609 575 614 586 610 b 623 601 606 608 619 604 b 641 588 630 599 637 593 b 656 565 646 581 652 572 b 666 538 658 558 664 546 b 669 504 669 527 670 518 b 657 465 669 489 666 482 b 638 432 652 454 643 439 b 619 414 633 425 625 417 b 591 406 614 410 601 407 b 567 399 580 405 569 402 b 556 386 563 397 558 391 b 544 370 554 381 548 374 b 530 362 542 368 534 364 b 506 356 523 361 514 358 b 481 344 501 356 490 348 b 433 320 473 338 452 327 b 380 297 415 312 390 303 b 335 270 368 291 348 280 b 298 250 321 262 305 252 b 279 243 291 247 282 244 b 264 226 275 241 268 232 b 248 207 259 219 252 210 l 233 197 b 223 186 229 194 225 190 b 224 163 222 182 222 174 b 227 126 227 152 227 138 b 228 103 226 112 226 106 b 239 98 230 100 234 98 b 247 105 244 98 246 100 b 250 124 247 108 249 116 b 256 143 251 131 253 139 b 268 152 257 146 263 150 b 288 156 272 155 281 156 b 318 150 295 156 308 153 b 345 136 327 146 340 141 b 375 113 353 133 365 123 b 407 89 385 105 400 93 b 444 65 416 85 432 74 b 478 36 456 56 471 44 b 506 18 485 31 498 21 b 532 8 516 13 526 9 b 545 12 539 7 543 8 b 551 21 549 14 551 19 b 542 47 551 25 547 36 b 528 92 537 57 531 78 b 519 123 524 106 521 119 b 506 141 519 125 513 133 b 493 163 500 147 494 157 b 491 185 491 169 490 178 b 496 206 491 192 494 202 b 508 217 499 208 504 214 b 529 223 512 220 520 223 b 556 219 538 224 545 223 b 582 209 565 215 577 211 b 617 202 589 207 604 204 b 651 192 630 200 645 194 b 672 175 657 189 667 181 b 688 145 679 167 684 157 b 692 106 692 131 693 122 b 684 69 691 89 690 81 b 665 40 679 57 672 48 b 640 25 657 34 647 28 b 609 19 633 22 619 19 b 581 14 598 18 586 16 b 570 3 578 11 572 7 b 559 -9 569 -1 564 -6 b 541 -17 555 -14 550 -17 b 515 -11 534 -17 522 -14 b 492 -3 506 -9 496 -6 b 462 19 486 0 474 10 b 427 48 452 29 436 42 b 394 69 419 54 404 64 b 360 94 384 74 369 86 b 331 117 350 105 338 114 b 306 128 326 119 315 125 b 288 132 300 131 291 132 b 278 130 285 132 281 131 b 271 107 275 127 272 119 l 264 57 b 256 17 261 39 257 21 b 244 2 253 12 248 6 b 228 -7 240 -2 232 -6 b 192 -12 223 -9 206 -11 b 144 -18 176 -12 154 -15 b 110 -20 132 -20 117 -21 b 90 -14 102 -20 94 -18 b 78 -3 86 -11 81 -6 b 70 14 75 1 72 9 b 71 37 69 20 69 30 b 85 65 73 47 77 55 b 101 87 92 72 98 83 b 108 116 103 91 106 105 b 116 148 110 129 113 144 b 129 167 118 154 124 162 b 146 176 132 170 142 175 b 165 181 152 178 160 180 b 183 183 169 181 179 181 b 202 197 191 185 195 189 b 219 215 206 205 213 212 l 232 225 b 247 244 236 228 243 235 b 264 262 252 251 260 260 b 286 270 269 264 279 269 b 323 291 294 273 310 282 b 365 317 336 300 355 310 l 414 338 l 456 356 l 481 370 b 506 381 490 376 500 381 b 524 385 514 382 521 384 b 533 395 528 387 531 391 b 528 424 535 401 534 406 b 518 463 523 437 519 455 b 515 503 516 473 515 491 b 519 549 515 516 517 536 b 531 591 521 562 526 579 b 540 616 536 601 540 613 b 537 624 540 619 539 623 b 514 629 535 627 524 629 b 476 636 498 629 490 631 l 457 644 l 382 644 l 308 643 l 286 635 b 248 628 270 630 260 628 b 227 623 236 628 230 627 b 223 614 225 621 223 617 b 230 593 223 611 227 601 b 240 569 234 583 239 573 b 244 540 241 565 243 552 b 249 511 244 528 247 516 b 265 495 251 506 258 500 b 281 479 270 491 279 482 b 285 456 283 474 285 464 b 281 431 285 447 283 437 b 268 416 278 426 271 419 b 241 409 262 410 257 409 b 204 421 223 409 221 410 b 167 436 191 429 180 434 l 135 443 b 111 453 129 444 117 448 b 93 474 104 457 97 465 b 85 511 86 486 85 491 b 93 550 85 531 86 534 b 112 580 97 559 106 573 b 136 599 119 588 130 595 b 169 610 144 603 158 608 b 197 623 186 614 190 616 l 210 641 b 227 651 214 646 220 650 b 251 654 232 653 244 654 b 286 661 260 654 272 656 l 307 669 l 386 669 "},"3":{"ha":685,"x_min":0,"x_max":0,"o":"m 403 669 b 427 658 407 668 419 663 b 454 651 438 654 446 651 b 484 646 459 651 474 649 b 525 638 495 643 514 640 b 555 631 540 637 550 635 b 568 615 558 629 564 620 b 580 599 572 608 577 600 b 599 594 581 597 591 595 b 625 590 606 594 619 592 b 647 576 632 587 641 581 b 664 555 652 571 659 561 b 678 525 669 548 674 534 b 681 491 681 513 682 505 b 671 455 681 476 679 469 b 649 424 665 443 657 431 b 620 408 640 416 632 412 l 597 401 b 583 389 593 399 586 394 b 572 374 581 384 576 378 b 556 367 568 369 563 367 b 532 377 552 367 542 370 b 513 382 520 383 517 384 b 509 370 509 381 508 377 b 511 344 509 365 509 354 b 513 323 511 335 512 326 b 522 319 515 321 519 319 b 542 331 528 319 533 322 b 561 345 547 337 557 344 b 578 349 566 347 574 349 b 596 345 582 349 591 347 b 611 335 602 343 609 339 b 618 317 613 331 616 323 b 625 300 619 310 622 303 b 651 294 629 298 637 295 b 680 288 662 293 675 290 b 697 277 686 286 694 281 b 713 255 702 272 709 263 b 722 228 716 247 720 235 b 723 196 723 221 725 207 b 713 159 722 183 720 174 l 695 128 b 676 109 691 121 682 113 b 648 99 670 106 657 102 b 623 92 637 96 626 94 b 611 75 619 90 615 82 b 597 58 606 69 601 60 b 575 51 594 56 583 53 b 541 37 566 49 551 44 b 506 24 532 32 517 26 l 481 17 b 454 2 476 16 463 9 b 424 -16 444 -5 431 -13 b 396 -21 417 -19 406 -21 b 369 -16 386 -21 377 -19 b 341 0 362 -13 349 -6 b 312 16 331 7 319 14 l 282 28 b 248 37 273 31 258 36 b 226 43 239 38 229 41 b 211 56 223 44 216 50 b 196 70 206 63 198 69 l 174 75 b 147 83 165 77 152 80 b 131 94 142 85 134 90 b 108 126 129 96 118 111 b 86 162 97 141 88 156 b 83 187 84 168 83 180 b 88 215 83 195 85 208 b 99 240 90 222 95 232 b 117 256 105 246 111 253 b 144 264 124 259 135 262 b 165 270 154 265 162 268 b 172 291 169 273 171 281 b 179 313 173 299 177 309 b 194 327 182 319 188 324 b 223 331 202 330 211 331 b 253 328 231 331 245 330 b 276 316 260 326 270 320 b 294 292 282 310 291 300 b 302 261 301 281 302 274 b 299 237 302 252 301 242 b 288 225 297 232 292 227 b 268 219 285 223 275 220 b 248 212 260 218 251 214 b 244 203 245 209 244 206 l 247 177 b 249 137 251 161 251 155 b 239 98 247 127 243 109 b 230 75 233 89 230 78 b 233 67 230 73 231 69 b 254 59 236 64 243 62 b 288 50 264 58 279 55 b 314 43 297 46 308 43 b 345 55 320 43 330 47 b 381 70 358 63 373 69 b 409 70 392 72 400 72 b 448 55 418 69 435 63 b 482 43 464 48 478 43 b 504 46 487 43 496 44 b 531 58 511 48 522 54 b 556 69 539 64 551 69 l 573 74 b 584 79 577 74 582 77 b 589 89 586 81 589 86 b 580 113 589 92 584 104 b 567 151 575 124 569 141 b 566 200 565 163 565 181 b 572 250 567 216 569 239 b 584 287 574 263 579 277 b 594 311 590 297 594 307 b 587 323 594 317 592 320 b 574 326 582 326 579 327 b 554 310 570 325 561 319 b 531 295 544 301 537 297 b 515 295 525 294 519 294 b 499 305 512 296 504 300 l 476 319 b 451 325 468 321 457 325 b 431 322 444 326 439 326 b 414 305 428 320 419 312 b 393 287 407 298 399 290 b 360 282 386 284 378 282 b 326 290 340 282 337 283 b 307 312 319 296 312 303 b 300 349 301 326 300 330 b 304 381 300 361 301 375 b 314 398 305 385 310 394 b 333 410 319 403 327 408 b 362 415 342 414 350 415 b 388 408 370 414 382 410 b 415 389 393 406 406 397 b 440 373 424 381 435 374 b 457 373 444 371 453 371 b 474 379 462 374 469 377 b 487 393 479 381 484 386 l 500 406 b 514 409 503 407 509 409 b 535 401 519 409 527 406 b 553 393 542 396 551 393 b 559 397 556 393 558 394 b 561 406 561 400 561 404 b 550 422 559 408 555 416 b 534 444 544 428 537 438 b 525 470 531 449 527 461 b 524 509 523 480 523 494 b 531 549 525 521 528 540 b 542 581 533 558 538 573 b 545 604 545 593 546 599 b 537 613 544 608 541 612 b 519 616 534 615 525 616 b 487 620 512 616 498 618 b 456 626 478 623 463 626 b 426 621 447 626 434 623 b 400 619 419 619 406 619 b 373 621 394 619 381 619 b 346 626 365 623 353 626 b 315 621 341 626 326 623 b 274 619 301 619 288 618 b 248 616 256 620 253 620 b 244 607 245 613 244 609 b 251 584 244 605 246 594 b 262 543 256 572 260 556 b 267 515 263 531 266 518 b 284 500 269 513 276 506 b 303 481 292 494 300 486 b 307 459 306 477 307 468 b 302 436 306 451 305 442 b 286 420 299 430 292 423 b 258 416 278 416 273 415 b 220 424 244 416 234 419 b 170 439 209 429 188 435 b 129 452 150 443 136 446 b 109 472 119 456 115 462 b 103 504 104 483 103 488 b 107 536 103 516 105 527 b 119 559 109 543 115 555 b 133 578 122 565 129 574 b 156 593 138 582 148 589 b 187 599 163 595 177 598 b 211 605 197 600 208 602 b 222 619 215 607 219 613 b 234 636 225 624 230 632 b 269 642 241 642 244 642 l 323 647 b 364 658 342 650 353 654 b 386 669 371 663 381 668 b 403 669 390 669 398 669 "},"4":{"ha":653,"x_min":0,"x_max":0,"o":"m 281 666 b 309 659 286 666 297 663 b 351 650 320 656 332 652 b 391 644 369 648 386 645 b 406 631 395 640 403 635 b 416 611 409 628 414 619 b 419 541 419 600 419 590 b 413 469 418 497 417 481 b 405 445 411 462 406 452 b 386 416 401 441 394 427 b 376 378 379 405 376 387 b 366 350 377 368 369 356 b 354 336 362 344 357 339 b 337 328 350 333 342 330 l 319 326 b 306 323 315 326 309 324 b 292 306 301 321 296 316 b 277 286 287 294 282 289 b 260 283 272 284 265 283 l 243 288 b 231 289 237 290 234 290 b 226 280 229 287 226 283 b 229 260 225 277 226 268 b 235 243 230 253 233 245 b 244 238 238 240 242 238 b 286 242 247 238 268 242 b 362 246 312 242 332 246 b 406 243 381 245 393 244 b 448 244 423 242 440 242 b 456 255 453 246 455 249 b 452 313 456 258 456 298 b 443 355 447 326 443 345 b 445 381 442 367 442 374 b 455 396 447 387 451 394 b 474 402 457 398 467 401 b 489 410 485 403 486 406 b 492 422 492 414 493 417 b 489 444 491 425 490 436 b 494 471 487 459 488 462 b 511 488 497 479 504 483 b 541 494 519 491 529 494 b 573 492 552 494 563 494 b 599 481 582 489 594 484 b 614 463 604 477 610 470 b 620 435 619 454 620 446 b 617 413 620 426 619 417 b 602 399 613 406 608 403 b 589 394 595 397 590 394 b 581 388 588 394 584 393 b 572 366 575 383 570 381 l 574 332 b 569 297 574 320 571 309 b 574 246 565 272 573 247 b 580 244 575 245 578 244 b 585 246 581 244 583 244 l 600 281 b 624 302 606 300 613 300 b 649 302 634 304 641 304 b 669 295 656 301 664 297 b 683 277 673 292 679 284 b 690 239 689 264 690 260 b 683 202 690 219 689 214 b 669 183 679 194 673 186 b 649 177 664 181 656 178 b 624 177 641 174 634 174 b 603 188 613 179 609 181 b 585 218 598 193 586 217 b 580 221 583 219 581 221 b 575 219 579 221 576 220 b 573 216 574 219 573 217 b 571 189 573 213 570 204 b 578 141 572 175 578 156 b 566 95 578 121 576 119 b 556 66 559 83 558 69 l 556 54 b 564 47 558 51 561 48 b 574 51 567 46 571 48 b 587 71 578 53 583 63 b 600 95 591 81 597 92 b 614 106 604 100 610 105 b 637 109 619 108 629 109 b 661 105 645 109 654 108 b 678 91 667 102 675 95 b 687 69 681 86 685 76 b 691 41 689 61 691 48 b 688 17 691 33 690 23 b 680 -3 687 11 683 3 b 664 -16 677 -8 669 -13 b 638 -21 656 -19 647 -21 b 611 -16 627 -21 619 -19 b 583 5 606 -14 593 -5 b 556 24 573 13 561 22 b 516 28 550 27 541 28 b 470 22 489 28 482 27 b 434 0 463 19 446 9 b 403 -18 422 -8 408 -17 b 381 -21 397 -20 388 -21 b 362 -18 376 -21 368 -20 b 346 -8 357 -17 351 -12 b 334 9 342 -5 336 4 b 330 39 331 17 330 28 b 333 70 330 50 331 64 b 348 93 335 78 340 86 b 369 107 355 101 362 106 b 387 109 374 108 383 109 b 406 107 392 109 400 108 b 420 97 410 106 417 102 b 436 72 425 94 431 82 b 449 48 440 62 446 51 b 461 44 453 45 457 44 b 469 48 464 44 467 45 b 469 62 469 51 470 56 b 462 94 469 66 469 81 b 450 142 454 110 450 128 b 455 180 450 160 454 169 b 456 207 456 187 456 206 b 452 216 456 209 454 213 b 444 219 450 218 446 219 b 425 219 442 219 434 220 l 394 217 b 346 212 384 216 362 211 b 306 218 329 212 311 217 b 236 213 291 219 251 216 l 206 208 b 177 194 193 206 186 203 b 160 181 171 188 163 183 b 141 179 157 180 148 179 b 120 182 133 179 124 181 b 107 192 117 184 111 188 b 97 209 104 196 99 204 b 94 240 95 216 94 228 b 97 272 94 251 95 266 b 106 291 99 280 103 287 b 122 302 111 295 118 300 b 152 304 128 304 138 305 l 186 304 b 213 308 195 304 205 306 b 231 314 219 311 229 314 b 251 308 235 314 244 311 b 268 308 262 304 262 304 b 271 319 271 311 272 315 b 263 331 270 322 267 327 b 254 344 259 335 256 342 b 258 364 252 348 256 358 b 273 399 263 374 269 382 b 282 440 277 412 281 431 b 289 490 284 450 288 472 b 292 542 291 507 292 531 b 288 571 292 555 290 567 b 267 589 286 576 271 583 b 244 606 261 594 247 601 b 241 628 241 612 240 618 b 247 648 241 636 244 644 b 262 660 250 652 256 656 b 281 666 269 664 277 666 "},"5":{"ha":699,"x_min":0,"x_max":0,"o":"m 669 741 b 695 734 680 741 687 739 b 712 721 702 731 709 725 b 721 697 716 716 719 706 b 723 664 723 690 724 675 b 717 632 722 653 719 639 l 706 616 b 691 606 704 613 697 609 b 669 601 685 605 676 601 b 648 605 663 601 653 604 b 631 614 643 606 634 610 b 616 642 627 619 620 630 b 604 666 612 652 606 663 b 591 669 601 668 595 669 b 581 665 586 669 582 669 b 581 654 579 662 580 658 l 593 639 b 605 619 598 634 603 626 b 605 600 606 612 606 607 b 594 587 603 595 599 590 b 573 579 591 584 581 581 l 541 573 b 514 569 531 571 519 569 b 487 573 509 569 497 571 l 423 581 b 366 590 390 584 373 586 b 344 603 358 592 350 598 b 327 615 338 607 331 613 b 312 619 321 618 316 619 b 301 615 309 619 303 618 b 297 606 299 613 297 609 b 303 584 297 603 299 593 b 310 543 306 574 309 557 b 307 487 310 527 309 506 l 296 437 l 281 398 b 271 368 276 385 271 373 b 275 356 271 364 273 359 b 285 353 277 354 281 353 b 302 367 292 354 295 356 b 321 385 307 374 317 382 b 368 394 330 390 339 392 b 457 396 387 395 428 396 b 530 390 510 396 512 396 b 568 381 538 385 556 381 b 596 373 581 379 593 376 b 612 356 603 371 608 363 b 626 338 616 347 622 340 l 649 332 b 672 327 659 331 669 329 b 687 319 677 326 682 322 b 703 296 692 314 699 304 b 719 256 706 287 715 269 b 729 218 723 244 728 226 b 726 189 729 208 728 196 b 710 145 725 181 718 162 b 691 104 704 128 695 109 b 677 88 688 98 681 91 b 645 80 670 85 658 81 b 619 71 633 78 622 73 b 608 54 618 69 611 61 b 593 36 604 44 600 40 b 576 32 588 34 581 32 b 559 30 572 32 565 31 b 537 20 554 29 544 24 b 518 8 531 15 523 10 b 482 3 513 6 496 4 l 431 -3 b 390 -12 414 -5 404 -6 b 362 -22 380 -17 368 -21 b 343 -21 357 -23 349 -22 b 318 -6 336 -19 326 -12 b 297 7 310 1 301 6 b 265 11 294 9 280 10 b 232 19 243 13 239 14 b 219 35 227 23 221 30 b 209 47 217 41 212 46 b 184 54 206 49 195 52 b 154 63 173 56 160 60 b 128 82 147 66 136 74 b 106 109 119 90 109 103 b 98 137 102 117 99 129 b 100 163 97 144 98 156 b 109 187 101 169 106 181 b 128 204 115 193 122 200 b 159 210 135 207 145 209 b 185 218 174 212 182 215 b 193 231 188 220 192 226 b 200 250 194 236 197 244 b 216 269 203 256 211 264 b 232 280 221 273 229 278 b 254 282 236 281 245 282 b 282 276 264 282 273 281 b 303 261 291 272 300 265 b 315 242 307 256 312 247 b 319 208 318 234 319 223 b 314 180 319 190 319 185 b 299 168 311 176 305 170 b 280 164 294 166 287 164 b 264 160 275 164 268 162 b 259 124 260 157 259 153 b 251 74 259 93 259 91 b 243 48 246 65 243 53 b 248 37 243 44 244 40 b 281 33 250 36 265 34 b 329 37 307 32 313 32 b 361 42 342 42 351 43 b 390 32 370 41 381 37 b 412 22 397 28 407 24 b 456 24 418 21 433 21 l 502 29 b 528 42 506 30 518 34 b 560 54 541 50 548 52 b 581 58 568 55 577 56 b 588 66 583 59 586 63 b 581 90 589 70 586 79 b 570 123 576 100 571 114 b 569 216 569 131 569 164 b 580 309 572 293 572 294 b 589 336 583 319 588 331 b 587 351 592 344 592 345 b 561 357 582 355 576 356 b 527 365 550 358 533 362 l 499 373 b 436 372 493 374 468 374 b 358 368 407 371 373 369 b 327 358 334 366 333 366 b 313 342 322 355 317 346 b 291 327 307 336 300 331 b 253 319 282 324 265 320 b 225 315 240 319 229 317 b 216 298 223 313 219 305 b 201 277 213 292 206 281 b 181 262 197 270 188 265 b 160 256 176 259 166 256 b 136 261 155 256 144 258 b 114 274 128 263 119 268 b 100 294 107 279 102 288 b 97 319 99 299 97 311 b 103 343 97 331 98 336 b 116 355 106 346 112 353 b 131 361 119 356 126 359 b 144 372 136 363 142 368 b 145 408 145 377 146 387 b 147 467 144 429 144 444 b 155 523 149 481 154 508 b 154 583 157 548 157 556 b 149 620 151 599 149 617 b 152 637 149 626 151 632 b 160 652 154 643 157 649 b 173 662 163 655 169 659 b 194 665 177 664 186 665 b 229 658 202 665 217 662 b 275 650 239 655 259 651 b 315 644 290 648 307 645 l 337 636 b 361 636 345 634 350 634 b 430 643 370 638 400 642 b 498 647 459 644 490 645 b 524 647 509 649 517 649 b 538 639 529 646 535 643 b 551 619 541 636 547 628 b 566 603 556 606 560 604 b 577 605 570 601 575 603 b 581 613 580 606 581 610 b 572 629 581 617 577 624 l 559 645 b 555 661 556 648 555 655 b 557 676 555 666 556 672 b 570 687 560 681 565 685 b 590 694 575 690 584 693 b 606 700 595 694 603 696 b 623 717 609 702 616 709 b 644 735 630 726 637 732 b 669 741 650 739 661 741 l 669 741 "},"6":{"ha":677,"x_min":0,"x_max":0,"o":"m 511 666 b 544 668 522 666 537 667 b 565 669 552 669 561 669 b 583 656 568 668 577 661 b 604 644 589 650 599 644 b 638 642 607 643 623 642 b 675 636 655 641 669 639 b 693 624 681 633 689 629 b 705 606 696 619 702 612 b 711 575 710 598 711 591 b 704 540 711 559 710 553 b 688 514 700 532 693 520 b 666 494 681 507 672 499 b 634 478 660 491 645 482 b 601 460 622 472 607 464 b 579 446 595 456 584 449 b 552 441 572 444 562 441 b 526 447 541 441 533 443 b 509 465 519 452 514 457 b 504 493 506 474 504 481 b 508 519 504 501 506 512 b 526 537 513 526 518 532 b 545 552 533 541 542 547 b 557 580 553 556 555 561 b 565 616 559 593 562 608 b 566 636 567 624 568 631 b 557 644 565 639 561 643 b 536 641 555 644 544 644 b 506 638 526 638 517 637 l 474 641 b 437 639 460 643 449 642 b 397 634 426 636 408 634 b 367 631 382 634 372 633 b 350 616 362 629 354 621 b 331 598 345 610 336 602 b 305 589 325 595 312 591 b 283 581 295 588 286 583 b 281 566 281 578 280 574 b 287 539 281 560 284 547 b 293 497 292 526 293 518 b 287 449 293 480 292 465 b 273 410 284 437 278 420 b 258 378 269 402 263 386 b 253 347 256 368 253 355 b 258 327 253 339 255 332 b 275 321 264 321 266 320 b 286 330 285 322 286 322 b 283 346 287 335 285 343 b 280 367 281 351 280 360 b 285 387 280 375 281 381 b 301 402 288 394 295 399 b 330 404 310 406 313 406 b 356 403 342 402 351 402 b 375 413 361 405 369 408 b 397 423 381 417 391 421 b 459 426 405 426 424 426 l 509 425 l 535 414 b 579 397 548 406 568 399 b 604 389 589 395 601 391 b 617 371 607 386 614 379 b 627 356 620 365 625 357 b 654 347 630 355 641 350 b 686 335 669 344 680 340 b 713 298 696 328 701 321 b 732 252 720 281 730 261 b 737 210 736 241 737 229 b 729 162 737 189 735 181 b 713 117 724 149 717 130 b 695 86 707 104 701 93 b 672 72 689 80 680 74 b 652 69 665 70 656 69 b 635 64 647 69 640 67 b 621 46 628 60 625 56 b 608 25 619 38 614 30 b 585 16 603 19 596 17 b 548 1 575 14 563 10 b 514 -12 537 -5 520 -11 b 463 -19 506 -13 483 -17 b 404 -18 431 -21 423 -21 b 361 -11 392 -14 372 -12 b 330 -5 350 -10 335 -7 b 308 10 324 -2 314 5 b 281 25 302 16 290 21 b 256 34 271 28 261 32 b 245 54 254 37 248 45 b 233 72 242 61 236 70 b 209 78 231 74 219 77 b 181 86 199 80 187 83 b 164 103 175 89 169 95 b 150 137 159 109 154 125 b 132 184 146 150 138 170 b 118 225 127 197 120 215 b 113 281 116 233 114 259 b 114 346 112 304 113 330 b 122 394 116 361 119 382 l 137 431 b 157 486 142 442 152 467 b 176 531 165 506 172 526 b 191 544 180 536 187 542 b 219 552 194 546 208 550 b 246 557 231 553 244 556 b 256 577 251 560 254 566 b 266 600 257 588 261 595 b 283 610 269 604 277 608 b 297 613 289 612 295 613 b 312 617 301 613 307 615 b 340 638 317 619 330 629 b 369 657 352 651 360 656 b 403 661 375 659 390 661 b 439 666 414 661 431 663 b 472 668 448 669 459 669 m 381 388 l 359 377 l 334 378 b 306 377 317 380 309 379 b 303 368 305 375 303 370 b 307 347 303 365 305 356 b 313 324 310 340 313 330 b 306 306 313 319 310 312 b 283 296 301 301 295 298 b 264 289 274 294 266 292 b 260 277 262 287 260 281 b 266 252 261 271 263 261 b 276 205 269 244 273 222 b 283 146 281 185 283 165 b 274 93 283 121 282 115 b 269 61 267 72 266 67 b 277 52 269 57 274 54 b 294 47 281 51 288 48 b 319 32 300 45 311 39 b 342 18 326 27 336 19 b 365 14 346 16 357 15 b 397 10 373 14 387 13 b 431 6 406 8 422 6 b 484 10 442 6 466 8 b 526 18 504 12 522 16 l 548 31 b 572 38 557 34 568 38 b 586 41 576 38 582 40 b 597 52 593 44 595 47 b 595 66 597 55 597 61 b 585 90 594 69 589 80 l 579 107 l 578 190 b 580 292 578 240 578 281 b 591 331 581 303 585 320 b 597 355 594 342 597 351 b 593 364 597 356 595 361 b 569 374 587 369 581 371 b 531 388 558 376 544 381 l 510 399 l 457 400 l 405 400 "},"7":{"ha":636,"x_min":0,"x_max":0,"o":"m 533 702 b 556 695 539 701 550 698 b 583 687 565 692 576 688 b 611 684 591 685 603 684 b 639 680 619 684 631 681 b 659 668 646 678 653 673 b 669 650 663 663 668 655 b 671 631 670 645 671 636 b 661 577 671 627 667 601 b 636 500 653 539 648 526 l 620 463 b 612 445 619 459 615 453 b 600 428 609 440 604 432 b 584 418 595 424 588 419 b 556 412 578 416 567 413 b 531 405 543 410 536 408 b 522 391 527 401 523 395 b 512 375 520 386 517 380 b 495 362 508 369 500 364 b 474 354 491 359 481 356 b 456 344 467 350 458 346 b 445 327 454 341 449 334 b 431 310 442 321 435 313 b 413 303 427 307 419 304 b 399 298 408 302 402 300 b 395 288 397 296 395 291 b 401 269 395 285 398 277 b 411 240 406 261 409 248 b 409 191 413 227 412 216 l 403 133 b 406 93 402 118 403 101 b 416 62 406 84 411 70 b 426 34 419 52 423 40 b 425 13 427 29 426 19 b 415 -5 423 7 419 -1 b 394 -15 410 -10 402 -14 b 348 -13 384 -19 377 -19 l 298 -6 b 277 0 291 -4 280 -2 b 262 12 273 2 266 8 b 252 34 258 18 254 27 b 251 74 250 44 248 56 l 255 140 b 261 191 256 166 258 181 b 280 232 264 198 272 218 b 302 268 289 251 296 264 b 317 278 306 271 314 277 b 340 282 320 279 331 281 b 361 288 349 284 358 286 b 376 306 364 290 371 298 b 402 324 383 319 386 319 b 427 341 419 329 420 330 b 439 358 431 347 436 356 b 453 369 442 362 448 366 l 475 378 b 494 389 483 381 491 384 b 500 406 498 394 500 399 b 498 426 500 413 499 421 b 493 451 496 431 494 442 b 493 480 492 459 492 472 b 506 511 494 488 499 500 b 518 536 511 520 516 531 b 518 552 519 540 519 548 b 510 562 516 556 513 561 l 484 568 b 395 592 471 569 438 578 b 311 617 357 604 319 615 b 282 619 303 618 290 619 b 237 616 274 619 255 618 b 202 610 220 614 204 611 b 195 601 199 608 196 604 b 207 549 194 597 198 578 l 226 488 b 227 463 228 480 228 470 b 221 443 227 457 224 447 b 206 429 219 437 213 432 b 136 425 195 423 193 423 b 69 429 104 425 73 427 b 53 440 65 430 58 435 b 44 457 49 444 44 453 b 41 474 42 462 41 470 b 44 492 41 479 42 485 b 57 517 44 496 51 507 b 80 556 64 526 73 544 b 96 583 85 569 93 581 b 111 594 100 587 106 592 b 141 599 117 595 130 598 b 167 605 153 601 164 603 b 178 618 169 608 175 613 b 192 631 181 622 187 629 b 240 639 195 632 218 637 b 302 642 276 644 283 645 b 394 617 315 640 350 631 b 481 591 431 604 471 593 b 505 589 491 589 501 588 b 514 594 507 590 511 592 b 518 605 516 596 518 601 b 506 624 518 611 515 616 b 490 645 498 631 492 640 b 486 662 487 650 486 657 b 491 680 486 667 488 675 b 498 694 493 686 496 692 b 512 700 501 695 507 698 b 533 702 518 702 527 704 "},"8":{"ha":656,"x_min":0,"x_max":0,"o":"m 404 669 b 424 666 407 669 417 668 b 456 648 431 663 444 656 l 482 629 b 515 617 487 627 502 620 l 554 606 b 576 598 563 605 572 601 b 588 587 581 594 586 590 b 592 557 589 583 592 571 l 594 533 l 607 523 b 625 507 615 519 623 511 b 628 494 627 505 628 498 b 624 480 628 490 627 483 b 610 464 622 476 617 469 b 598 451 606 460 600 455 b 597 429 595 447 594 440 b 597 406 597 419 598 409 l 587 391 b 569 381 582 386 575 382 b 545 384 564 381 555 381 b 525 384 531 388 530 388 b 520 373 523 381 520 377 b 527 360 520 369 523 364 b 556 351 531 355 534 354 b 588 347 569 350 584 348 b 606 332 592 345 600 340 b 626 313 611 327 621 319 l 651 292 b 677 266 660 284 671 272 b 692 237 681 258 688 245 b 698 204 696 226 698 215 b 694 172 698 194 696 181 b 681 141 692 165 686 150 b 662 116 675 130 667 120 b 633 106 656 111 646 107 b 608 98 623 104 611 101 b 601 91 606 97 602 94 b 598 80 599 87 598 82 b 593 66 598 77 595 70 b 580 51 590 58 586 55 b 553 45 574 49 563 46 b 523 36 544 44 531 41 l 494 26 b 468 15 485 24 473 19 b 448 -1 462 11 453 5 b 426 -15 444 -6 433 -12 b 400 -21 418 -19 408 -21 b 376 -16 393 -21 383 -19 b 350 0 369 -13 357 -6 b 328 17 342 6 332 14 b 299 26 322 19 311 24 b 262 35 289 28 272 31 b 225 49 254 39 237 45 b 190 69 212 54 200 59 b 159 85 181 74 167 82 b 139 94 152 88 143 92 b 127 109 135 96 131 104 b 123 126 125 114 123 122 b 120 140 123 130 122 135 b 106 157 119 144 113 152 b 90 177 98 165 92 173 b 87 192 88 181 87 187 b 90 206 87 196 88 203 b 109 228 92 210 100 220 b 131 264 126 243 126 243 b 144 296 134 277 140 290 b 162 312 147 303 155 308 b 195 318 173 319 176 319 b 222 320 216 316 218 316 b 226 340 226 324 228 328 b 219 361 225 349 223 356 b 198 373 217 365 209 369 b 175 383 190 376 179 381 b 158 404 171 385 164 395 b 143 440 154 413 146 429 b 137 476 137 456 136 462 b 151 516 138 490 140 496 b 171 550 157 529 167 543 b 192 565 177 556 184 562 b 219 573 197 569 210 572 b 241 581 231 575 238 578 b 253 598 244 583 249 592 b 265 615 256 604 261 612 b 295 621 270 618 280 619 b 328 628 309 622 322 626 b 350 644 331 630 342 637 b 374 661 358 651 369 658 b 389 668 378 663 385 667 b 404 669 393 669 398 669 m 303 599 b 278 594 287 599 282 599 b 273 583 275 593 273 588 b 281 563 273 581 277 571 b 296 520 286 555 293 535 b 306 460 302 501 306 482 b 316 422 308 429 309 427 b 331 417 319 419 326 417 b 358 414 335 417 348 416 b 399 404 369 412 387 407 b 446 389 411 401 432 394 b 481 381 459 384 475 381 b 497 388 490 381 493 382 l 510 403 b 528 410 515 408 519 410 b 545 407 533 410 542 408 b 562 405 549 406 556 405 b 572 413 569 406 570 407 b 567 449 574 418 573 426 b 559 492 563 467 559 485 b 563 520 559 498 560 511 l 568 556 b 564 579 569 572 569 573 b 544 585 559 582 553 584 l 510 594 l 490 600 l 459 585 l 430 572 l 381 572 l 353 585 b 303 599 325 599 322 599 m 271 305 b 250 305 261 306 252 306 l 233 299 b 198 294 224 295 216 294 b 171 292 186 295 174 294 b 161 281 168 291 163 286 b 155 259 159 278 156 267 b 154 237 153 250 153 241 l 160 213 b 164 182 164 202 165 193 b 155 150 163 173 159 161 b 146 128 151 141 146 131 b 152 115 146 124 148 119 b 172 105 155 112 164 106 b 200 88 181 101 194 94 b 236 69 210 80 221 74 b 274 55 249 65 265 58 b 304 49 283 51 294 49 b 347 63 316 49 321 51 b 394 77 372 74 378 76 b 424 75 405 78 417 77 b 456 60 430 73 444 68 b 486 49 469 53 481 49 b 512 56 490 49 503 52 b 547 67 524 63 536 66 b 569 73 559 68 566 69 b 574 83 571 75 574 80 b 564 106 574 85 569 95 b 547 146 558 116 551 134 b 540 194 543 162 540 175 b 532 226 537 216 536 222 b 511 232 529 230 523 231 b 469 242 503 233 484 238 l 408 255 l 359 268 b 327 285 352 270 337 279 b 299 301 317 293 304 300 b 271 305 294 303 281 305 "},"9":{"ha":678,"x_min":0,"x_max":0,"o":"m 380 669 b 407 666 386 669 398 668 b 444 658 417 663 432 659 l 488 648 b 528 631 502 643 519 636 b 550 616 535 628 546 620 b 565 594 555 611 562 601 b 577 577 569 586 574 579 b 601 570 581 575 591 572 b 626 564 609 569 621 566 b 644 554 631 563 639 558 b 656 537 648 549 654 542 b 673 494 659 532 667 513 l 694 436 b 704 390 698 423 703 403 b 706 346 706 378 706 358 b 704 303 706 335 706 316 b 696 260 703 291 699 271 l 680 212 b 659 160 672 197 664 174 l 646 126 b 632 109 644 122 638 114 b 613 98 628 106 619 100 b 588 94 608 97 596 94 b 569 87 581 92 571 89 l 556 69 b 545 56 552 61 547 56 b 521 34 544 56 532 46 b 476 6 500 15 496 12 b 436 -11 464 0 445 -6 l 419 -19 l 349 -19 l 263 -20 b 240 -12 251 -21 247 -20 l 226 -1 b 187 5 223 1 211 3 b 142 12 162 6 150 8 b 122 27 135 15 126 21 b 110 46 118 31 113 40 b 108 78 108 52 107 65 b 118 114 109 95 111 103 b 135 137 121 122 129 132 b 163 156 141 143 154 151 b 206 181 174 162 194 172 b 241 199 219 189 235 196 b 266 203 246 202 258 203 b 289 199 274 203 283 202 b 304 187 294 197 300 192 b 313 167 307 183 312 173 b 314 143 315 158 315 148 b 307 124 313 135 310 128 b 291 109 305 119 297 113 b 273 96 284 106 276 99 b 264 75 269 93 266 85 b 256 40 263 67 259 51 b 252 15 254 30 252 18 b 257 6 252 12 254 8 b 277 5 263 1 266 1 b 351 7 284 6 310 7 l 412 7 l 439 17 b 476 31 454 24 470 30 b 504 51 482 33 494 42 b 530 74 513 60 525 70 b 537 91 535 80 537 84 b 531 114 537 95 534 106 b 526 155 528 126 526 134 b 531 197 526 170 528 186 b 548 244 532 207 542 228 b 564 287 555 260 562 280 b 563 311 566 299 566 304 b 551 323 560 318 556 322 b 539 325 547 325 543 326 b 532 319 536 324 533 321 b 533 302 531 314 531 309 b 537 280 535 294 537 285 b 532 260 537 273 535 265 b 519 247 530 255 524 249 b 488 243 515 244 508 243 b 449 236 465 244 460 243 b 422 217 442 232 430 224 b 397 200 415 210 403 203 b 372 193 392 196 380 194 b 344 194 364 192 353 193 b 316 210 337 196 325 203 b 275 235 307 217 289 229 b 234 252 261 243 243 250 b 211 260 224 254 215 258 b 199 275 207 263 202 269 b 187 291 196 281 192 288 b 169 298 183 294 176 297 l 145 304 b 124 317 138 306 130 310 b 106 345 119 321 111 333 l 89 391 b 82 442 82 414 81 419 b 91 488 83 460 85 473 b 106 528 95 500 102 519 b 123 557 111 539 119 552 b 142 571 128 562 136 569 b 169 578 147 574 160 577 b 193 584 179 580 189 582 b 203 602 196 586 200 594 b 215 621 205 609 211 618 b 226 631 219 625 223 630 l 269 644 b 323 658 291 651 315 656 b 356 666 333 660 348 663 b 380 669 363 668 374 669 m 382 642 b 356 640 373 642 361 641 b 332 634 353 638 341 636 b 281 622 322 633 300 628 b 240 610 262 617 244 612 b 230 601 236 608 231 605 b 225 590 227 598 225 593 b 231 562 225 584 228 573 b 241 522 235 552 239 533 b 241 469 243 506 243 492 b 240 400 239 452 239 420 b 239 347 241 378 240 356 b 228 316 237 339 232 324 b 219 292 223 306 219 294 b 224 282 219 289 222 285 b 244 275 227 280 236 277 b 271 265 252 274 264 269 b 291 255 278 261 286 256 b 323 266 296 254 304 256 b 364 279 344 275 352 279 b 403 267 377 279 383 275 l 427 255 l 447 263 b 488 269 465 269 469 269 b 511 273 508 267 508 267 b 510 294 514 280 514 283 b 506 319 508 303 506 313 b 510 333 506 323 508 330 b 521 344 512 339 517 343 b 538 349 525 346 532 348 b 554 353 544 350 551 352 b 557 366 556 356 557 359 b 552 396 557 371 555 385 b 539 448 548 406 544 431 b 534 505 536 467 534 491 b 539 547 534 520 536 535 b 545 572 544 557 545 569 b 541 589 545 576 544 582 b 525 606 538 594 531 601 b 489 621 518 610 503 617 l 433 635 l 382 642 "}," ":{"ha":296,"x_min":0,"x_max":0,"o":""},"A":{"ha":1003,"x_min":0,"x_max":0,"o":"m 561 770 b 604 756 577 769 584 768 l 639 735 b 659 717 645 731 655 723 b 683 687 664 711 674 697 l 715 649 b 739 623 723 638 733 628 b 760 618 744 620 753 618 b 781 626 769 618 775 620 b 788 636 785 630 788 634 b 781 658 788 638 784 648 b 773 687 775 671 772 680 b 782 705 775 692 779 699 b 802 718 785 708 794 715 b 831 723 808 719 822 723 b 865 712 846 723 851 720 b 898 694 874 706 888 697 b 923 686 906 689 919 686 b 937 690 929 686 934 687 b 941 711 939 692 941 701 b 950 737 941 727 942 730 b 971 748 955 743 964 747 b 1006 759 979 749 994 755 b 1044 769 1020 766 1033 769 b 1095 759 1055 769 1077 765 b 1135 745 1113 755 1131 748 b 1146 730 1139 741 1144 734 b 1151 686 1149 723 1151 707 b 1146 637 1151 666 1149 647 b 1130 613 1142 626 1138 619 b 1106 605 1122 608 1114 605 b 1073 609 1099 605 1084 606 b 1047 606 1054 613 1054 613 b 1041 580 1043 601 1041 594 b 1038 553 1041 569 1039 556 b 1015 519 1036 548 1025 532 b 979 480 1004 504 987 487 b 961 461 971 473 962 465 b 963 438 960 458 961 446 b 963 408 966 423 966 418 b 950 390 961 403 956 394 b 931 381 944 385 936 381 b 908 382 927 380 917 381 l 888 387 b 878 381 884 388 881 386 b 877 363 873 375 873 373 b 893 345 880 357 886 348 b 912 340 898 343 906 340 b 927 344 916 340 923 342 b 956 367 932 347 944 357 b 991 388 969 379 980 385 b 1016 390 998 390 1009 391 l 1037 383 b 1056 364 1044 381 1052 373 b 1065 311 1064 351 1065 348 b 1056 256 1065 277 1064 272 b 1032 230 1049 243 1044 237 b 1002 220 1024 226 1011 221 b 974 223 994 220 981 221 b 953 232 967 225 957 229 b 936 254 947 237 940 245 b 919 274 931 262 924 270 b 898 281 914 279 906 281 b 878 276 892 281 882 279 b 868 264 874 271 869 267 l 863 245 b 853 226 861 238 856 230 b 825 220 846 221 841 220 b 798 218 814 220 802 219 b 792 206 795 215 792 210 b 798 181 792 204 795 191 b 803 151 803 169 804 156 b 795 131 802 145 798 136 b 770 114 791 127 781 120 b 749 103 760 109 750 105 b 746 91 747 101 746 94 b 754 67 746 86 750 75 b 770 48 759 57 767 50 b 787 48 777 45 781 45 b 800 69 793 50 796 56 l 808 97 b 822 120 809 105 817 114 b 844 133 827 126 838 131 b 868 137 853 135 862 137 b 894 132 874 137 884 135 b 919 121 902 131 914 125 b 941 92 926 116 935 105 b 952 43 951 73 952 69 b 945 2 952 19 951 11 b 933 -15 943 -4 937 -11 b 911 -27 929 -19 919 -24 b 874 -31 899 -31 888 -31 b 833 -21 863 -30 844 -25 b 798 -4 821 -18 805 -9 b 777 11 790 2 781 9 b 762 13 772 14 766 14 b 751 5 759 12 754 8 b 747 -27 748 0 747 -9 b 742 -61 748 -48 747 -54 b 724 -76 738 -66 730 -72 b 690 -81 717 -80 707 -81 b 646 -72 671 -81 662 -80 b 612 -48 632 -67 621 -59 b 591 -14 602 -39 595 -28 b 585 18 588 -3 585 11 b 588 41 585 24 586 34 b 600 63 590 47 594 57 b 622 78 604 69 613 75 b 664 81 633 82 642 83 b 701 84 685 79 694 80 b 715 103 707 87 711 93 b 728 125 719 111 724 121 b 748 135 731 128 741 132 b 767 145 756 138 763 143 b 772 159 769 148 772 154 b 767 181 772 164 769 173 b 762 209 764 188 762 201 b 766 231 762 219 763 228 b 779 243 768 235 773 241 b 807 247 784 245 797 247 b 831 252 820 247 827 249 b 829 268 834 256 834 259 l 809 295 b 789 315 802 305 794 312 b 753 309 784 316 769 312 b 709 301 738 306 719 302 b 687 293 702 300 691 296 b 675 270 681 289 678 282 b 666 249 673 262 669 252 b 645 245 661 245 655 244 l 616 250 b 594 249 602 254 600 254 b 596 224 590 244 590 244 b 603 192 603 210 605 201 b 594 172 602 185 597 176 b 569 160 590 168 578 163 b 545 150 558 156 548 153 b 539 128 542 147 539 142 b 535 102 539 118 537 106 b 524 85 534 96 529 89 b 513 76 519 80 514 76 b 495 69 511 76 504 73 b 478 56 488 67 480 59 b 474 40 476 52 474 44 b 471 19 474 35 473 27 b 459 -1 469 14 465 5 b 427 -22 455 -6 440 -15 b 378 -53 412 -29 392 -43 b 339 -79 363 -66 349 -76 l 313 -88 b 289 -104 306 -91 296 -98 b 263 -119 281 -109 270 -116 b 238 -123 256 -121 245 -123 b 215 -119 231 -123 220 -121 b 187 -104 208 -117 196 -109 b 153 -89 178 -98 163 -92 b 124 -80 143 -87 130 -83 l 107 -65 b 99 -26 103 -58 101 -49 b 90 9 97 -1 96 5 b 76 16 85 12 80 15 l 46 21 b 17 32 34 25 21 30 b 0 55 12 35 5 45 b -11 107 -8 69 -9 75 b -8 159 -11 127 -10 150 b 14 214 -6 169 5 193 b 39 266 25 234 36 259 b 54 292 43 274 49 285 b 77 308 60 298 69 306 b 119 319 83 312 103 317 b 155 326 137 321 153 325 b 173 338 157 327 165 332 b 203 351 180 344 194 349 b 243 366 213 355 231 360 b 289 382 255 371 275 379 b 319 391 301 385 315 389 b 342 408 321 394 333 401 b 377 427 353 418 365 424 b 412 430 389 430 399 431 b 465 412 422 428 442 421 b 525 388 484 403 511 393 b 576 382 540 384 558 382 b 628 385 591 382 614 383 b 660 395 643 388 656 391 b 673 417 665 398 670 407 b 685 435 676 424 682 433 b 712 437 690 437 701 438 b 738 438 723 436 734 437 b 743 463 743 441 744 444 b 747 494 742 480 743 487 b 767 506 750 497 759 504 b 787 521 776 511 784 518 b 791 542 791 527 792 533 b 792 563 790 549 790 558 b 804 582 794 569 799 578 b 822 595 808 588 817 594 b 853 599 828 599 838 600 b 877 604 869 598 874 599 b 870 626 880 608 879 612 b 859 662 865 636 861 648 b 849 690 857 679 856 685 b 829 694 845 693 837 694 b 810 690 821 694 815 693 b 805 679 807 687 805 681 b 812 657 805 676 808 667 b 820 637 818 649 820 639 b 816 622 820 634 819 629 b 793 601 812 617 803 607 b 758 590 778 591 772 590 b 728 597 744 590 738 592 b 688 638 721 602 703 619 b 650 684 672 656 656 676 b 631 706 644 691 635 700 b 614 713 627 711 621 713 b 584 705 608 713 594 709 b 549 694 570 697 561 694 b 526 698 540 694 530 696 b 509 709 522 700 514 706 b 493 716 505 713 496 716 b 481 713 489 716 484 715 b 478 701 479 710 478 706 b 485 675 478 696 481 685 b 490 638 490 661 491 652 b 478 599 489 624 486 613 b 450 558 472 589 459 570 b 433 529 435 542 432 536 b 442 515 433 521 436 518 b 475 511 447 513 461 511 b 505 517 494 511 500 512 b 511 550 508 520 510 531 b 519 593 511 571 514 580 b 547 627 524 601 536 616 b 584 650 563 641 571 646 b 613 655 594 653 607 655 b 637 649 620 655 631 652 b 665 630 645 646 656 637 l 691 599 b 707 570 698 591 706 577 b 707 540 711 559 711 554 b 694 514 706 531 700 519 b 676 500 691 507 682 502 b 647 495 670 497 658 495 b 618 500 637 495 624 498 b 589 520 611 503 598 512 b 564 537 581 529 569 536 b 548 534 558 539 553 538 b 538 516 543 531 539 525 b 528 494 536 507 532 498 b 491 483 520 485 518 484 b 443 484 474 483 453 483 b 416 495 431 486 422 490 b 401 520 409 500 404 509 b 391 542 399 530 394 539 b 362 549 387 544 375 548 b 330 556 351 551 336 554 b 310 576 320 561 315 568 b 303 608 305 584 303 595 b 308 643 303 618 305 634 b 321 675 311 652 317 667 b 337 700 326 684 333 694 b 358 718 342 706 352 713 b 419 732 369 723 387 728 b 481 745 445 737 473 743 b 519 760 490 747 506 754 b 561 770 538 770 544 771 m 1103 729 b 1093 725 1100 729 1095 727 b 1077 707 1090 723 1082 714 b 1057 689 1072 699 1062 691 b 1034 687 1052 687 1042 686 b 1005 704 1022 688 1017 691 b 983 719 996 712 986 719 b 974 716 980 719 976 718 b 970 691 971 713 970 704 b 965 661 970 679 968 667 b 941 635 962 656 952 645 b 909 596 928 623 917 609 b 892 572 903 584 895 574 b 859 570 886 569 876 569 b 827 566 837 572 833 572 b 821 536 822 561 821 556 b 812 502 821 515 820 511 b 794 490 808 497 800 492 b 778 481 787 487 781 483 b 773 449 773 477 772 470 b 766 415 773 424 773 422 b 733 407 758 406 757 406 b 706 405 715 408 709 408 b 703 394 703 402 702 398 b 717 369 704 390 710 380 l 732 344 b 753 341 738 340 742 339 l 787 345 l 819 352 b 837 361 825 355 833 357 b 845 384 841 364 844 374 b 856 410 846 398 849 404 b 874 419 862 416 869 419 b 901 413 879 419 892 417 b 927 409 917 407 922 406 b 934 422 932 412 934 417 b 931 444 934 427 932 438 b 931 469 928 456 928 461 b 956 498 933 476 942 486 b 994 538 968 507 984 526 b 1012 584 1009 558 1010 561 b 1019 620 1013 599 1017 615 b 1035 635 1022 626 1030 632 b 1063 638 1043 639 1050 640 l 1094 634 b 1113 639 1104 633 1108 634 b 1120 680 1118 644 1119 653 b 1116 721 1121 713 1121 716 b 1103 729 1112 726 1106 729 m 505 360 b 464 348 499 360 481 356 b 411 334 442 340 425 335 b 378 338 399 332 387 335 b 342 350 369 340 354 345 b 300 356 322 358 319 358 b 254 340 289 354 268 346 b 218 326 239 332 222 327 b 199 321 212 325 204 322 b 187 309 194 319 188 313 b 188 282 185 304 185 295 b 193 245 190 272 193 255 b 186 201 194 234 190 214 b 174 131 182 187 177 156 l 161 62 b 142 15 157 50 148 29 b 128 -27 131 -6 128 -14 b 136 -52 128 -40 130 -45 b 156 -60 142 -58 146 -60 b 188 -49 165 -60 175 -57 b 222 -34 199 -43 215 -37 b 252 -33 231 -32 244 -32 b 290 -46 259 -35 277 -41 b 326 -53 312 -55 315 -56 b 365 -28 333 -51 350 -41 b 411 2 380 -15 400 -3 b 436 17 421 7 433 14 b 445 44 439 19 443 31 b 454 74 447 55 451 69 b 481 93 457 81 467 87 b 506 110 493 98 504 106 b 510 137 508 114 510 127 b 519 168 510 155 511 160 b 547 182 525 174 532 179 b 570 194 561 187 568 190 b 569 219 573 201 573 206 b 562 248 565 229 562 242 b 566 268 562 254 564 263 b 578 281 569 271 573 278 b 594 284 584 282 591 284 b 619 280 598 284 609 282 b 641 279 632 276 636 274 b 646 287 644 281 646 284 b 635 305 646 290 642 298 b 619 331 631 311 623 323 b 606 348 614 338 608 346 b 577 352 602 351 593 354 b 533 356 565 352 545 355 b 505 360 523 359 509 361 "},"a":{"ha":1003,"x_min":0,"x_max":0,"o":"m 561 770 b 519 760 544 771 538 770 b 481 745 506 754 490 747 b 419 732 473 743 445 737 b 358 718 387 728 369 723 b 337 700 352 713 342 706 b 321 675 333 694 326 684 b 308 643 317 667 311 652 b 303 608 305 634 303 618 b 310 576 303 595 305 584 b 330 556 315 568 320 561 b 362 549 336 554 351 551 b 391 542 375 548 387 544 b 401 520 394 539 399 530 b 416 495 404 509 409 500 b 443 484 422 490 431 486 b 491 483 453 483 474 483 b 528 494 518 484 520 485 b 538 516 532 498 536 507 b 548 534 539 525 543 531 b 564 537 553 538 558 539 b 589 520 569 536 581 529 b 618 500 598 512 611 503 b 647 495 624 498 637 495 b 676 500 658 495 670 497 b 694 514 682 502 691 507 b 707 540 700 519 706 531 b 707 570 711 554 711 559 b 691 599 706 577 698 591 l 665 630 b 637 649 656 637 645 646 b 613 655 631 652 620 655 b 584 650 607 655 594 653 b 547 627 571 646 563 641 b 519 593 536 616 524 601 b 511 550 514 580 511 571 b 505 517 510 531 508 520 b 475 511 500 512 494 511 b 442 515 461 511 447 513 b 433 529 436 518 433 521 b 450 558 432 536 435 542 b 478 599 459 570 472 589 b 490 638 486 613 489 624 b 485 675 491 652 490 661 b 478 701 481 685 478 696 b 481 713 478 706 479 710 b 493 716 484 715 489 716 b 509 709 496 716 505 713 b 526 698 514 706 522 700 b 549 694 530 696 540 694 b 584 705 561 694 570 697 b 614 713 594 709 608 713 b 631 706 621 713 627 711 b 650 684 635 700 644 691 b 688 638 656 676 672 656 b 728 597 703 619 721 602 b 758 590 738 592 744 590 b 793 601 772 590 778 591 b 816 622 803 607 812 617 b 820 637 819 629 820 634 b 812 657 820 639 818 649 b 805 679 808 667 805 676 b 810 690 805 681 807 687 b 829 694 815 693 821 694 b 849 690 837 694 845 693 b 859 662 856 685 857 679 b 870 626 861 648 865 636 b 877 604 879 612 880 608 b 853 599 874 599 869 598 b 822 595 838 600 828 599 b 804 582 817 594 808 588 b 792 563 799 578 794 569 b 791 542 790 558 790 549 b 787 521 792 533 791 527 b 767 506 784 518 776 511 b 747 494 759 504 750 497 b 743 463 743 487 742 480 b 738 438 744 444 743 441 b 712 437 734 437 723 436 b 685 435 701 438 690 437 b 673 417 682 433 676 424 b 660 395 670 407 665 398 b 628 385 656 391 643 388 b 576 382 614 383 591 382 b 525 388 558 382 540 384 b 465 412 511 393 484 403 b 412 430 442 421 422 428 b 377 427 399 431 389 430 b 342 408 365 424 353 418 b 319 391 333 401 321 394 b 289 382 315 389 301 385 b 243 366 275 379 255 371 b 203 351 231 360 213 355 b 173 338 194 349 180 344 b 155 326 165 332 157 327 b 119 319 153 325 137 321 b 77 308 103 317 83 312 b 54 292 69 306 60 298 b 39 266 49 285 43 274 b 14 214 36 259 25 234 b -8 159 5 193 -6 169 b -11 107 -10 150 -11 127 b 0 55 -9 75 -8 69 b 17 32 5 45 12 35 b 46 21 21 30 34 25 l 76 16 b 90 9 80 15 85 12 b 99 -26 96 5 97 -1 b 107 -65 101 -49 103 -58 l 124 -80 b 153 -89 130 -83 143 -87 b 187 -104 163 -92 178 -98 b 215 -119 196 -109 208 -117 b 238 -123 220 -121 231 -123 b 263 -119 245 -123 256 -121 b 289 -104 270 -116 281 -109 b 313 -88 296 -98 306 -91 l 339 -79 b 378 -53 349 -76 363 -66 b 427 -22 392 -43 412 -29 b 459 -1 440 -15 455 -6 b 471 19 465 5 469 14 b 474 40 473 27 474 35 b 478 56 474 44 476 52 b 495 69 480 59 488 67 b 513 76 504 73 511 76 b 524 85 514 76 519 80 b 535 102 529 89 534 96 b 539 128 537 106 539 118 b 545 150 539 142 542 147 b 569 160 548 153 558 156 b 594 172 578 163 590 168 b 603 192 597 176 602 185 b 596 224 605 201 603 210 b 594 249 590 244 590 244 b 616 250 600 254 602 254 l 645 245 b 666 249 655 244 661 245 b 675 270 669 252 673 262 b 687 293 678 282 681 289 b 709 301 691 296 702 300 b 753 309 719 302 738 306 b 789 315 769 312 784 316 b 809 295 794 312 802 305 l 829 268 b 831 252 834 259 834 256 b 807 247 827 249 820 247 b 779 243 797 247 784 245 b 766 231 773 241 768 235 b 762 209 763 228 762 219 b 767 181 762 201 764 188 b 772 159 769 173 772 164 b 767 145 772 154 769 148 b 748 135 763 143 756 138 b 728 125 741 132 731 128 b 715 103 724 121 719 111 b 701 84 711 93 707 87 b 664 81 694 80 685 79 b 622 78 642 83 633 82 b 600 63 613 75 604 69 b 588 41 594 57 590 47 b 585 18 586 34 585 24 b 591 -14 585 11 588 -3 b 612 -48 595 -28 602 -39 b 646 -72 621 -59 632 -67 b 690 -81 662 -80 671 -81 b 724 -76 707 -81 717 -80 b 742 -61 730 -72 738 -66 b 747 -27 747 -54 748 -48 b 751 5 747 -9 748 0 b 762 13 754 8 759 12 b 777 11 766 14 772 14 b 798 -4 781 9 790 2 b 833 -21 805 -9 821 -18 b 874 -31 844 -25 863 -30 b 911 -27 888 -31 899 -31 b 933 -15 919 -24 929 -19 b 945 2 937 -11 943 -4 b 952 43 951 11 952 19 b 941 92 952 69 951 73 b 919 121 935 105 926 116 b 894 132 914 125 902 131 b 868 137 884 135 874 137 b 844 133 862 137 853 135 b 822 120 838 131 827 126 b 808 97 817 114 809 105 l 800 69 b 787 48 796 56 793 50 b 770 48 781 45 777 45 b 754 67 767 50 759 57 b 746 91 750 75 746 86 b 749 103 746 94 747 101 b 770 114 750 105 760 109 b 795 131 781 120 791 127 b 803 151 798 136 802 145 b 798 181 804 156 803 169 b 792 206 795 191 792 204 b 798 218 792 210 795 215 b 825 220 802 219 814 220 b 853 226 841 220 846 221 b 863 245 856 230 861 238 l 868 264 b 878 276 869 267 874 271 b 898 281 882 279 892 281 b 919 274 906 281 914 279 b 936 254 924 270 931 262 b 953 232 940 245 947 237 b 974 223 957 229 967 225 b 1002 220 981 221 994 220 b 1032 230 1011 221 1024 226 b 1056 256 1044 237 1049 243 b 1065 311 1064 272 1065 277 b 1056 364 1065 348 1064 351 b 1037 383 1052 373 1044 381 l 1016 390 b 991 388 1009 391 998 390 b 956 367 980 385 969 379 b 927 344 944 357 932 347 b 912 340 923 342 916 340 b 893 345 906 340 898 343 b 877 363 886 348 880 357 b 878 381 873 373 873 375 b 888 387 881 386 884 388 l 908 382 b 931 381 917 381 927 380 b 950 390 936 381 944 385 b 963 408 956 394 961 403 b 963 438 966 418 966 423 b 961 461 961 446 960 458 b 979 480 962 465 971 473 b 1015 519 987 487 1004 504 b 1038 553 1025 532 1036 548 b 1041 580 1039 556 1041 569 b 1047 606 1041 594 1043 601 b 1073 609 1054 613 1054 613 b 1106 605 1084 606 1099 605 b 1130 613 1114 605 1122 608 b 1146 637 1138 619 1142 626 b 1151 686 1149 647 1151 666 b 1146 730 1151 707 1149 723 b 1135 745 1144 734 1139 741 b 1095 759 1131 748 1113 755 b 1044 769 1077 765 1055 769 b 1006 759 1033 769 1020 766 b 971 748 994 755 979 749 b 950 737 964 747 955 743 b 941 711 942 730 941 727 b 937 690 941 701 939 692 b 923 686 934 687 929 686 b 898 694 919 686 906 689 b 865 712 888 697 874 706 b 831 723 851 720 846 723 b 802 718 822 723 808 719 b 782 705 794 715 785 708 b 773 687 779 699 775 692 b 781 658 772 680 775 671 b 788 636 784 648 788 638 b 781 626 788 634 785 630 b 760 618 775 620 769 618 b 739 623 753 618 744 620 b 715 649 733 628 723 638 l 683 687 b 659 717 674 697 664 711 b 639 735 655 723 645 731 l 604 756 b 561 770 584 768 577 769 m 1103 729 b 1116 721 1106 729 1112 726 b 1120 680 1121 716 1121 713 b 1113 639 1119 653 1118 644 b 1094 634 1108 634 1104 633 l 1063 638 b 1035 635 1050 640 1043 639 b 1019 620 1030 632 1022 626 b 1012 584 1017 615 1013 599 b 994 538 1010 561 1009 558 b 956 498 984 526 968 507 b 931 469 942 486 933 476 b 931 444 928 461 928 456 b 934 422 932 438 934 427 b 927 409 934 417 932 412 b 901 413 922 406 917 407 b 874 419 892 417 879 419 b 856 410 869 419 862 416 b 845 384 849 404 846 398 b 837 361 844 374 841 364 b 819 352 833 357 825 355 l 787 345 l 753 341 b 732 344 742 339 738 340 l 717 369 b 703 394 710 380 704 390 b 706 405 702 398 703 402 b 733 407 709 408 715 408 b 766 415 757 406 758 406 b 773 449 773 422 773 424 b 778 481 772 470 773 477 b 794 490 781 483 787 487 b 812 502 800 492 808 497 b 821 536 820 511 821 515 b 827 566 821 556 822 561 b 859 570 833 572 837 572 b 892 572 876 569 886 569 b 909 596 895 574 903 584 b 941 635 917 609 928 623 b 965 661 952 645 962 656 b 970 691 968 667 970 679 b 974 716 970 704 971 713 b 983 719 976 718 980 719 b 1005 704 986 719 996 712 b 1034 687 1017 691 1022 688 b 1057 689 1042 686 1052 687 b 1077 707 1062 691 1072 699 b 1093 725 1082 714 1090 723 b 1103 729 1095 727 1100 729 m 505 360 b 533 356 509 361 523 359 b 577 352 545 355 565 352 b 606 348 593 354 602 351 b 619 331 608 346 614 338 b 635 305 623 323 631 311 b 646 287 642 298 646 290 b 641 279 646 284 644 281 b 619 280 636 274 632 276 b 594 284 609 282 598 284 b 578 281 591 284 584 282 b 566 268 573 278 569 271 b 562 248 564 263 562 254 b 569 219 562 242 565 229 b 570 194 573 206 573 201 b 547 182 568 190 561 187 b 519 168 532 179 525 174 b 510 137 511 160 510 155 b 506 110 510 127 508 114 b 481 93 504 106 493 98 b 454 74 467 87 457 81 b 445 44 451 69 447 55 b 436 17 443 31 439 19 b 411 2 433 14 421 7 b 365 -28 400 -3 380 -15 b 326 -53 350 -41 333 -51 b 290 -46 315 -56 312 -55 b 252 -33 277 -41 259 -35 b 222 -34 244 -32 231 -32 b 188 -49 215 -37 199 -43 b 156 -60 175 -57 165 -60 b 136 -52 146 -60 142 -58 b 128 -27 130 -45 128 -40 b 142 15 128 -14 131 -6 b 161 62 148 29 157 50 l 174 131 b 186 201 177 156 182 187 b 193 245 190 214 194 234 b 188 282 193 255 190 272 b 187 309 185 295 185 304 b 199 321 188 313 194 319 b 218 326 204 322 212 325 b 254 340 222 327 239 332 b 300 356 268 346 289 354 b 342 350 319 358 322 358 b 378 338 354 345 369 340 b 411 334 387 335 399 332 b 464 348 425 335 442 340 b 505 360 481 356 499 360 "},"B":{"ha":979,"x_min":0,"x_max":0,"o":"m 765 769 b 852 765 792 769 831 767 b 901 757 874 762 895 759 l 925 745 b 964 732 932 742 950 735 b 998 720 979 728 993 723 b 1010 707 1002 718 1007 712 b 1017 688 1013 704 1017 695 b 1022 668 1018 681 1020 671 b 1032 656 1023 663 1028 658 b 1058 652 1037 655 1048 652 b 1087 647 1068 652 1081 650 b 1106 638 1094 645 1103 641 b 1119 619 1109 634 1116 626 b 1124 584 1122 610 1124 599 b 1119 544 1124 571 1122 554 b 1101 500 1117 535 1107 515 b 1077 461 1093 484 1082 467 b 1053 444 1070 454 1060 446 b 1017 433 1046 440 1030 435 b 985 427 1003 431 989 429 b 967 412 981 425 973 418 l 955 402 l 928 404 b 895 401 904 406 900 406 b 892 369 893 396 892 387 b 898 335 892 346 893 341 b 933 326 905 330 910 328 b 973 317 954 325 964 323 b 994 294 983 311 989 306 b 1003 255 1001 281 1003 273 b 998 219 1003 243 1001 227 b 981 185 995 213 988 197 b 956 138 973 174 963 153 b 942 102 951 123 944 106 b 924 84 937 96 931 88 b 901 74 918 81 907 76 b 866 69 894 72 878 70 b 822 56 850 67 836 63 l 786 42 b 752 29 777 40 762 34 b 699 12 741 23 718 16 b 639 1 681 6 654 3 b 587 -15 618 -2 606 -5 b 542 -27 568 -23 558 -26 b 494 -19 522 -29 516 -27 b 461 -3 480 -13 465 -6 b 449 14 457 1 451 7 b 441 30 447 19 444 27 b 426 35 438 33 431 35 b 412 31 420 35 415 33 b 406 12 410 29 407 20 b 399 -9 404 4 401 -6 b 387 -20 398 -13 392 -18 b 367 -24 382 -22 372 -24 b 344 -20 360 -24 350 -22 b 319 -1 339 -18 328 -9 b 299 15 311 6 303 14 b 285 16 295 17 289 17 b 263 2 281 15 271 7 b 234 -17 255 -5 243 -13 b 204 -20 224 -20 216 -21 b 176 -7 188 -19 185 -18 b 161 14 171 -2 164 7 l 154 24 l 115 24 b 67 30 85 24 74 25 b 51 43 61 33 54 38 b 38 60 47 45 41 55 b 32 97 34 69 32 79 b 38 137 32 114 34 127 b 54 161 41 145 49 156 b 77 174 60 166 70 173 b 105 178 83 176 95 178 b 159 171 113 178 138 175 b 220 165 182 169 209 165 b 253 160 231 165 245 163 b 282 143 261 157 273 150 b 305 129 290 136 301 130 b 324 129 308 127 318 127 l 351 132 b 383 119 367 134 368 134 b 415 105 398 106 401 105 b 439 112 423 105 431 107 b 457 130 444 115 453 123 b 468 153 461 136 467 146 b 470 183 469 158 470 173 b 478 218 470 197 474 209 b 498 241 481 227 488 234 l 521 257 b 539 285 524 261 533 274 b 570 336 544 296 558 319 b 608 397 581 352 599 380 b 633 438 617 415 629 433 b 660 456 638 444 650 451 b 695 482 670 462 686 473 b 731 500 710 496 713 498 b 754 506 740 502 751 505 b 758 524 756 509 758 515 b 761 556 758 531 760 545 b 768 610 764 567 767 591 b 779 660 770 640 772 648 b 805 682 785 669 791 676 b 852 689 819 690 824 691 b 897 680 879 688 885 687 b 922 652 909 671 915 665 b 930 606 930 636 931 632 b 920 559 929 582 927 574 b 896 532 912 544 907 539 b 864 526 886 528 877 526 b 829 531 853 526 837 528 b 806 535 819 532 809 535 b 792 530 800 535 794 532 b 787 506 789 527 787 519 b 780 480 787 489 786 484 b 754 471 776 475 768 472 b 730 465 738 470 731 469 b 734 443 727 461 729 456 b 743 410 740 431 743 419 b 738 374 743 403 741 386 b 730 344 736 362 732 348 b 711 319 729 340 719 330 b 680 275 702 310 688 290 b 650 231 672 260 658 241 l 629 204 b 612 170 625 199 618 183 b 589 131 605 154 596 140 b 560 114 581 124 569 117 b 531 107 552 111 539 107 b 504 112 523 107 512 110 b 485 113 498 114 489 114 b 477 106 481 113 478 109 b 478 85 476 104 477 94 b 477 53 481 73 481 67 b 475 29 472 40 472 34 b 483 22 477 25 481 22 b 499 36 487 22 494 28 b 516 56 505 44 512 53 b 533 66 519 60 526 64 b 556 64 539 67 550 66 b 590 45 564 61 579 54 b 620 30 601 37 614 31 b 676 37 628 29 652 32 b 737 55 704 43 726 48 l 777 70 b 803 78 790 73 800 77 b 808 87 805 80 807 83 b 807 121 810 93 809 105 b 805 163 805 137 804 154 b 815 206 806 172 810 192 l 831 256 b 844 292 834 270 840 286 b 852 308 849 298 852 306 b 853 318 853 310 853 315 b 845 325 853 320 849 324 b 822 320 842 326 831 324 b 795 314 813 317 801 314 b 776 318 791 314 781 316 b 759 334 769 321 764 327 b 758 369 755 344 755 348 b 769 413 760 383 766 404 b 787 447 772 425 779 438 b 813 469 794 455 806 465 b 842 475 820 472 832 475 b 869 471 850 475 862 473 b 901 451 874 469 889 461 b 928 432 912 443 925 433 b 942 431 931 431 937 431 b 952 441 946 433 950 436 b 947 474 955 445 954 453 b 939 519 943 490 939 508 b 952 582 939 531 944 552 b 979 652 960 608 970 639 b 989 684 988 670 990 679 b 979 697 988 689 983 695 b 955 704 973 700 964 703 b 914 719 947 706 930 712 b 838 736 889 731 885 732 b 731 737 803 739 772 739 b 649 730 698 736 661 733 b 578 710 635 727 603 719 b 498 681 553 702 517 689 b 448 649 474 669 460 661 b 410 627 436 639 427 631 b 386 612 395 622 389 618 b 388 580 383 606 384 599 b 392 531 392 563 393 548 b 380 469 392 519 385 491 b 364 413 373 447 366 422 b 344 378 360 403 353 390 b 326 352 334 368 327 356 b 329 337 325 348 326 343 b 343 330 331 332 337 330 b 379 339 346 330 363 334 b 433 347 404 348 408 349 b 467 352 459 345 461 345 b 478 374 470 356 476 366 b 486 397 480 382 483 392 b 516 420 489 403 502 412 b 547 444 529 428 544 438 b 556 465 554 450 556 456 b 542 501 556 473 552 484 b 522 540 534 513 525 531 b 519 565 520 548 519 560 b 522 591 519 570 520 582 b 539 618 526 602 531 610 b 567 631 544 622 557 629 b 611 636 580 636 593 637 b 652 627 631 635 640 632 b 676 606 660 622 670 613 b 687 570 682 595 684 588 b 682 533 687 553 687 544 b 667 510 679 526 672 515 b 631 493 660 505 645 498 b 597 477 615 488 601 482 b 583 452 594 473 587 462 b 567 423 580 443 573 429 b 541 403 562 417 551 407 l 516 386 b 504 364 512 382 506 372 b 495 339 502 356 497 345 b 480 324 493 333 485 327 b 435 317 470 318 464 317 b 380 309 406 317 397 316 b 342 301 367 305 352 301 b 314 308 330 301 322 304 b 301 327 308 312 303 320 b 297 350 298 332 297 344 b 294 367 297 356 294 365 b 285 373 293 369 288 371 b 258 377 281 375 269 377 b 225 384 244 377 234 379 b 205 404 215 389 209 395 b 197 438 200 413 197 423 b 203 471 197 451 201 466 b 218 502 206 479 211 491 b 241 550 224 511 233 533 b 264 593 248 570 256 584 b 292 609 271 601 281 606 b 324 617 300 611 315 616 b 348 621 333 618 344 619 b 367 636 351 623 360 630 b 398 654 375 643 388 650 b 429 670 408 656 421 664 b 451 689 436 678 445 685 b 494 709 456 694 475 702 b 571 739 512 718 546 731 l 640 758 b 690 766 653 761 675 764 b 765 769 704 767 738 769 m 228 136 b 206 131 217 137 211 136 b 197 92 198 125 197 122 b 194 47 196 74 195 55 b 190 28 192 42 190 33 b 196 13 190 23 193 17 b 214 7 202 7 206 6 b 237 19 220 8 231 14 l 263 36 b 291 44 272 43 280 44 b 313 42 299 44 309 44 b 336 22 317 40 327 31 b 358 5 344 15 354 6 b 371 6 362 5 368 5 b 378 20 376 8 378 14 b 372 43 378 27 376 37 b 368 73 370 48 368 63 b 362 98 368 88 367 94 b 353 105 358 102 354 105 b 336 100 351 105 344 103 b 306 96 326 97 315 95 b 281 107 297 97 289 101 b 256 126 275 113 264 121 b 228 136 248 131 235 135 "},"b":{"ha":979,"x_min":0,"x_max":0,"o":"m 765 769 b 690 766 738 769 704 767 b 640 758 675 764 653 761 l 571 739 b 494 709 546 731 512 718 b 451 689 475 702 456 694 b 429 670 445 685 436 678 b 398 654 421 664 408 656 b 367 636 388 650 375 643 b 348 621 360 630 351 623 b 324 617 344 619 333 618 b 292 609 315 616 300 611 b 264 593 281 606 271 601 b 241 550 256 584 248 570 b 218 502 233 533 224 511 b 203 471 211 491 206 479 b 197 438 201 466 197 451 b 205 404 197 423 200 413 b 225 384 209 395 215 389 b 258 377 234 379 244 377 b 285 373 269 377 281 375 b 294 367 288 371 293 369 b 297 350 294 365 297 356 b 301 327 297 344 298 332 b 314 308 303 320 308 312 b 342 301 322 304 330 301 b 380 309 352 301 367 305 b 435 317 397 316 406 317 b 480 324 464 317 470 318 b 495 339 485 327 493 333 b 504 364 497 345 502 356 b 516 386 506 372 512 382 l 541 403 b 567 423 551 407 562 417 b 583 452 573 429 580 443 b 597 477 587 462 594 473 b 631 493 601 482 615 488 b 667 510 645 498 660 505 b 682 533 672 515 679 526 b 687 570 687 544 687 553 b 676 606 684 588 682 595 b 652 627 670 613 660 622 b 611 636 640 632 631 635 b 567 631 593 637 580 636 b 539 618 557 629 544 622 b 522 591 531 610 526 602 b 519 565 520 582 519 570 b 522 540 519 560 520 548 b 542 501 525 531 534 513 b 556 465 552 484 556 473 b 547 444 556 456 554 450 b 516 420 544 438 529 428 b 486 397 502 412 489 403 b 478 374 483 392 480 382 b 467 352 476 366 470 356 b 433 347 461 345 459 345 b 379 339 408 349 404 348 b 343 330 363 334 346 330 b 329 337 337 330 331 332 b 326 352 326 343 325 348 b 344 378 327 356 334 368 b 364 413 353 390 360 403 b 380 469 366 422 373 447 b 392 531 385 491 392 519 b 388 580 393 548 392 563 b 386 612 384 599 383 606 b 410 627 389 618 395 622 b 448 649 427 631 436 639 b 498 681 460 661 474 669 b 578 710 517 689 553 702 b 649 730 603 719 635 727 b 731 737 661 733 698 736 b 838 736 772 739 803 739 b 914 719 885 732 889 731 b 955 704 930 712 947 706 b 979 697 964 703 973 700 b 989 684 983 695 988 689 b 979 652 990 679 988 670 b 952 582 970 639 960 608 b 939 519 944 552 939 531 b 947 474 939 508 943 490 b 952 441 954 453 955 445 b 942 431 950 436 946 433 b 928 432 937 431 931 431 b 901 451 925 433 912 443 b 869 471 889 461 874 469 b 842 475 862 473 850 475 b 813 469 832 475 820 472 b 787 447 806 465 794 455 b 769 413 779 438 772 425 b 758 369 766 404 760 383 b 759 334 755 348 755 344 b 776 318 764 327 769 321 b 795 314 781 316 791 314 b 822 320 801 314 813 317 b 845 325 831 324 842 326 b 853 318 849 324 853 320 b 852 308 853 315 853 310 b 844 292 852 306 849 298 b 831 256 840 286 834 270 l 815 206 b 805 163 810 192 806 172 b 807 121 804 154 805 137 b 808 87 809 105 810 93 b 803 78 807 83 805 80 b 777 70 800 77 790 73 l 737 55 b 676 37 726 48 704 43 b 620 30 652 32 628 29 b 590 45 614 31 601 37 b 556 64 579 54 564 61 b 533 66 550 66 539 67 b 516 56 526 64 519 60 b 499 36 512 53 505 44 b 483 22 494 28 487 22 b 475 29 481 22 477 25 b 477 53 472 34 472 40 b 478 85 481 67 481 73 b 477 106 477 94 476 104 b 485 113 478 109 481 113 b 504 112 489 114 498 114 b 531 107 512 110 523 107 b 560 114 539 107 552 111 b 589 131 569 117 581 124 b 612 170 596 140 605 154 b 629 204 618 183 625 199 l 650 231 b 680 275 658 241 672 260 b 711 319 688 290 702 310 b 730 344 719 330 729 340 b 738 374 732 348 736 362 b 743 410 741 386 743 403 b 734 443 743 419 740 431 b 730 465 729 456 727 461 b 754 471 731 469 738 470 b 780 480 768 472 776 475 b 787 506 786 484 787 489 b 792 530 787 519 789 527 b 806 535 794 532 800 535 b 829 531 809 535 819 532 b 864 526 837 528 853 526 b 896 532 877 526 886 528 b 920 559 907 539 912 544 b 930 606 927 574 929 582 b 922 652 931 632 930 636 b 897 680 915 665 909 671 b 852 689 885 687 879 688 b 805 682 824 691 819 690 b 779 660 791 676 785 669 b 768 610 772 648 770 640 b 761 556 767 591 764 567 b 758 524 760 545 758 531 b 754 506 758 515 756 509 b 731 500 751 505 740 502 b 695 482 713 498 710 496 b 660 456 686 473 670 462 b 633 438 650 451 638 444 b 608 397 629 433 617 415 b 570 336 599 380 581 352 b 539 285 558 319 544 296 b 521 257 533 274 524 261 l 498 241 b 478 218 488 234 481 227 b 470 183 474 209 470 197 b 468 153 470 173 469 158 b 457 130 467 146 461 136 b 439 112 453 123 444 115 b 415 105 431 107 423 105 b 383 119 401 105 398 106 b 351 132 368 134 367 134 l 324 129 b 305 129 318 127 308 127 b 282 143 301 130 290 136 b 253 160 273 150 261 157 b 220 165 245 163 231 165 b 159 171 209 165 182 169 b 105 178 138 175 113 178 b 77 174 95 178 83 176 b 54 161 70 173 60 166 b 38 137 49 156 41 145 b 32 97 34 127 32 114 b 38 60 32 79 34 69 b 51 43 41 55 47 45 b 67 30 54 38 61 33 b 115 24 74 25 85 24 l 154 24 l 161 14 b 176 -7 164 7 171 -2 b 204 -20 185 -18 188 -19 b 234 -17 216 -21 224 -20 b 263 2 243 -13 255 -5 b 285 16 271 7 281 15 b 299 15 289 17 295 17 b 319 -1 303 14 311 6 b 344 -20 328 -9 339 -18 b 367 -24 350 -22 360 -24 b 387 -20 372 -24 382 -22 b 399 -9 392 -18 398 -13 b 406 12 401 -6 404 4 b 412 31 407 20 410 29 b 426 35 415 33 420 35 b 441 30 431 35 438 33 b 449 14 444 27 447 19 b 461 -3 451 7 457 1 b 494 -19 465 -6 480 -13 b 542 -27 516 -27 522 -29 b 587 -15 558 -26 568 -23 b 639 1 606 -5 618 -2 b 699 12 654 3 681 6 b 752 29 718 16 741 23 b 786 42 762 34 777 40 l 822 56 b 866 69 836 63 850 67 b 901 74 878 70 894 72 b 924 84 907 76 918 81 b 942 102 931 88 937 96 b 956 138 944 106 951 123 b 981 185 963 153 973 174 b 998 219 988 197 995 213 b 1003 255 1001 227 1003 243 b 994 294 1003 273 1001 281 b 973 317 989 306 983 311 b 933 326 964 323 954 325 b 898 335 910 328 905 330 b 892 369 893 341 892 346 b 895 401 892 387 893 396 b 928 404 900 406 904 406 l 955 402 l 967 412 b 985 427 973 418 981 425 b 1017 433 989 429 1003 431 b 1053 444 1030 435 1046 440 b 1077 461 1060 446 1070 454 b 1101 500 1082 467 1093 484 b 1119 544 1107 515 1117 535 b 1124 584 1122 554 1124 571 b 1119 619 1124 599 1122 610 b 1106 638 1116 626 1109 634 b 1087 647 1103 641 1094 645 b 1058 652 1081 650 1068 652 b 1032 656 1048 652 1037 655 b 1022 668 1028 658 1023 663 b 1017 688 1020 671 1018 681 b 1010 707 1017 695 1013 704 b 998 720 1007 712 1002 718 b 964 732 993 723 979 728 b 925 745 950 735 932 742 l 901 757 b 852 765 895 759 874 762 b 765 769 831 767 792 769 m 228 136 b 256 126 235 135 248 131 b 281 107 264 121 275 113 b 306 96 289 101 297 97 b 336 100 315 95 326 97 b 353 105 344 103 351 105 b 362 98 354 105 358 102 b 368 73 367 94 368 88 b 372 43 368 63 370 48 b 378 20 376 37 378 27 b 371 6 378 14 376 8 b 358 5 368 5 362 5 b 336 22 354 6 344 15 b 313 42 327 31 317 40 b 291 44 309 44 299 44 b 263 36 280 44 272 43 l 237 19 b 214 7 231 14 220 8 b 196 13 206 6 202 7 b 190 28 193 17 190 23 b 194 47 190 33 192 42 b 197 92 195 55 196 74 b 206 131 197 122 198 125 b 228 136 211 136 217 137 "},"C":{"ha":851,"x_min":0,"x_max":0,"o":"m 452 852 b 481 844 460 851 474 847 b 502 833 488 843 498 837 b 518 814 508 828 515 819 b 528 783 520 807 525 794 b 528 746 530 771 531 759 b 517 715 525 736 521 722 b 497 695 513 707 504 700 b 469 686 491 691 478 687 b 433 688 461 685 444 686 b 385 704 422 690 401 697 b 349 718 369 709 355 717 b 329 716 344 719 336 718 b 307 705 323 714 314 708 b 285 679 303 700 292 688 b 262 653 279 669 268 657 b 238 640 256 649 245 644 b 218 623 230 636 221 629 b 209 599 214 619 210 607 b 201 565 208 591 205 575 b 194 533 198 554 194 541 b 205 489 194 526 200 506 b 219 447 210 471 218 453 b 235 432 222 443 229 435 b 266 427 241 430 253 427 b 294 435 284 427 287 428 b 302 458 300 442 302 447 b 306 486 302 467 304 480 b 325 505 310 494 316 500 b 352 510 333 508 344 510 b 384 506 357 510 373 508 b 413 504 400 502 406 502 b 422 516 418 506 421 511 b 430 538 424 520 426 531 b 444 556 432 545 438 552 b 472 568 451 559 462 564 b 520 603 486 571 494 578 b 573 642 542 622 558 635 l 624 669 b 677 694 640 679 664 689 b 743 709 690 697 719 705 b 808 729 769 716 793 722 b 848 740 826 737 836 740 b 872 736 856 740 868 738 b 886 722 879 733 884 727 b 893 701 889 718 892 707 b 902 681 894 691 897 684 b 931 676 907 678 916 676 b 969 669 947 676 959 674 b 989 651 979 666 984 661 b 996 619 994 642 996 632 b 991 590 996 609 994 596 b 971 562 989 584 980 571 b 945 522 963 552 951 534 b 928 492 940 509 931 495 b 908 477 924 487 916 481 b 868 467 902 473 883 469 l 832 460 l 804 445 l 760 422 b 699 394 748 415 722 404 b 633 372 678 387 649 376 l 586 359 l 549 353 b 502 336 540 352 520 345 b 461 320 483 327 469 320 b 423 328 455 320 438 324 b 386 331 407 331 394 333 b 371 322 381 331 374 327 b 365 296 369 319 366 307 b 355 253 363 286 359 267 b 341 181 350 240 344 208 b 327 108 337 155 331 121 b 313 71 323 95 318 78 b 297 44 307 63 301 50 b 288 22 292 38 288 27 b 295 6 288 17 291 9 b 367 0 301 0 306 0 b 463 3 403 0 445 1 b 523 19 490 6 498 7 b 569 37 539 27 559 35 b 592 44 577 38 588 42 b 597 68 598 49 599 50 l 594 113 b 610 192 592 137 592 139 b 647 264 628 243 629 246 b 667 291 657 275 667 288 b 663 303 667 294 665 299 b 648 309 660 307 656 309 b 611 297 640 309 627 305 b 553 285 589 287 585 286 b 511 275 520 282 517 281 b 505 263 508 271 505 267 b 519 230 505 261 511 246 b 537 178 528 212 535 191 b 537 139 540 162 540 153 b 521 110 534 126 531 119 b 494 95 514 103 503 97 b 455 93 484 93 469 92 b 412 101 438 94 422 96 b 385 118 403 104 392 113 b 371 145 381 123 374 136 b 367 181 367 158 366 169 b 376 213 368 192 372 206 b 394 232 380 220 387 230 b 428 242 400 236 415 240 b 460 248 441 243 456 246 b 472 259 465 250 470 255 b 479 278 474 263 477 272 b 486 294 481 283 484 291 l 499 305 b 544 312 507 309 518 311 b 600 324 576 314 582 315 l 633 336 b 660 335 641 337 652 337 b 684 324 669 334 678 330 b 694 294 691 317 694 311 b 705 269 696 279 698 273 b 731 262 710 264 718 262 b 767 256 746 262 756 261 b 788 235 777 251 783 246 b 795 205 793 227 795 217 b 792 177 795 195 794 182 b 773 143 791 171 782 156 b 747 94 765 130 752 107 b 726 60 742 81 731 66 b 697 44 719 54 708 47 b 671 40 689 42 676 40 b 644 37 666 40 653 38 b 613 24 634 35 620 29 b 576 9 606 19 590 13 b 536 -6 564 6 546 0 b 501 -19 528 -11 511 -17 b 450 -28 493 -22 469 -26 b 356 -31 431 -30 389 -31 b 285 -22 303 -30 295 -29 b 267 -6 279 -19 270 -12 b 260 24 261 2 260 7 b 258 50 260 36 259 47 b 247 59 256 53 252 57 b 219 66 243 61 230 64 b 188 74 208 67 194 69 b 169 88 181 77 173 83 b 158 112 166 94 160 104 b 153 150 155 120 153 137 b 158 193 153 162 155 181 l 171 237 b 189 278 177 251 184 269 b 218 316 194 288 206 305 b 242 353 231 331 239 342 b 246 379 244 361 246 373 b 243 395 246 385 244 393 b 224 406 241 398 231 404 b 201 422 216 409 206 417 b 187 449 196 428 190 439 b 173 489 184 458 179 477 b 165 526 169 502 166 519 b 168 557 163 534 165 546 l 180 601 l 190 636 b 205 652 193 641 200 648 b 231 669 210 657 222 664 b 257 691 242 674 250 681 b 284 720 263 699 275 713 b 317 741 295 731 306 738 b 340 746 325 744 335 746 b 356 756 344 746 350 750 b 369 784 365 762 367 767 b 376 816 371 796 374 811 b 393 836 378 821 385 831 b 417 849 400 843 410 847 l 432 852 b 452 852 434 853 443 853 m 847 713 b 811 701 843 713 827 706 b 745 681 794 694 769 685 b 687 667 724 677 697 669 b 640 645 676 663 656 655 l 592 620 b 540 581 578 613 561 602 b 496 547 522 564 504 550 b 473 538 490 544 479 541 b 458 528 467 536 460 531 b 440 469 456 524 447 499 b 420 405 433 442 424 411 b 415 382 418 396 415 387 b 421 370 415 376 417 372 b 435 374 426 368 428 369 b 450 389 439 378 444 385 b 467 399 454 394 461 398 b 503 392 476 400 484 398 b 542 382 517 387 534 382 b 595 392 549 382 573 387 b 683 419 618 396 656 409 b 747 448 709 429 738 443 b 781 465 756 454 771 461 b 800 478 789 469 797 474 b 801 500 802 482 802 491 l 795 531 b 795 563 794 543 794 553 b 815 616 796 571 806 594 b 847 670 826 639 838 658 b 863 697 857 682 863 692 b 859 708 863 702 862 706 b 847 713 857 711 852 713 "},"c":{"ha":851,"x_min":0,"x_max":0,"o":"m 452 852 b 432 852 443 853 434 853 l 417 849 b 393 836 410 847 400 843 b 376 816 385 831 378 821 b 369 784 374 811 371 796 b 356 756 367 767 365 762 b 340 746 350 750 344 746 b 317 741 335 746 325 744 b 284 720 306 738 295 731 b 257 691 275 713 263 699 b 231 669 250 681 242 674 b 205 652 222 664 210 657 b 190 636 200 648 193 641 l 180 601 l 168 557 b 165 526 165 546 163 534 b 173 489 166 519 169 502 b 187 449 179 477 184 458 b 201 422 190 439 196 428 b 224 406 206 417 216 409 b 243 395 231 404 241 398 b 246 379 244 393 246 385 b 242 353 246 373 244 361 b 218 316 239 342 231 331 b 189 278 206 305 194 288 b 171 237 184 269 177 251 l 158 193 b 153 150 155 181 153 162 b 158 112 153 137 155 120 b 169 88 160 104 166 94 b 188 74 173 83 181 77 b 219 66 194 69 208 67 b 247 59 230 64 243 61 b 258 50 252 57 256 53 b 260 24 259 47 260 36 b 267 -6 260 7 261 2 b 285 -22 270 -12 279 -19 b 356 -31 295 -29 303 -30 b 450 -28 389 -31 431 -30 b 501 -19 469 -26 493 -22 b 536 -6 511 -17 528 -11 b 576 9 546 0 564 6 b 613 24 590 13 606 19 b 644 37 620 29 634 35 b 671 40 653 38 666 40 b 697 44 676 40 689 42 b 726 60 708 47 719 54 b 747 94 731 66 742 81 b 773 143 752 107 765 130 b 792 177 782 156 791 171 b 795 205 794 182 795 195 b 788 235 795 217 793 227 b 767 256 783 246 777 251 b 731 262 756 261 746 262 b 705 269 718 262 710 264 b 694 294 698 273 696 279 b 684 324 694 311 691 317 b 660 335 678 330 669 334 b 633 336 652 337 641 337 l 600 324 b 544 312 582 315 576 314 b 499 305 518 311 507 309 l 486 294 b 479 278 484 291 481 283 b 472 259 477 272 474 263 b 460 248 470 255 465 250 b 428 242 456 246 441 243 b 394 232 415 240 400 236 b 376 213 387 230 380 220 b 367 181 372 206 368 192 b 371 145 366 169 367 158 b 385 118 374 136 381 123 b 412 101 392 113 403 104 b 455 93 422 96 438 94 b 494 95 469 92 484 93 b 521 110 503 97 514 103 b 537 139 531 119 534 126 b 537 178 540 153 540 162 b 519 230 535 191 528 212 b 505 263 511 246 505 261 b 511 275 505 267 508 271 b 553 285 517 281 520 282 b 611 297 585 286 589 287 b 648 309 627 305 640 309 b 663 303 656 309 660 307 b 667 291 665 299 667 294 b 647 264 667 288 657 275 b 610 192 629 246 628 243 b 594 113 592 139 592 137 l 597 68 b 592 44 599 50 598 49 b 569 37 588 42 577 38 b 523 19 559 35 539 27 b 463 3 498 7 490 6 b 367 0 445 1 403 0 b 295 6 306 0 301 0 b 288 22 291 9 288 17 b 297 44 288 27 292 38 b 313 71 301 50 307 63 b 327 108 318 78 323 95 b 341 181 331 121 337 155 b 355 253 344 208 350 240 b 365 296 359 267 363 286 b 371 322 366 307 369 319 b 386 331 374 327 381 331 b 423 328 394 333 407 331 b 461 320 438 324 455 320 b 502 336 469 320 483 327 b 549 353 520 345 540 352 l 586 359 l 633 372 b 699 394 649 376 678 387 b 760 422 722 404 748 415 l 804 445 l 832 460 l 868 467 b 908 477 883 469 902 473 b 928 492 916 481 924 487 b 945 522 931 495 940 509 b 971 562 951 534 963 552 b 991 590 980 571 989 584 b 996 619 994 596 996 609 b 989 651 996 632 994 642 b 969 669 984 661 979 666 b 931 676 959 674 947 676 b 902 681 916 676 907 678 b 893 701 897 684 894 691 b 886 722 892 707 889 718 b 872 736 884 727 879 733 b 848 740 868 738 856 740 b 808 729 836 740 826 737 b 743 709 793 722 769 716 b 677 694 719 705 690 697 b 624 669 664 689 640 679 l 573 642 b 520 603 558 635 542 622 b 472 568 494 578 486 571 b 444 556 462 564 451 559 b 430 538 438 552 432 545 b 422 516 426 531 424 520 b 413 504 421 511 418 506 b 384 506 406 502 400 502 b 352 510 373 508 357 510 b 325 505 344 510 333 508 b 306 486 316 500 310 494 b 302 458 304 480 302 467 b 294 435 302 447 300 442 b 266 427 287 428 284 427 b 235 432 253 427 241 430 b 219 447 229 435 222 443 b 205 489 218 453 210 471 b 194 533 200 506 194 526 b 201 565 194 541 198 554 b 209 599 205 575 208 591 b 218 623 210 607 214 619 b 238 640 221 629 230 636 b 262 653 245 644 256 649 b 285 679 268 657 279 669 b 307 705 292 688 303 700 b 329 716 314 708 323 714 b 349 718 336 718 344 719 b 385 704 355 717 369 709 b 433 688 401 697 422 690 b 469 686 444 686 461 685 b 497 695 478 687 491 691 b 517 715 504 700 513 707 b 528 746 521 722 525 736 b 528 783 531 759 530 771 b 518 814 525 794 520 807 b 502 833 515 819 508 828 b 481 844 498 837 488 843 b 452 852 474 847 460 851 m 847 713 b 859 708 852 713 857 711 b 863 697 862 706 863 702 b 847 670 863 692 857 682 b 815 616 838 658 826 639 b 795 563 806 594 796 571 b 795 531 794 553 794 543 l 801 500 b 800 478 802 491 802 482 b 781 465 797 474 789 469 b 747 448 771 461 756 454 b 683 419 738 443 709 429 b 595 392 656 409 618 396 b 542 382 573 387 549 382 b 503 392 534 382 517 387 b 467 399 484 398 476 400 b 450 389 461 398 454 394 b 435 374 444 385 439 378 b 421 370 428 369 426 368 b 415 382 417 372 415 376 b 420 405 415 387 418 396 b 440 469 424 411 433 442 b 458 528 447 499 456 524 b 473 538 460 531 467 536 b 496 547 479 541 490 544 b 540 581 504 550 522 564 b 592 620 561 602 578 613 l 640 645 b 687 667 656 655 676 663 b 745 681 697 669 724 677 b 811 701 769 685 794 694 b 847 713 827 706 843 713 "},"D":{"ha":1024,"x_min":0,"x_max":0,"o":"m 1168 844 b 1206 837 1185 844 1193 844 b 1233 815 1218 831 1226 824 b 1247 780 1239 805 1244 794 b 1247 740 1250 763 1250 755 b 1236 711 1245 730 1241 717 b 1217 694 1232 705 1224 698 b 1181 687 1207 688 1200 687 b 1140 694 1166 687 1153 691 b 1103 714 1131 697 1115 706 b 1076 727 1092 721 1080 727 b 1061 720 1071 727 1064 724 b 1050 703 1057 717 1053 708 b 1037 687 1047 697 1041 691 b 1016 681 1032 684 1022 681 b 995 678 1008 681 999 679 b 985 669 992 678 986 674 b 991 638 983 664 984 656 b 997 582 997 618 998 608 b 1000 546 996 559 997 549 b 1025 536 1003 544 1015 539 b 1056 520 1040 531 1050 526 b 1071 496 1061 516 1069 505 b 1078 440 1075 485 1077 468 b 1076 376 1079 415 1078 390 b 1064 332 1074 365 1069 344 b 1044 287 1060 321 1052 299 b 1017 244 1038 273 1025 254 b 993 195 1006 229 998 214 b 975 157 986 181 979 163 b 954 140 970 152 961 144 b 911 131 945 136 931 133 b 874 123 894 130 878 127 b 856 110 869 120 862 115 b 836 96 852 105 842 99 b 807 77 830 93 818 84 b 767 55 798 69 782 60 b 717 33 753 50 731 40 b 677 17 703 25 685 19 b 643 1 669 15 653 7 b 604 -13 626 -8 620 -12 b 569 -8 591 -14 580 -12 b 549 -4 562 -6 552 -4 b 527 -12 545 -4 535 -7 b 496 -19 517 -16 506 -19 b 475 -11 485 -19 481 -18 l 461 5 b 446 17 458 10 452 15 b 421 18 439 19 430 19 b 392 0 412 17 405 12 b 353 -20 376 -15 371 -17 b 273 -28 340 -23 305 -26 b 202 -29 242 -29 210 -31 b 174 -20 194 -28 181 -24 b 148 -1 165 -17 155 -7 l 130 20 b 86 28 121 28 121 28 b 43 32 64 28 48 31 b 24 44 37 34 29 40 b 10 65 19 50 13 58 b 6 98 7 72 6 84 b 14 137 6 118 6 123 b 39 160 21 150 26 155 b 88 169 52 168 57 169 b 154 161 110 168 133 166 b 213 155 172 157 195 155 b 254 150 233 155 244 154 b 276 131 261 146 270 139 b 294 114 281 123 290 116 b 321 117 302 111 306 112 b 352 122 331 119 346 122 b 378 109 362 122 367 120 b 400 93 386 102 395 94 b 418 91 405 92 412 91 b 439 94 424 91 433 93 b 456 112 447 97 452 102 b 471 129 460 119 467 127 b 483 131 475 131 480 131 b 502 123 485 131 493 129 b 523 118 509 119 519 117 b 531 125 528 118 531 120 b 522 148 531 129 528 139 b 512 181 514 161 512 169 b 517 207 512 191 514 201 b 534 227 519 212 528 220 b 560 246 543 231 553 240 b 580 271 567 252 575 263 b 639 360 583 279 610 319 b 717 468 667 401 702 449 l 762 531 b 794 568 775 549 787 564 b 823 578 799 570 813 576 b 847 586 834 580 845 583 b 856 611 850 588 854 600 b 863 644 857 623 860 638 b 867 662 865 652 867 659 b 862 672 867 665 865 669 b 835 677 859 676 852 677 b 796 681 823 677 805 679 b 744 691 786 683 763 687 b 694 695 726 694 704 695 b 657 691 686 695 669 694 b 607 685 645 687 623 685 b 557 678 586 685 575 683 l 500 658 b 451 638 481 653 458 643 b 429 621 444 632 433 625 b 405 610 424 619 413 613 b 382 599 396 607 387 602 b 377 576 376 594 376 591 l 381 536 b 373 479 382 517 381 508 b 356 413 368 458 359 430 b 343 375 352 397 346 381 b 322 351 340 370 331 358 b 307 329 315 343 307 332 b 308 317 307 325 307 319 b 313 309 308 315 310 311 b 325 306 316 307 321 306 b 358 313 331 306 344 308 b 416 319 378 319 389 319 b 461 324 434 319 455 322 b 481 332 469 325 477 330 b 502 362 485 336 494 349 b 531 407 508 374 522 394 b 550 442 546 426 550 432 b 534 474 550 448 546 458 b 513 518 526 488 516 507 b 506 551 509 528 506 543 b 512 579 506 560 509 571 b 528 598 516 585 523 594 b 549 608 533 602 544 607 b 581 611 556 610 570 611 b 617 607 593 611 608 609 b 645 595 626 606 639 599 b 665 571 653 589 661 581 b 672 537 670 561 672 552 b 666 504 672 521 670 513 b 655 488 663 498 657 491 l 624 474 b 592 457 609 469 595 462 b 581 433 588 453 583 443 b 560 399 577 425 568 409 b 527 351 552 389 537 368 b 503 315 517 334 506 318 b 483 302 498 311 490 306 b 426 294 473 296 463 294 b 361 285 394 292 375 289 b 325 279 350 282 334 279 b 299 285 315 279 306 281 b 283 298 294 288 286 294 b 279 323 280 305 279 311 b 276 347 279 331 278 344 b 269 356 274 352 271 356 b 238 362 264 357 252 360 b 205 369 221 363 211 366 b 189 388 201 372 194 381 b 182 423 183 397 182 405 b 187 457 182 438 184 449 b 206 491 191 464 199 480 b 228 533 214 504 224 523 b 244 566 233 545 241 560 b 266 585 250 572 259 581 b 310 596 275 589 291 594 l 341 600 l 358 615 b 391 634 369 623 381 631 b 425 653 399 637 415 644 l 454 671 b 485 682 459 674 473 679 l 539 700 b 616 716 570 712 576 713 b 671 720 641 717 666 719 b 696 724 678 722 688 724 b 746 719 704 724 726 721 b 805 707 766 716 792 711 b 837 705 818 705 832 704 b 858 705 842 706 852 706 b 884 692 867 703 876 699 b 906 677 892 685 901 679 b 924 674 911 676 919 674 b 944 677 931 674 939 676 b 963 691 949 679 957 684 b 983 703 970 696 979 702 b 1002 706 989 705 996 706 b 1019 712 1008 706 1016 708 b 1034 731 1023 715 1031 723 b 1058 752 1042 744 1046 746 b 1081 760 1068 755 1077 758 b 1093 772 1085 762 1091 767 b 1100 794 1095 776 1099 786 b 1111 819 1102 801 1107 814 b 1131 838 1115 828 1122 833 b 1168 844 1142 843 1150 844 m 911 542 b 895 536 906 542 899 539 b 888 509 888 531 887 528 b 884 478 889 494 887 485 b 866 459 881 471 873 464 b 843 440 858 454 848 445 b 823 412 838 433 829 421 b 798 373 819 403 807 385 b 752 306 789 361 769 331 b 706 241 736 281 716 252 l 681 211 b 665 181 675 206 669 193 l 653 152 b 639 134 649 147 644 138 b 621 122 633 130 625 124 b 590 116 616 121 602 118 b 553 97 571 112 566 109 b 530 84 544 90 535 84 b 509 91 526 84 516 86 b 491 96 503 94 494 96 b 483 92 488 96 484 94 b 486 72 482 89 483 80 b 490 36 491 61 491 54 b 494 11 487 16 488 14 b 511 11 498 7 504 7 b 542 33 516 13 531 22 b 575 56 556 46 566 53 b 602 56 583 56 594 57 b 630 49 608 56 621 53 b 660 43 639 44 651 43 b 708 58 672 43 681 45 b 757 80 726 67 748 77 b 790 98 767 82 781 92 l 823 119 b 841 136 834 125 840 131 b 840 169 843 140 842 156 b 840 208 837 191 837 197 b 860 244 843 216 852 231 b 882 294 873 263 877 272 b 894 348 886 309 892 333 b 901 413 896 363 899 392 b 911 469 903 438 906 458 b 925 498 915 479 920 492 b 935 519 930 505 934 513 b 928 535 936 527 935 530 b 911 542 923 539 916 542 m 207 129 b 181 127 195 129 182 128 b 172 117 179 125 175 121 b 168 86 169 112 168 100 b 162 51 168 75 165 58 b 161 31 158 37 158 34 b 173 25 163 27 169 25 b 192 39 178 25 183 31 b 217 58 198 45 208 55 b 257 64 227 63 236 64 b 297 62 273 64 291 63 l 316 57 b 329 47 319 56 324 52 b 340 28 332 44 338 36 b 354 12 344 18 348 13 b 367 15 358 11 362 12 b 366 40 370 19 370 21 b 361 70 362 52 360 64 b 360 85 362 75 362 81 b 352 94 358 90 355 94 b 330 91 348 95 338 94 b 302 84 320 86 309 84 b 280 91 296 84 285 86 b 259 109 274 94 264 102 b 240 124 255 115 245 122 b 207 129 234 127 220 129 "},"d":{"ha":1024,"x_min":0,"x_max":0,"o":"m 1168 844 b 1131 838 1150 844 1142 843 b 1111 819 1122 833 1115 828 b 1100 794 1107 814 1102 801 b 1093 772 1099 786 1095 776 b 1081 760 1091 767 1085 762 b 1058 752 1077 758 1068 755 b 1034 731 1046 746 1042 744 b 1019 712 1031 723 1023 715 b 1002 706 1016 708 1008 706 b 983 703 996 706 989 705 b 963 691 979 702 970 696 b 944 677 957 684 949 679 b 924 674 939 676 931 674 b 906 677 919 674 911 676 b 884 692 901 679 892 685 b 858 705 876 699 867 703 b 837 705 852 706 842 706 b 805 707 832 704 818 705 b 746 719 792 711 766 716 b 696 724 726 721 704 724 b 671 720 688 724 678 722 b 616 716 666 719 641 717 b 539 700 576 713 570 712 l 485 682 b 454 671 473 679 459 674 l 425 653 b 391 634 415 644 399 637 b 358 615 381 631 369 623 l 341 600 l 310 596 b 266 585 291 594 275 589 b 244 566 259 581 250 572 b 228 533 241 560 233 545 b 206 491 224 523 214 504 b 187 457 199 480 191 464 b 182 423 184 449 182 438 b 189 388 182 405 183 397 b 205 369 194 381 201 372 b 238 362 211 366 221 363 b 269 356 252 360 264 357 b 276 347 271 356 274 352 b 279 323 278 344 279 331 b 283 298 279 311 280 305 b 299 285 286 294 294 288 b 325 279 306 281 315 279 b 361 285 334 279 350 282 b 426 294 375 289 394 292 b 483 302 463 294 473 296 b 503 315 490 306 498 311 b 527 351 506 318 517 334 b 560 399 537 368 552 389 b 581 433 568 409 577 425 b 592 457 583 443 588 453 b 624 474 595 462 609 469 l 655 488 b 666 504 657 491 663 498 b 672 537 670 513 672 521 b 665 571 672 552 670 561 b 645 595 661 581 653 589 b 617 607 639 599 626 606 b 581 611 608 609 593 611 b 549 608 570 611 556 610 b 528 598 544 607 533 602 b 512 579 523 594 516 585 b 506 551 509 571 506 560 b 513 518 506 543 509 528 b 534 474 516 507 526 488 b 550 442 546 458 550 448 b 531 407 550 432 546 426 b 502 362 522 394 508 374 b 481 332 494 349 485 336 b 461 324 477 330 469 325 b 416 319 455 322 434 319 b 358 313 389 319 378 319 b 325 306 344 308 331 306 b 313 309 321 306 316 307 b 308 317 310 311 308 315 b 307 329 307 319 307 325 b 322 351 307 332 315 343 b 343 375 331 358 340 370 b 356 413 346 381 352 397 b 373 479 359 430 368 458 b 381 536 381 508 382 517 l 377 576 b 382 599 376 591 376 594 b 405 610 387 602 396 607 b 429 621 413 613 424 619 b 451 638 433 625 444 632 b 500 658 458 643 481 653 l 557 678 b 607 685 575 683 586 685 b 657 691 623 685 645 687 b 694 695 669 694 686 695 b 744 691 704 695 726 694 b 796 681 763 687 786 683 b 835 677 805 679 823 677 b 862 672 852 677 859 676 b 867 662 865 669 867 665 b 863 644 867 659 865 652 b 856 611 860 638 857 623 b 847 586 854 600 850 588 b 823 578 845 583 834 580 b 794 568 813 576 799 570 b 762 531 787 564 775 549 l 717 468 b 639 360 702 449 667 401 b 580 271 610 319 583 279 b 560 246 575 263 567 252 b 534 227 553 240 543 231 b 517 207 528 220 519 212 b 512 181 514 201 512 191 b 522 148 512 169 514 161 b 531 125 528 139 531 129 b 523 118 531 120 528 118 b 502 123 519 117 509 119 b 483 131 493 129 485 131 b 471 129 480 131 475 131 b 456 112 467 127 460 119 b 439 94 452 102 447 97 b 418 91 433 93 424 91 b 400 93 412 91 405 92 b 378 109 395 94 386 102 b 352 122 367 120 362 122 b 321 117 346 122 331 119 b 294 114 306 112 302 111 b 276 131 290 116 281 123 b 254 150 270 139 261 146 b 213 155 244 154 233 155 b 154 161 195 155 172 157 b 88 169 133 166 110 168 b 39 160 57 169 52 168 b 14 137 26 155 21 150 b 6 98 6 123 6 118 b 10 65 6 84 7 72 b 24 44 13 58 19 50 b 43 32 29 40 37 34 b 86 28 48 31 64 28 b 130 20 121 28 121 28 l 148 -1 b 174 -20 155 -7 165 -17 b 202 -29 181 -24 194 -28 b 273 -28 210 -31 242 -29 b 353 -20 305 -26 340 -23 b 392 0 371 -17 376 -15 b 421 18 405 12 412 17 b 446 17 430 19 439 19 b 461 5 452 15 458 10 l 475 -11 b 496 -19 481 -18 485 -19 b 527 -12 506 -19 517 -16 b 549 -4 535 -7 545 -4 b 569 -8 552 -4 562 -6 b 604 -13 580 -12 591 -14 b 643 1 620 -12 626 -8 b 677 17 653 7 669 15 b 717 33 685 19 703 25 b 767 55 731 40 753 50 b 807 77 782 60 798 69 b 836 96 818 84 830 93 b 856 110 842 99 852 105 b 874 123 862 115 869 120 b 911 131 878 127 894 130 b 954 140 931 133 945 136 b 975 157 961 144 970 152 b 993 195 979 163 986 181 b 1017 244 998 214 1006 229 b 1044 287 1025 254 1038 273 b 1064 332 1052 299 1060 321 b 1076 376 1069 344 1074 365 b 1078 440 1078 390 1079 415 b 1071 496 1077 468 1075 485 b 1056 520 1069 505 1061 516 b 1025 536 1050 526 1040 531 b 1000 546 1015 539 1003 544 b 997 582 997 549 996 559 b 991 638 998 608 997 618 b 985 669 984 656 983 664 b 995 678 986 674 992 678 b 1016 681 999 679 1008 681 b 1037 687 1022 681 1032 684 b 1050 703 1041 691 1047 697 b 1061 720 1053 708 1057 717 b 1076 727 1064 724 1071 727 b 1103 714 1080 727 1092 721 b 1140 694 1115 706 1131 697 b 1181 687 1153 691 1166 687 b 1217 694 1200 687 1207 688 b 1236 711 1224 698 1232 705 b 1247 740 1241 717 1245 730 b 1247 780 1250 755 1250 763 b 1233 815 1244 794 1239 805 b 1206 837 1226 824 1218 831 b 1168 844 1193 844 1185 844 m 911 542 b 928 535 916 542 923 539 b 935 519 935 530 936 527 b 925 498 934 513 930 505 b 911 469 920 492 915 479 b 901 413 906 458 903 438 b 894 348 899 392 896 363 b 882 294 892 333 886 309 b 860 244 877 272 873 263 b 840 208 852 231 843 216 b 840 169 837 197 837 191 b 841 136 842 156 843 140 b 823 119 840 131 834 125 l 790 98 b 757 80 781 92 767 82 b 708 58 748 77 726 67 b 660 43 681 45 672 43 b 630 49 651 43 639 44 b 602 56 621 53 608 56 b 575 56 594 57 583 56 b 542 33 566 53 556 46 b 511 11 531 22 516 13 b 494 11 504 7 498 7 b 490 36 488 14 487 16 b 486 72 491 54 491 61 b 483 92 483 80 482 89 b 491 96 484 94 488 96 b 509 91 494 96 503 94 b 530 84 516 86 526 84 b 553 97 535 84 544 90 b 590 116 566 109 571 112 b 621 122 602 118 616 121 b 639 134 625 124 633 130 b 653 152 644 138 649 147 l 665 181 b 681 211 669 193 675 206 l 706 241 b 752 306 716 252 736 281 b 798 373 769 331 789 361 b 823 412 807 385 819 403 b 843 440 829 421 838 433 b 866 459 848 445 858 454 b 884 478 873 464 881 471 b 888 509 887 485 889 494 b 895 536 887 528 888 531 b 911 542 899 539 906 542 m 207 129 b 240 124 220 129 234 127 b 259 109 245 122 255 115 b 280 91 264 102 274 94 b 302 84 285 86 296 84 b 330 91 309 84 320 86 b 352 94 338 94 348 95 b 360 85 355 94 358 90 b 361 70 362 81 362 75 b 366 40 360 64 362 52 b 367 15 370 21 370 19 b 354 12 362 12 358 11 b 340 28 348 13 344 18 b 329 47 338 36 332 44 b 316 57 324 52 319 56 l 297 62 b 257 64 291 63 273 64 b 217 58 236 64 227 63 b 192 39 208 55 198 45 b 173 25 183 31 178 25 b 161 31 169 25 163 27 b 162 51 158 34 158 37 b 168 86 165 58 168 75 b 172 117 168 100 169 112 b 181 127 175 121 179 125 b 207 129 182 128 195 129 "},"E":{"ha":773,"x_min":0,"x_max":0,"o":"m 519 842 b 550 835 529 841 543 838 b 571 822 558 831 568 827 b 585 802 576 819 581 810 b 593 768 589 794 592 778 b 590 731 594 755 593 742 b 573 704 586 720 581 712 b 546 688 567 698 555 692 b 507 685 535 685 525 684 b 456 699 488 686 479 690 b 420 711 440 706 424 711 b 394 703 416 711 405 706 b 366 686 384 698 370 691 b 347 664 359 681 352 672 b 331 644 344 656 336 647 b 306 627 328 640 316 632 b 281 606 294 620 287 615 b 270 580 278 600 273 588 b 269 539 266 565 266 561 b 270 491 273 519 273 511 b 268 462 269 479 267 465 l 273 442 l 281 419 b 294 406 282 413 289 408 b 308 402 298 404 305 402 b 332 410 311 402 323 406 b 365 419 344 415 357 419 b 390 407 373 419 379 416 b 411 394 398 401 408 394 b 426 395 414 393 421 394 b 436 408 430 398 435 404 b 437 423 438 412 438 419 b 431 434 436 427 433 432 b 396 440 427 439 419 440 b 356 445 373 440 364 441 b 338 458 350 447 343 454 b 331 493 332 465 331 470 b 345 536 331 519 331 519 l 375 577 b 398 606 384 590 394 604 b 419 618 404 610 412 616 b 450 624 426 620 441 623 b 477 630 461 625 472 628 b 499 643 483 632 492 638 b 530 656 506 648 518 654 b 568 671 542 658 556 664 b 599 687 578 677 592 684 b 648 699 606 691 628 696 b 699 713 669 703 691 709 b 732 729 706 716 721 723 b 765 738 744 735 754 738 b 790 731 776 738 781 736 b 802 712 794 725 800 718 b 809 695 803 706 806 698 b 848 687 813 690 819 688 b 891 680 876 686 883 684 b 905 666 895 677 902 670 b 913 637 910 660 912 653 b 907 598 914 619 913 612 b 882 564 902 586 895 576 b 849 539 873 555 857 544 b 803 525 839 535 819 528 b 740 502 783 521 765 515 b 694 479 719 492 699 482 b 671 467 689 476 680 470 b 644 448 664 464 651 455 b 625 430 638 441 628 431 b 606 425 620 427 612 425 b 581 435 598 425 591 428 b 559 445 571 442 563 445 b 549 439 555 444 551 442 b 553 415 547 434 548 429 b 566 380 556 406 563 389 b 570 350 570 367 571 359 b 561 330 569 344 565 335 b 538 314 556 326 546 318 b 510 306 529 309 518 306 b 481 316 503 306 491 310 b 453 323 467 323 460 325 b 431 313 448 322 438 318 b 409 299 425 308 414 303 b 385 294 405 297 393 294 b 358 289 376 293 365 290 b 331 271 353 287 340 279 b 306 252 324 264 311 255 b 269 245 299 249 284 246 b 237 236 247 244 242 243 b 231 225 233 232 231 228 b 236 200 231 223 233 211 b 240 156 239 186 241 171 b 230 111 239 143 235 124 b 212 72 226 97 217 81 b 201 48 207 64 202 54 b 205 32 200 41 201 36 b 237 26 209 27 215 26 b 289 32 254 26 273 29 b 330 38 302 35 319 38 b 365 32 338 38 354 35 b 406 27 379 27 389 26 b 464 42 423 29 436 31 b 518 58 483 49 507 56 b 540 69 527 60 537 64 b 545 83 544 71 545 78 b 540 114 544 89 543 102 b 537 148 537 127 535 139 b 545 175 538 156 542 168 l 566 209 b 590 244 573 221 584 237 b 602 266 596 251 601 259 b 600 279 604 270 603 276 b 586 283 598 281 592 283 b 561 272 581 283 570 279 l 527 249 b 481 236 510 238 508 237 b 448 230 459 234 450 233 b 445 218 447 228 445 223 b 452 192 445 214 448 202 b 459 151 456 180 459 163 b 451 114 459 131 457 126 b 427 91 445 101 441 97 b 382 83 410 82 407 81 b 343 90 367 84 349 87 b 320 102 336 92 327 97 b 304 126 316 107 308 117 b 296 161 298 136 296 145 b 300 195 296 173 298 189 b 316 219 302 202 309 213 b 338 232 321 225 332 231 b 372 237 345 234 360 236 l 404 240 b 429 252 409 241 420 246 b 471 263 442 259 446 262 l 500 265 l 532 285 b 579 310 551 296 571 308 b 605 309 589 313 594 313 b 622 297 611 307 619 303 b 631 276 626 294 629 284 b 639 256 632 269 636 259 b 671 250 643 253 649 251 b 707 244 694 249 701 247 b 722 230 713 239 719 233 b 730 206 726 225 729 215 b 728 178 730 197 729 185 b 709 147 726 171 718 156 b 684 111 702 137 690 120 b 664 82 679 101 669 89 b 645 69 659 78 650 71 b 605 58 641 66 622 61 b 556 44 583 56 568 51 b 519 31 547 40 531 34 b 469 15 508 29 486 21 l 432 2 b 404 -3 428 1 415 -2 b 365 -17 389 -5 378 -8 b 331 -29 352 -24 341 -28 b 306 -25 321 -30 312 -29 b 280 -10 299 -23 288 -17 b 235 0 266 -1 265 0 b 195 4 217 0 202 1 b 179 18 190 6 181 13 b 171 38 176 22 172 32 b 161 56 170 45 166 52 b 130 61 155 60 149 61 b 93 68 113 61 101 63 b 73 81 85 70 77 77 b 63 107 70 88 65 98 b 63 143 60 119 60 129 b 74 179 64 154 70 169 b 94 208 79 188 87 201 b 120 229 99 215 111 224 b 166 239 132 233 145 237 b 203 246 181 241 198 244 b 217 256 208 248 214 253 b 231 267 220 259 227 265 b 263 272 235 269 250 271 b 294 277 276 273 291 276 l 315 294 b 339 311 323 301 333 308 b 372 320 345 314 359 318 b 417 336 389 323 401 327 b 454 350 432 345 444 349 b 488 343 467 351 472 350 b 514 333 499 337 510 333 b 531 342 519 333 527 336 b 542 360 540 347 542 351 b 537 374 542 366 540 372 b 486 375 532 377 522 377 b 425 369 461 373 433 370 b 390 374 409 365 407 365 b 358 383 378 381 367 383 b 332 380 353 383 340 381 b 306 374 324 376 311 374 b 281 381 298 374 288 377 b 262 394 274 384 267 390 b 250 423 259 399 254 411 b 240 448 247 433 242 445 b 219 465 238 452 230 459 b 197 484 211 470 200 480 b 190 504 194 489 191 498 b 192 526 189 508 189 519 b 206 548 194 534 199 542 b 229 568 213 555 222 563 b 248 600 235 574 242 584 b 267 633 253 614 260 627 b 294 652 272 639 284 646 b 319 675 306 657 313 664 b 338 698 326 682 333 694 b 365 719 344 704 355 713 b 401 735 374 724 391 731 b 426 744 411 738 422 742 b 435 756 429 745 433 751 b 443 781 438 759 441 771 b 452 814 444 793 448 807 b 469 831 455 820 463 829 b 491 841 473 835 483 839 b 519 842 496 842 510 843 m 762 711 b 743 704 758 711 751 707 l 709 687 b 657 673 698 681 679 677 b 613 663 639 670 619 665 b 585 649 608 662 596 656 b 556 635 576 644 563 637 b 532 628 550 633 541 630 b 514 619 525 626 519 622 b 515 589 510 612 510 609 b 521 550 519 578 521 560 b 518 520 521 541 519 527 b 501 490 515 513 507 500 b 489 463 491 477 488 469 b 503 452 490 454 491 453 b 526 460 511 451 516 453 b 544 471 531 465 540 469 b 559 474 547 473 554 474 b 584 465 564 474 576 470 b 606 454 594 459 604 454 b 626 468 609 454 619 461 b 657 490 632 476 647 485 b 688 507 668 495 681 503 b 716 520 695 511 707 518 b 736 532 724 524 733 529 b 735 565 740 539 740 543 b 733 608 730 585 730 594 b 744 643 735 619 740 634 b 762 671 747 651 756 663 b 776 691 769 679 774 687 b 773 704 777 694 776 699 b 762 711 770 707 765 711 "},"e":{"ha":773,"x_min":0,"x_max":0,"o":"m 519 842 b 491 841 510 843 496 842 b 469 831 483 839 473 835 b 452 814 463 829 455 820 b 443 781 448 807 444 793 b 435 756 441 771 438 759 b 426 744 433 751 429 745 b 401 735 422 742 411 738 b 365 719 391 731 374 724 b 338 698 355 713 344 704 b 319 675 333 694 326 682 b 294 652 313 664 306 657 b 267 633 284 646 272 639 b 248 600 260 627 253 614 b 229 568 242 584 235 574 b 206 548 222 563 213 555 b 192 526 199 542 194 534 b 190 504 189 519 189 508 b 197 484 191 498 194 489 b 219 465 200 480 211 470 b 240 448 230 459 238 452 b 250 423 242 445 247 433 b 262 394 254 411 259 399 b 281 381 267 390 274 384 b 306 374 288 377 298 374 b 332 380 311 374 324 376 b 358 383 340 381 353 383 b 390 374 367 383 378 381 b 425 369 407 365 409 365 b 486 375 433 370 461 373 b 537 374 522 377 532 377 b 542 360 540 372 542 366 b 531 342 542 351 540 347 b 514 333 527 336 519 333 b 488 343 510 333 499 337 b 454 350 472 350 467 351 b 417 336 444 349 432 345 b 372 320 401 327 389 323 b 339 311 359 318 345 314 b 315 294 333 308 323 301 l 294 277 b 263 272 291 276 276 273 b 231 267 250 271 235 269 b 217 256 227 265 220 259 b 203 246 214 253 208 248 b 166 239 198 244 181 241 b 120 229 145 237 132 233 b 94 208 111 224 99 215 b 74 179 87 201 79 188 b 63 143 70 169 64 154 b 63 107 60 129 60 119 b 73 81 65 98 70 88 b 93 68 77 77 85 70 b 130 61 101 63 113 61 b 161 56 149 61 155 60 b 171 38 166 52 170 45 b 179 18 172 32 176 22 b 195 4 181 13 190 6 b 235 0 202 1 217 0 b 280 -10 265 0 266 -1 b 306 -25 288 -17 299 -23 b 331 -29 312 -29 321 -30 b 365 -17 341 -28 352 -24 b 404 -3 378 -8 389 -5 b 432 2 415 -2 428 1 l 469 15 b 519 31 486 21 508 29 b 556 44 531 34 547 40 b 605 58 568 51 583 56 b 645 69 622 61 641 66 b 664 82 650 71 659 78 b 684 111 669 89 679 101 b 709 147 690 120 702 137 b 728 178 718 156 726 171 b 730 206 729 185 730 197 b 722 230 729 215 726 225 b 707 244 719 233 713 239 b 671 250 701 247 694 249 b 639 256 649 251 643 253 b 631 276 636 259 632 269 b 622 297 629 284 626 294 b 605 309 619 303 611 307 b 579 310 594 313 589 313 b 532 285 571 308 551 296 l 500 265 l 471 263 b 429 252 446 262 442 259 b 404 240 420 246 409 241 l 372 237 b 338 232 360 236 345 234 b 316 219 332 231 321 225 b 300 195 309 213 302 202 b 296 161 298 189 296 173 b 304 126 296 145 298 136 b 320 102 308 117 316 107 b 343 90 327 97 336 92 b 382 83 349 87 367 84 b 427 91 407 81 410 82 b 451 114 441 97 445 101 b 459 151 457 126 459 131 b 452 192 459 163 456 180 b 445 218 448 202 445 214 b 448 230 445 223 447 228 b 481 236 450 233 459 234 b 527 249 508 237 510 238 l 561 272 b 586 283 570 279 581 283 b 600 279 592 283 598 281 b 602 266 603 276 604 270 b 590 244 601 259 596 251 b 566 209 584 237 573 221 l 545 175 b 537 148 542 168 538 156 b 540 114 535 139 537 127 b 545 83 543 102 544 89 b 540 69 545 78 544 71 b 518 58 537 64 527 60 b 464 42 507 56 483 49 b 406 27 436 31 423 29 b 365 32 389 26 379 27 b 330 38 354 35 338 38 b 289 32 319 38 302 35 b 237 26 273 29 254 26 b 205 32 215 26 209 27 b 201 48 201 36 200 41 b 212 72 202 54 207 64 b 230 111 217 81 226 97 b 240 156 235 124 239 143 b 236 200 241 171 239 186 b 231 225 233 211 231 223 b 237 236 231 228 233 232 b 269 245 242 243 247 244 b 306 252 284 246 299 249 b 331 271 311 255 324 264 b 358 289 340 279 353 287 b 385 294 365 290 376 293 b 409 299 393 294 405 297 b 431 313 414 303 425 308 b 453 323 438 318 448 322 b 481 316 460 325 467 323 b 510 306 491 310 503 306 b 538 314 518 306 529 309 b 561 330 546 318 556 326 b 570 350 565 335 569 344 b 566 380 571 359 570 367 b 553 415 563 389 556 406 b 549 439 548 429 547 434 b 559 445 551 442 555 444 b 581 435 563 445 571 442 b 606 425 591 428 598 425 b 625 430 612 425 620 427 b 644 448 628 431 638 441 b 671 467 651 455 664 464 b 694 479 680 470 689 476 b 740 502 699 482 719 492 b 803 525 765 515 783 521 b 849 539 819 528 839 535 b 882 564 857 544 873 555 b 907 598 895 576 902 586 b 913 637 913 612 914 619 b 905 666 912 653 910 660 b 891 680 902 670 895 677 b 848 687 883 684 876 686 b 809 695 819 688 813 690 b 802 712 806 698 803 706 b 790 731 800 718 794 725 b 765 738 781 736 776 738 b 732 729 754 738 744 735 b 699 713 721 723 706 716 b 648 699 691 709 669 703 b 599 687 628 696 606 691 b 568 671 592 684 578 677 b 530 656 556 664 542 658 b 499 643 518 654 506 648 b 477 630 492 638 483 632 b 450 624 472 628 461 625 b 419 618 441 623 426 620 b 398 606 412 616 404 610 b 375 577 394 604 384 590 l 345 536 b 331 493 331 519 331 519 b 338 458 331 470 332 465 b 356 445 343 454 350 447 b 396 440 364 441 373 440 b 431 434 419 440 427 439 b 437 423 433 432 436 427 b 436 408 438 419 438 412 b 426 395 435 404 430 398 b 411 394 421 394 414 393 b 390 407 408 394 398 401 b 365 419 379 416 373 419 b 332 410 357 419 344 415 b 308 402 323 406 311 402 b 294 406 305 402 298 404 b 281 419 289 408 282 413 l 273 442 l 268 462 b 270 491 267 465 269 479 b 269 539 273 511 273 519 b 270 580 266 561 266 565 b 281 606 273 588 278 600 b 306 627 287 615 294 620 b 331 644 316 632 328 640 b 347 664 336 647 344 656 b 366 686 352 672 359 681 b 394 703 370 691 384 698 b 420 711 405 706 416 711 b 456 699 424 711 440 706 b 507 685 479 690 488 686 b 546 688 525 684 535 685 b 573 704 555 692 567 698 b 590 731 581 712 586 720 b 593 768 593 742 594 755 b 585 802 592 778 589 794 b 571 822 581 810 576 819 b 550 835 568 827 558 831 b 519 842 543 838 529 841 m 762 711 b 773 704 765 711 770 707 b 776 691 776 699 777 694 b 762 671 774 687 769 679 b 744 643 756 663 747 651 b 733 608 740 634 735 619 b 735 565 730 594 730 585 b 736 532 740 543 740 539 b 716 520 733 529 724 524 b 688 507 707 518 695 511 b 657 490 681 503 668 495 b 626 468 647 485 632 476 b 606 454 619 461 609 454 b 584 465 604 454 594 459 b 559 474 576 470 564 474 b 544 471 554 474 547 473 b 526 460 540 469 531 465 b 503 452 516 453 511 451 b 489 463 491 453 490 454 b 501 490 488 469 491 477 b 518 520 507 500 515 513 b 521 550 519 527 521 541 b 515 589 521 560 519 578 b 514 619 510 609 510 612 b 532 628 519 622 525 626 b 556 635 541 630 550 633 b 585 649 563 637 576 644 b 613 663 596 656 608 662 b 657 673 619 665 639 670 b 709 687 679 677 698 681 l 743 704 b 762 711 751 707 758 711 "},"F":{"ha":993,"x_min":0,"x_max":0,"o":"m 1171 785 b 1203 781 1182 785 1196 783 b 1221 769 1209 778 1218 773 b 1236 748 1225 765 1232 756 b 1244 710 1240 741 1243 728 b 1240 667 1244 692 1244 680 b 1222 636 1236 653 1231 644 b 1197 620 1216 629 1206 622 b 1168 619 1190 619 1176 618 b 1143 626 1159 619 1147 623 b 1124 646 1137 629 1129 639 b 1110 668 1120 655 1114 664 b 1097 675 1106 671 1101 675 b 1087 670 1094 675 1089 672 b 1083 648 1084 669 1083 658 b 1076 622 1083 633 1081 629 b 1055 611 1070 616 1065 613 b 1009 618 1044 610 1029 612 l 968 627 b 938 642 961 629 947 636 l 903 660 b 869 670 893 664 879 669 b 823 669 855 674 846 674 b 782 666 807 667 789 665 b 739 679 774 667 756 672 b 646 704 724 685 681 697 b 553 723 611 713 569 720 b 497 727 532 727 514 728 b 441 717 481 726 459 721 b 397 706 424 710 405 706 b 374 703 389 706 379 705 b 360 694 368 702 363 698 b 364 656 357 686 358 681 b 370 606 370 631 371 621 b 357 553 369 596 363 571 b 331 500 348 527 343 515 b 313 471 322 489 315 476 b 319 456 311 465 313 461 b 331 449 322 452 327 449 b 357 455 334 449 345 452 b 419 471 368 458 396 466 b 469 481 442 476 464 481 b 483 484 473 481 480 482 b 493 492 487 486 492 490 b 495 503 494 494 495 499 b 482 531 495 507 490 520 b 465 569 476 543 467 560 b 461 604 461 581 460 592 b 471 635 462 613 466 626 b 494 656 477 644 483 650 b 535 664 505 661 517 664 b 579 660 553 665 568 664 b 608 644 591 657 600 651 b 624 619 615 637 621 625 b 629 590 627 611 629 599 b 621 562 629 581 626 569 b 603 538 619 555 611 544 b 579 522 596 531 584 524 b 562 519 572 520 564 519 b 545 513 560 519 553 516 b 523 488 535 509 532 506 b 504 462 518 474 511 466 b 481 454 499 458 488 455 l 426 443 l 363 427 b 331 419 351 423 338 419 b 307 425 324 419 313 422 b 290 441 301 428 293 434 b 283 471 285 448 283 456 b 279 496 283 487 282 494 b 244 503 274 500 262 502 b 206 511 221 505 212 506 b 190 529 201 515 194 523 b 184 563 185 536 184 545 b 201 621 184 586 185 589 b 228 672 209 640 222 663 b 252 698 234 683 244 694 b 296 711 261 703 278 707 b 344 724 312 715 335 719 b 389 735 356 729 375 733 b 437 745 403 736 425 741 b 484 756 449 749 470 755 b 533 756 500 758 519 758 b 574 750 545 756 565 753 l 656 732 b 748 706 695 724 732 714 b 798 698 773 697 776 696 l 843 702 b 885 697 856 703 867 702 b 940 672 898 694 922 682 b 990 652 959 662 979 655 l 1024 644 b 1043 640 1032 642 1042 640 b 1049 644 1044 640 1047 642 b 1056 675 1054 648 1056 656 b 1058 707 1056 688 1056 703 b 1084 740 1060 713 1071 727 b 1118 769 1097 754 1112 767 b 1140 781 1123 774 1134 779 b 1171 785 1146 783 1160 785 m 869 642 b 909 629 883 641 894 637 b 937 606 925 621 931 616 b 944 574 943 597 944 588 b 939 543 944 563 942 550 b 923 522 934 534 928 526 b 898 512 918 519 906 514 b 869 512 890 511 877 511 b 851 519 863 513 854 516 b 837 529 847 520 842 525 b 824 552 833 532 828 544 b 811 575 820 561 814 571 b 795 582 807 580 801 582 b 762 569 792 582 776 577 b 732 548 746 561 734 552 b 736 514 730 543 731 534 b 741 471 740 496 743 483 b 731 442 740 463 736 449 b 708 416 727 433 716 422 b 682 394 699 410 688 400 b 667 366 677 388 669 375 b 659 336 662 356 659 342 b 666 318 659 330 661 321 b 677 312 669 315 673 312 b 702 319 681 312 693 315 b 759 324 719 325 726 326 b 817 328 792 321 801 322 b 845 340 828 331 841 336 b 868 371 850 344 861 357 b 889 404 876 386 885 400 b 907 418 892 408 901 414 b 934 426 914 421 926 425 b 967 422 944 427 956 426 b 996 405 980 419 987 414 b 1010 380 1002 398 1008 387 b 1016 334 1013 372 1016 355 b 1007 286 1016 306 1015 299 b 989 262 1003 276 995 267 b 965 254 983 258 971 255 b 935 256 956 252 944 253 b 901 277 927 257 913 267 b 869 298 889 287 874 296 b 842 302 861 302 852 303 b 808 294 832 301 818 297 b 763 294 794 291 787 291 b 706 289 734 297 731 296 b 662 281 690 285 670 281 b 639 277 654 281 644 279 b 629 266 635 275 631 270 b 622 241 627 260 624 250 b 618 217 621 232 619 221 b 603 194 617 213 609 202 b 577 149 595 183 584 164 b 534 69 570 133 551 98 b 485 -3 518 43 496 9 b 462 -37 476 -16 465 -31 b 448 -69 459 -42 454 -56 b 433 -101 444 -80 438 -94 b 412 -119 428 -108 419 -116 b 370 -129 402 -125 388 -128 b 340 -132 357 -130 343 -131 b 326 -151 337 -134 331 -142 b 313 -170 322 -158 317 -168 b 287 -186 309 -173 299 -180 b 256 -214 271 -194 266 -199 b 237 -237 248 -224 241 -234 b 208 -253 233 -242 221 -247 b 168 -273 195 -257 177 -268 b 134 -290 157 -279 144 -287 b 83 -296 127 -293 106 -295 b 19 -306 56 -297 38 -301 b -18 -313 6 -309 -10 -313 b -43 -306 -24 -313 -35 -310 b -60 -291 -49 -304 -57 -296 b -64 -263 -62 -286 -64 -273 b -70 -237 -64 -247 -66 -243 b -99 -231 -76 -231 -81 -231 b -131 -228 -110 -231 -125 -229 b -152 -213 -138 -226 -147 -219 b -165 -191 -157 -207 -163 -197 b -168 -153 -168 -184 -169 -169 b -157 -108 -167 -131 -165 -122 b -131 -78 -150 -95 -143 -86 b -81 -52 -123 -71 -101 -59 b -28 -34 -62 -44 -38 -36 b 6 -33 -15 -32 -4 -31 b 31 -42 15 -35 26 -39 b 45 -58 34 -45 43 -54 b 55 -83 49 -64 54 -76 b 53 -113 56 -93 56 -104 b 43 -134 51 -120 46 -131 b 20 -151 39 -138 30 -146 b 4 -169 13 -156 5 -165 b -6 -197 1 -173 -4 -186 b -23 -238 -8 -211 -15 -226 b -35 -266 -31 -249 -35 -261 b -29 -279 -35 -271 -33 -276 b -16 -285 -25 -282 -19 -285 b 17 -275 -13 -285 1 -281 b 79 -266 43 -268 51 -266 b 124 -262 96 -266 117 -264 b 154 -247 131 -259 144 -254 b 194 -227 164 -242 181 -231 b 223 -209 206 -222 219 -214 l 241 -186 b 269 -162 247 -176 256 -169 b 295 -147 281 -156 292 -150 b 301 -94 300 -142 301 -135 b 306 -34 301 -53 302 -43 b 331 -3 309 -29 321 -15 b 358 36 343 8 355 25 l 381 81 b 414 147 390 95 405 125 b 436 196 422 169 432 192 l 456 221 b 479 254 465 231 475 244 b 487 285 482 262 486 277 b 484 308 490 295 488 301 b 467 315 480 315 478 316 b 408 294 461 314 435 306 b 351 269 378 283 358 274 b 330 234 347 263 337 248 b 304 200 320 217 312 207 b 269 190 294 194 286 191 b 234 192 257 189 244 190 b 207 207 226 194 214 200 b 189 237 201 214 193 227 b 182 281 184 251 182 262 b 188 320 182 300 184 311 b 205 342 192 328 199 337 b 225 353 209 346 219 351 b 255 353 231 354 245 354 b 305 333 270 352 281 348 b 350 312 322 324 343 314 b 409 327 363 308 366 309 b 483 346 449 342 459 345 b 518 354 502 348 514 350 b 527 380 522 356 525 366 b 535 413 530 392 532 406 b 564 450 537 419 551 435 b 603 497 578 465 595 486 b 624 528 611 510 620 524 b 639 540 629 531 635 536 b 671 552 644 543 658 548 b 718 575 690 557 701 563 b 743 592 730 584 740 592 l 784 613 b 836 639 806 625 829 637 b 869 642 844 641 860 642 "},"f":{"ha":993,"x_min":0,"x_max":0,"o":"m 1171 785 b 1140 781 1160 785 1146 783 b 1118 769 1134 779 1123 774 b 1084 740 1112 767 1097 754 b 1058 707 1071 727 1060 713 b 1056 675 1056 703 1056 688 b 1049 644 1056 656 1054 648 b 1043 640 1047 642 1044 640 b 1024 644 1042 640 1032 642 l 990 652 b 940 672 979 655 959 662 b 885 697 922 682 898 694 b 843 702 867 702 856 703 l 798 698 b 748 706 776 696 773 697 b 656 732 732 714 695 724 l 574 750 b 533 756 565 753 545 756 b 484 756 519 758 500 758 b 437 745 470 755 449 749 b 389 735 425 741 403 736 b 344 724 375 733 356 729 b 296 711 335 719 312 715 b 252 698 278 707 261 703 b 228 672 244 694 234 683 b 201 621 222 663 209 640 b 184 563 185 589 184 586 b 190 529 184 545 185 536 b 206 511 194 523 201 515 b 244 503 212 506 221 505 b 279 496 262 502 274 500 b 283 471 282 494 283 487 b 290 441 283 456 285 448 b 307 425 293 434 301 428 b 331 419 313 422 324 419 b 363 427 338 419 351 423 l 426 443 l 481 454 b 504 462 488 455 499 458 b 523 488 511 466 518 474 b 545 513 532 506 535 509 b 562 519 553 516 560 519 b 579 522 564 519 572 520 b 603 538 584 524 596 531 b 621 562 611 544 619 555 b 629 590 626 569 629 581 b 624 619 629 599 627 611 b 608 644 621 625 615 637 b 579 660 600 651 591 657 b 535 664 568 664 553 665 b 494 656 517 664 505 661 b 471 635 483 650 477 644 b 461 604 466 626 462 613 b 465 569 460 592 461 581 b 482 531 467 560 476 543 b 495 503 490 520 495 507 b 493 492 495 499 494 494 b 483 484 492 490 487 486 b 469 481 480 482 473 481 b 419 471 464 481 442 476 b 357 455 396 466 368 458 b 331 449 345 452 334 449 b 319 456 327 449 322 452 b 313 471 313 461 311 465 b 331 500 315 476 322 489 b 357 553 343 515 348 527 b 370 606 363 571 369 596 b 364 656 371 621 370 631 b 360 694 358 681 357 686 b 374 703 363 698 368 702 b 397 706 379 705 389 706 b 441 717 405 706 424 710 b 497 727 459 721 481 726 b 553 723 514 728 532 727 b 646 704 569 720 611 713 b 739 679 681 697 724 685 b 782 666 756 672 774 667 b 823 669 789 665 807 667 b 869 670 846 674 855 674 b 903 660 879 669 893 664 l 938 642 b 968 627 947 636 961 629 l 1009 618 b 1055 611 1029 612 1044 610 b 1076 622 1065 613 1070 616 b 1083 648 1081 629 1083 633 b 1087 670 1083 658 1084 669 b 1097 675 1089 672 1094 675 b 1110 668 1101 675 1106 671 b 1124 646 1114 664 1120 655 b 1143 626 1129 639 1137 629 b 1168 619 1147 623 1159 619 b 1197 620 1176 618 1190 619 b 1222 636 1206 622 1216 629 b 1240 667 1231 644 1236 653 b 1244 710 1244 680 1244 692 b 1236 748 1243 728 1240 741 b 1221 769 1232 756 1225 765 b 1203 781 1218 773 1209 778 b 1171 785 1196 783 1182 785 m 869 642 b 836 639 860 642 844 641 b 784 613 829 637 806 625 l 743 592 b 718 575 740 592 730 584 b 671 552 701 563 690 557 b 639 540 658 548 644 543 b 624 528 635 536 629 531 b 603 497 620 524 611 510 b 564 450 595 486 578 465 b 535 413 551 435 537 419 b 527 380 532 406 530 392 b 518 354 525 366 522 356 b 483 346 514 350 502 348 b 409 327 459 345 449 342 b 350 312 366 309 363 308 b 305 333 343 314 322 324 b 255 353 281 348 270 352 b 225 353 245 354 231 354 b 205 342 219 351 209 346 b 188 320 199 337 192 328 b 182 281 184 311 182 300 b 189 237 182 262 184 251 b 207 207 193 227 201 214 b 234 192 214 200 226 194 b 269 190 244 190 257 189 b 304 200 286 191 294 194 b 330 234 312 207 320 217 b 351 269 337 248 347 263 b 408 294 358 274 378 283 b 467 315 435 306 461 314 b 484 308 478 316 480 315 b 487 285 488 301 490 295 b 479 254 486 277 482 262 b 456 221 475 244 465 231 l 436 196 b 414 147 432 192 422 169 b 381 81 405 125 390 95 l 358 36 b 331 -3 355 25 343 8 b 306 -34 321 -15 309 -29 b 301 -94 302 -43 301 -53 b 295 -147 301 -135 300 -142 b 269 -162 292 -150 281 -156 b 241 -186 256 -169 247 -176 l 223 -209 b 194 -227 219 -214 206 -222 b 154 -247 181 -231 164 -242 b 124 -262 144 -254 131 -259 b 79 -266 117 -264 96 -266 b 17 -275 51 -266 43 -268 b -16 -285 1 -281 -13 -285 b -29 -279 -19 -285 -25 -282 b -35 -266 -33 -276 -35 -271 b -23 -238 -35 -261 -31 -249 b -6 -197 -15 -226 -8 -211 b 4 -169 -4 -186 1 -173 b 20 -151 5 -165 13 -156 b 43 -134 30 -146 39 -138 b 53 -113 46 -131 51 -120 b 55 -83 56 -104 56 -93 b 45 -58 54 -76 49 -64 b 31 -42 43 -54 34 -45 b 6 -33 26 -39 15 -35 b -28 -34 -4 -31 -15 -32 b -81 -52 -38 -36 -62 -44 b -131 -78 -101 -59 -123 -71 b -157 -108 -143 -86 -150 -95 b -168 -153 -165 -122 -167 -131 b -165 -191 -169 -169 -168 -184 b -152 -213 -163 -197 -157 -207 b -131 -228 -147 -219 -138 -226 b -99 -231 -125 -229 -110 -231 b -70 -237 -81 -231 -76 -231 b -64 -263 -66 -243 -64 -247 b -60 -291 -64 -273 -62 -286 b -43 -306 -57 -296 -49 -304 b -18 -313 -35 -310 -24 -313 b 19 -306 -10 -313 6 -309 b 83 -296 38 -301 56 -297 b 134 -290 106 -295 127 -293 b 168 -273 144 -287 157 -279 b 208 -253 177 -268 195 -257 b 237 -237 221 -247 233 -242 b 256 -214 241 -234 248 -224 b 287 -186 266 -199 271 -194 b 313 -170 299 -180 309 -173 b 326 -151 317 -168 322 -158 b 340 -132 331 -142 337 -134 b 370 -129 343 -131 357 -130 b 412 -119 388 -128 402 -125 b 433 -101 419 -116 428 -108 b 448 -69 438 -94 444 -80 b 462 -37 454 -56 459 -42 b 485 -3 465 -31 476 -16 b 534 69 496 9 518 43 b 577 149 551 98 570 133 b 603 194 584 164 595 183 b 618 217 609 202 617 213 b 622 241 619 221 621 232 b 629 266 624 250 627 260 b 639 277 631 270 635 275 b 662 281 644 279 654 281 b 706 289 670 281 690 285 b 763 294 731 296 734 297 b 808 294 787 291 794 291 b 842 302 818 297 832 301 b 869 298 852 303 861 302 b 901 277 874 296 889 287 b 935 256 913 267 927 257 b 965 254 944 253 956 252 b 989 262 971 255 983 258 b 1007 286 995 267 1003 276 b 1016 334 1015 299 1016 306 b 1010 380 1016 355 1013 372 b 996 405 1008 387 1002 398 b 967 422 987 414 980 419 b 934 426 956 426 944 427 b 907 418 926 425 914 421 b 889 404 901 414 892 408 b 868 371 885 400 876 386 b 845 340 861 357 850 344 b 817 328 841 336 828 331 b 759 324 801 322 792 321 b 702 319 726 326 719 325 b 677 312 693 315 681 312 b 666 318 673 312 669 315 b 659 336 661 321 659 330 b 667 366 659 342 662 356 b 682 394 669 375 677 388 b 708 416 688 400 699 410 b 731 442 716 422 727 433 b 741 471 736 449 740 463 b 736 514 743 483 740 496 b 732 548 731 534 730 543 b 762 569 734 552 746 561 b 795 582 776 577 792 582 b 811 575 801 582 807 580 b 824 552 814 571 820 561 b 837 529 828 544 833 532 b 851 519 842 525 847 520 b 869 512 854 516 863 513 b 898 512 877 511 890 511 b 923 522 906 514 918 519 b 939 543 928 526 934 534 b 944 574 942 550 944 563 b 937 606 944 588 943 597 b 909 629 931 616 925 621 b 869 642 894 637 883 641 "},"G":{"ha":861,"x_min":0,"x_max":0,"o":"m 510 858 b 546 850 523 857 535 855 b 570 828 556 844 565 837 b 583 797 575 819 581 806 b 586 758 585 790 586 772 b 579 725 585 744 582 731 b 566 707 576 719 570 712 b 544 696 561 703 551 698 b 510 694 535 694 523 694 b 456 714 495 696 483 700 b 414 731 437 722 418 731 b 380 719 410 731 394 725 b 348 703 365 714 351 706 b 345 666 342 697 342 695 b 348 617 348 648 349 627 b 339 569 347 606 343 585 b 323 520 335 556 329 532 b 300 477 319 507 308 488 b 287 447 289 460 286 453 b 297 438 289 443 293 440 b 316 438 302 436 310 436 b 335 446 321 440 331 444 b 345 473 341 452 343 458 b 352 501 347 485 350 498 b 365 512 354 505 359 509 b 394 516 372 517 380 518 b 428 512 404 514 419 513 b 447 518 440 510 443 511 b 453 536 449 521 453 530 b 462 556 455 543 458 551 b 489 575 468 561 479 569 b 526 602 498 581 515 592 b 563 630 535 611 552 624 l 608 660 b 669 694 628 675 646 684 l 719 710 b 761 719 728 713 747 717 b 814 736 780 722 796 728 b 855 749 833 745 842 749 b 879 745 863 749 874 747 b 890 736 882 744 888 740 b 899 712 894 731 897 720 b 906 691 901 702 904 694 b 940 683 909 687 920 684 b 976 676 960 682 969 681 b 991 661 981 673 987 666 b 998 630 995 656 997 646 b 993 594 999 611 998 606 b 975 568 989 586 981 575 b 953 529 969 561 959 544 b 931 494 945 514 936 500 b 913 483 926 490 919 485 b 879 477 907 481 893 479 b 847 469 865 474 851 471 b 828 455 844 468 835 461 b 797 442 818 445 812 444 b 772 435 786 440 776 438 b 751 419 769 433 759 426 b 720 402 742 410 730 405 l 678 389 b 622 371 663 385 637 377 b 549 358 597 363 589 361 b 488 349 507 357 503 356 b 462 337 480 344 469 339 b 432 337 456 336 445 336 b 406 337 419 341 411 341 b 394 326 400 335 394 331 b 389 298 392 321 390 309 b 380 261 388 289 383 272 b 368 202 376 252 371 225 l 355 131 b 344 90 352 116 347 96 b 326 60 341 82 334 69 b 312 34 319 52 313 40 b 312 19 310 28 310 22 b 320 10 313 16 318 12 b 334 10 324 7 330 7 b 354 26 338 11 347 19 b 373 44 359 34 369 43 b 394 52 378 46 388 51 b 426 49 402 53 414 52 b 460 34 435 45 451 40 b 490 23 469 30 481 24 b 511 26 498 22 506 23 b 529 47 516 28 524 38 b 544 71 533 57 540 67 b 571 84 547 75 559 81 b 597 101 591 90 594 92 b 593 132 602 112 602 114 b 583 169 586 147 583 157 b 591 191 583 179 585 185 b 614 203 594 195 604 200 b 636 212 624 206 633 209 b 642 246 640 216 642 224 b 647 285 642 269 643 276 b 669 304 651 292 659 298 b 709 311 682 310 689 311 b 753 306 726 311 742 309 b 783 288 766 302 777 295 b 799 263 790 281 796 271 b 802 234 801 255 802 242 b 795 213 801 227 797 217 b 770 193 792 208 781 199 b 747 169 760 185 750 176 b 740 141 744 163 742 151 b 732 114 738 131 734 119 b 720 98 731 109 725 102 b 698 89 715 94 706 90 b 679 81 691 88 681 84 b 668 66 674 80 669 73 b 665 36 666 60 665 46 b 658 4 665 24 662 13 b 640 -23 655 -3 646 -16 b 613 -68 632 -32 621 -52 b 582 -117 605 -86 594 -104 b 552 -157 572 -129 558 -147 b 506 -209 544 -173 531 -187 l 460 -246 b 416 -270 455 -250 435 -261 b 352 -292 388 -284 376 -288 b 304 -306 331 -294 317 -298 b 243 -315 286 -315 284 -315 b 190 -309 208 -315 198 -314 b 173 -295 183 -306 176 -300 b 165 -268 168 -290 166 -281 b 156 -241 164 -250 163 -246 b 130 -234 150 -236 144 -234 b 102 -231 121 -234 107 -233 b 80 -216 95 -230 85 -223 b 66 -193 72 -210 67 -198 b 63 -160 64 -186 63 -171 b 69 -124 63 -149 66 -133 b 83 -97 71 -116 79 -104 b 105 -79 89 -92 99 -82 b 156 -56 111 -75 134 -65 b 216 -41 182 -46 201 -42 b 251 -44 231 -40 240 -41 b 272 -58 258 -47 268 -54 b 283 -84 276 -63 281 -75 b 285 -116 285 -94 286 -106 b 273 -141 283 -124 280 -133 b 252 -157 268 -147 258 -155 b 235 -170 244 -160 238 -167 b 226 -200 233 -174 228 -188 b 212 -236 222 -217 218 -228 b 197 -258 206 -243 200 -253 b 196 -276 194 -267 194 -270 b 203 -285 198 -279 201 -284 b 216 -287 205 -286 211 -287 b 231 -284 220 -287 227 -286 l 250 -270 b 270 -257 256 -264 265 -258 b 295 -257 274 -256 285 -256 b 341 -260 305 -259 325 -260 b 394 -250 367 -260 372 -259 b 435 -229 407 -245 426 -235 b 486 -189 445 -222 469 -204 b 530 -141 506 -169 522 -153 b 559 -100 535 -131 549 -112 b 589 -54 572 -84 582 -70 b 614 -11 594 -40 606 -20 b 632 19 622 0 631 13 b 636 44 634 24 636 36 b 642 75 636 52 639 66 b 656 101 644 84 650 95 b 681 114 664 108 670 112 b 703 121 690 115 699 119 b 708 133 706 124 708 131 b 700 146 708 136 705 142 b 680 156 695 149 686 154 b 648 169 672 157 659 162 b 623 175 635 175 629 177 b 612 167 618 174 614 170 b 620 141 611 161 614 154 b 630 114 626 131 630 119 b 622 88 630 108 627 96 b 607 67 618 79 611 70 l 582 57 b 554 33 564 52 563 51 b 534 6 548 23 539 12 b 512 -4 529 1 519 -3 l 487 -7 b 454 -23 480 -8 466 -16 b 420 -40 442 -31 428 -38 b 399 -43 415 -41 406 -43 b 367 -35 393 -43 378 -39 b 324 -21 355 -31 335 -24 b 297 -11 314 -19 302 -14 b 284 5 293 -7 286 0 b 281 39 281 13 281 22 b 277 66 283 60 283 61 b 259 72 273 69 265 72 b 233 75 254 72 242 73 b 207 86 224 77 214 81 b 194 102 203 91 197 98 b 186 132 192 107 188 120 b 186 178 183 147 183 159 b 206 249 188 192 197 224 b 229 306 214 274 224 300 b 250 330 234 312 243 323 b 266 355 256 336 263 348 b 272 384 269 362 271 374 b 268 417 272 394 270 408 b 251 444 265 426 259 435 b 214 463 240 455 234 458 b 180 474 200 466 185 470 b 162 494 174 479 166 487 b 154 528 158 503 155 518 b 156 567 153 541 154 552 b 177 611 159 578 168 597 b 201 656 185 625 196 644 b 219 685 206 667 215 681 b 238 701 223 692 232 698 b 278 710 244 704 262 707 l 313 717 b 329 725 317 718 323 721 b 374 747 334 730 354 739 b 418 769 394 756 413 766 b 430 784 422 773 428 781 l 438 811 b 453 840 441 821 447 834 b 477 856 458 847 468 853 b 510 858 486 858 498 859 m 855 721 b 820 708 848 720 834 716 b 765 691 803 699 789 695 b 699 673 746 687 718 680 b 654 656 681 667 661 659 b 616 631 646 653 630 642 b 575 605 603 622 584 609 b 542 579 568 600 552 588 b 506 553 531 569 515 557 b 487 541 498 548 489 543 b 479 520 485 539 481 529 b 464 488 476 511 469 497 b 444 436 455 475 451 465 b 435 388 439 417 435 395 b 439 370 435 381 436 373 b 451 366 441 368 447 366 b 479 376 455 366 468 370 b 549 390 499 387 501 387 b 631 406 594 393 600 393 b 688 423 651 412 676 420 l 715 430 b 736 444 719 431 728 438 b 760 462 744 451 756 460 b 786 469 765 465 777 468 b 809 478 799 469 805 472 b 814 494 814 482 815 487 b 806 526 812 499 809 513 b 804 565 803 542 803 556 b 819 609 805 574 811 594 l 838 655 b 858 683 843 662 851 676 b 870 705 866 693 870 700 b 867 718 870 710 869 716 b 855 721 865 719 859 721 "},"g":{"ha":861,"x_min":0,"x_max":0,"o":"m 510 858 b 477 856 498 859 486 858 b 453 840 468 853 458 847 b 438 811 447 834 441 821 l 430 784 b 418 769 428 781 422 773 b 374 747 413 766 394 756 b 329 725 354 739 334 730 b 313 717 323 721 317 718 l 278 710 b 238 701 262 707 244 704 b 219 685 232 698 223 692 b 201 656 215 681 206 667 b 177 611 196 644 185 625 b 156 567 168 597 159 578 b 154 528 154 552 153 541 b 162 494 155 518 158 503 b 180 474 166 487 174 479 b 214 463 185 470 200 466 b 251 444 234 458 240 455 b 268 417 259 435 265 426 b 272 384 270 408 272 394 b 266 355 271 374 269 362 b 250 330 263 348 256 336 b 229 306 243 323 234 312 b 206 249 224 300 214 274 b 186 178 197 224 188 192 b 186 132 183 159 183 147 b 194 102 188 120 192 107 b 207 86 197 98 203 91 b 233 75 214 81 224 77 b 259 72 242 73 254 72 b 277 66 265 72 273 69 b 281 39 283 61 283 60 b 284 5 281 22 281 13 b 297 -11 286 0 293 -7 b 324 -21 302 -14 314 -19 b 367 -35 335 -24 355 -31 b 399 -43 378 -39 393 -43 b 420 -40 406 -43 415 -41 b 454 -23 428 -38 442 -31 b 487 -7 466 -16 480 -8 l 512 -4 b 534 6 519 -3 529 1 b 554 33 539 12 548 23 b 582 57 563 51 564 52 l 607 67 b 622 88 611 70 618 79 b 630 114 627 96 630 108 b 620 141 630 119 626 131 b 612 167 614 154 611 161 b 623 175 614 170 618 174 b 648 169 629 177 635 175 b 680 156 659 162 672 157 b 700 146 686 154 695 149 b 708 133 705 142 708 136 b 703 121 708 131 706 124 b 681 114 699 119 690 115 b 656 101 670 112 664 108 b 642 75 650 95 644 84 b 636 44 639 66 636 52 b 632 19 636 36 634 24 b 614 -11 631 13 622 0 b 589 -54 606 -20 594 -40 b 559 -100 582 -70 572 -84 b 530 -141 549 -112 535 -131 b 486 -189 522 -153 506 -169 b 435 -229 469 -204 445 -222 b 394 -250 426 -235 407 -245 b 341 -260 372 -259 367 -260 b 295 -257 325 -260 305 -259 b 270 -257 285 -256 274 -256 b 250 -270 265 -258 256 -264 l 231 -284 b 216 -287 227 -286 220 -287 b 203 -285 211 -287 205 -286 b 196 -276 201 -284 198 -279 b 197 -258 194 -270 194 -267 b 212 -236 200 -253 206 -243 b 226 -200 218 -228 222 -217 b 235 -170 228 -188 233 -174 b 252 -157 238 -167 244 -160 b 273 -141 258 -155 268 -147 b 285 -116 280 -133 283 -124 b 283 -84 286 -106 285 -94 b 272 -58 281 -75 276 -63 b 251 -44 268 -54 258 -47 b 216 -41 240 -41 231 -40 b 156 -56 201 -42 182 -46 b 105 -79 134 -65 111 -75 b 83 -97 99 -82 89 -92 b 69 -124 79 -104 71 -116 b 63 -160 66 -133 63 -149 b 66 -193 63 -171 64 -186 b 80 -216 67 -198 72 -210 b 102 -231 85 -223 95 -230 b 130 -234 107 -233 121 -234 b 156 -241 144 -234 150 -236 b 165 -268 163 -246 164 -250 b 173 -295 166 -281 168 -290 b 190 -309 176 -300 183 -306 b 243 -315 198 -314 208 -315 b 304 -306 284 -315 286 -315 b 352 -292 317 -298 331 -294 b 416 -270 376 -288 388 -284 b 460 -246 435 -261 455 -250 l 506 -209 b 552 -157 531 -187 544 -173 b 582 -117 558 -147 572 -129 b 613 -68 594 -104 605 -86 b 640 -23 621 -52 632 -32 b 658 4 646 -16 655 -3 b 665 36 662 13 665 24 b 668 66 665 46 666 60 b 679 81 669 73 674 80 b 698 89 681 84 691 88 b 720 98 706 90 715 94 b 732 114 725 102 731 109 b 740 141 734 119 738 131 b 747 169 742 151 744 163 b 770 193 750 176 760 185 b 795 213 781 199 792 208 b 802 234 797 217 801 227 b 799 263 802 242 801 255 b 783 288 796 271 790 281 b 753 306 777 295 766 302 b 709 311 742 309 726 311 b 669 304 689 311 682 310 b 647 285 659 298 651 292 b 642 246 643 276 642 269 b 636 212 642 224 640 216 b 614 203 633 209 624 206 b 591 191 604 200 594 195 b 583 169 585 185 583 179 b 593 132 583 157 586 147 b 597 101 602 114 602 112 b 571 84 594 92 591 90 b 544 71 559 81 547 75 b 529 47 540 67 533 57 b 511 26 524 38 516 28 b 490 23 506 23 498 22 b 460 34 481 24 469 30 b 426 49 451 40 435 45 b 394 52 414 52 402 53 b 373 44 388 51 378 46 b 354 26 369 43 359 34 b 334 10 347 19 338 11 b 320 10 330 7 324 7 b 312 19 318 12 313 16 b 312 34 310 22 310 28 b 326 60 313 40 319 52 b 344 90 334 69 341 82 b 355 131 347 96 352 116 l 368 202 b 380 261 371 225 376 252 b 389 298 383 272 388 289 b 394 326 390 309 392 321 b 406 337 394 331 400 335 b 432 337 411 341 419 341 b 462 337 445 336 456 336 b 488 349 469 339 480 344 b 549 358 503 356 507 357 b 622 371 589 361 597 363 b 678 389 637 377 663 385 l 720 402 b 751 419 730 405 742 410 b 772 435 759 426 769 433 b 797 442 776 438 786 440 b 828 455 812 444 818 445 b 847 469 835 461 844 468 b 879 477 851 471 865 474 b 913 483 893 479 907 481 b 931 494 919 485 926 490 b 953 529 936 500 945 514 b 975 568 959 544 969 561 b 993 594 981 575 989 586 b 998 630 998 606 999 611 b 991 661 997 646 995 656 b 976 676 987 666 981 673 b 940 683 969 681 960 682 b 906 691 920 684 909 687 b 899 712 904 694 901 702 b 890 736 897 720 894 731 b 879 745 888 740 882 744 b 855 749 874 747 863 749 b 814 736 842 749 833 745 b 761 719 796 728 780 722 b 719 710 747 717 728 713 l 669 694 b 608 660 646 684 628 675 l 563 630 b 526 602 552 624 535 611 b 489 575 515 592 498 581 b 462 556 479 569 468 561 b 453 536 458 551 455 543 b 447 518 453 530 449 521 b 428 512 443 511 440 510 b 394 516 419 513 404 514 b 365 512 380 518 372 517 b 352 501 359 509 354 505 b 345 473 350 498 347 485 b 335 446 343 458 341 452 b 316 438 331 444 321 440 b 297 438 310 436 302 436 b 287 447 293 440 289 443 b 300 477 286 453 289 460 b 323 520 308 488 319 507 b 339 569 329 532 335 556 b 348 617 343 585 347 606 b 345 666 349 627 348 648 b 348 703 342 695 342 697 b 380 719 351 706 365 714 b 414 731 394 725 410 731 b 456 714 418 731 437 722 b 510 694 483 700 495 696 b 544 696 523 694 535 694 b 566 707 551 698 561 703 b 579 725 570 712 576 719 b 586 758 582 731 585 744 b 583 797 586 772 585 790 b 570 828 581 806 575 819 b 546 850 565 837 556 844 b 510 858 535 855 523 857 m 855 721 b 867 718 859 721 865 719 b 870 705 869 716 870 710 b 858 683 870 700 866 693 b 838 655 851 676 843 662 l 819 609 b 804 565 811 594 805 574 b 806 526 803 556 803 542 b 814 494 809 513 812 499 b 809 478 815 487 814 482 b 786 469 805 472 799 469 b 760 462 777 468 765 465 b 736 444 756 460 744 451 b 715 430 728 438 719 431 l 688 423 b 631 406 676 420 651 412 b 549 390 600 393 594 393 b 479 376 501 387 499 387 b 451 366 468 370 455 366 b 439 370 447 366 441 368 b 435 388 436 373 435 381 b 444 436 435 395 439 417 b 464 488 451 465 455 475 b 479 520 469 497 476 511 b 487 541 481 529 485 539 b 506 553 489 543 498 548 b 542 579 515 557 531 569 b 575 605 552 588 568 600 b 616 631 584 609 603 622 b 654 656 630 642 646 653 b 699 673 661 659 681 667 b 765 691 718 680 746 687 b 820 708 789 695 803 699 b 855 721 834 716 848 720 "},"H":{"ha":1081,"x_min":0,"x_max":0,"o":"m 1135 769 b 1169 764 1144 769 1159 767 b 1195 751 1178 762 1190 756 b 1213 730 1201 745 1209 737 b 1220 701 1216 724 1219 710 b 1221 667 1222 691 1222 676 b 1211 638 1220 658 1216 644 b 1189 619 1206 629 1199 623 b 1152 611 1177 612 1169 611 b 1100 620 1136 611 1122 613 b 1062 627 1077 628 1069 630 b 1045 606 1056 625 1052 619 b 1028 578 1041 595 1033 582 b 1002 556 1023 571 1012 563 b 982 541 993 550 983 543 b 981 510 981 538 981 524 b 974 475 981 490 980 483 b 959 462 970 469 964 464 b 938 460 954 460 944 459 l 913 464 b 897 457 901 466 900 465 b 906 428 893 451 894 448 b 927 397 913 415 923 402 b 938 391 931 394 936 391 b 958 403 941 391 949 396 b 997 418 973 413 978 415 b 1042 431 1012 420 1027 424 b 1085 462 1059 438 1070 446 b 1119 485 1101 477 1109 483 b 1148 487 1127 487 1140 488 b 1175 481 1156 487 1169 483 b 1194 465 1181 476 1191 469 b 1205 443 1197 460 1203 449 b 1209 406 1207 434 1209 418 b 1206 373 1209 394 1208 379 b 1196 352 1204 367 1200 357 b 1175 335 1193 346 1182 339 b 1141 330 1164 330 1158 329 b 1090 346 1124 331 1116 333 b 1033 376 1073 354 1047 368 b 1000 391 1019 384 1004 391 b 985 387 995 391 989 390 b 964 372 981 386 973 379 b 932 356 956 367 942 359 b 902 351 924 355 910 352 b 881 344 894 350 884 346 b 876 329 878 340 876 333 b 871 307 876 323 873 313 b 861 291 869 301 865 294 b 843 285 856 287 848 285 b 819 289 837 285 827 287 b 799 294 812 292 803 294 b 788 288 794 294 790 291 b 792 260 786 282 786 277 b 794 229 798 243 799 239 b 780 208 793 219 787 214 l 757 195 b 744 182 753 193 746 188 b 735 150 741 179 737 165 b 727 112 734 135 731 119 b 704 86 723 104 713 94 b 682 66 695 80 685 71 b 675 45 679 62 676 53 b 677 23 674 39 675 29 b 686 9 679 18 683 12 b 701 6 690 7 695 6 b 726 16 705 6 716 10 b 764 27 736 20 753 25 b 787 34 774 29 785 31 b 792 47 790 35 792 42 b 784 71 792 53 788 63 b 771 103 781 79 774 94 b 768 140 768 115 767 126 b 777 172 769 156 771 163 b 798 190 781 179 791 187 b 831 199 805 194 820 197 b 899 202 844 200 874 202 b 957 197 936 202 947 202 b 977 185 964 195 973 190 b 990 169 981 182 986 175 b 998 142 994 162 997 151 b 994 109 999 131 998 120 b 979 81 991 98 985 87 b 947 63 969 72 962 67 b 901 55 937 59 916 56 l 855 49 b 828 38 840 47 835 45 l 807 17 b 775 1 798 6 794 4 b 735 -11 764 -1 746 -6 b 701 -19 722 -17 711 -19 b 675 -15 693 -19 681 -18 b 656 1 669 -13 660 -5 b 647 30 651 8 648 18 b 650 64 646 42 647 53 b 676 97 655 78 658 82 b 701 122 687 106 697 119 b 707 156 703 126 706 142 b 715 191 709 169 712 184 b 730 209 717 196 724 204 b 752 222 735 213 745 219 b 766 236 759 227 765 231 b 763 259 767 240 766 251 b 757 285 760 268 757 279 b 765 306 757 291 761 299 b 783 319 769 311 776 317 b 813 319 794 323 796 323 b 837 315 822 316 833 314 b 844 325 841 315 843 319 b 837 346 844 331 842 338 b 824 372 831 352 826 364 b 814 393 821 381 818 390 b 804 396 811 394 807 396 b 794 390 801 396 795 394 b 785 369 791 386 787 377 b 772 348 783 360 779 353 b 752 339 768 344 759 340 b 722 340 746 337 732 338 b 693 340 707 344 699 344 b 679 330 688 338 681 333 b 672 309 676 325 673 316 b 664 287 671 304 668 293 l 641 253 b 607 208 631 240 617 219 b 574 152 598 195 582 170 b 545 107 561 126 554 115 b 520 96 539 103 529 97 b 489 92 514 94 499 92 b 462 85 477 90 465 87 b 443 69 458 84 450 77 b 413 46 436 61 422 52 b 381 27 404 42 391 33 l 354 10 b 329 1 346 6 336 3 l 291 -6 b 241 -17 278 -6 256 -12 l 205 -27 b 181 -25 200 -29 188 -27 b 157 -12 170 -23 163 -19 b 147 18 148 -3 147 0 b 140 42 147 34 146 37 b 116 48 133 46 127 48 b 87 52 107 48 94 49 b 63 65 79 54 69 58 b 47 88 56 70 50 81 b 43 125 44 96 43 112 b 51 163 43 144 44 151 b 79 189 57 177 62 181 l 96 197 l 155 197 b 229 191 210 197 216 197 b 251 171 240 185 246 180 b 261 149 256 164 259 155 b 261 126 262 144 262 133 b 250 104 260 119 256 109 b 228 88 246 99 237 92 b 207 74 220 84 211 78 b 188 46 204 71 195 58 b 176 19 181 35 176 22 b 181 6 176 14 178 7 b 197 1 183 3 190 1 b 234 9 203 1 220 5 b 291 23 247 15 274 20 b 334 31 308 25 327 29 b 374 55 340 34 358 44 b 414 79 391 65 407 76 b 425 92 419 81 423 86 b 423 125 426 96 425 112 b 424 168 420 148 420 154 b 448 203 429 179 434 189 b 473 235 458 214 469 229 b 499 267 477 242 489 256 b 523 296 510 277 520 291 b 531 327 527 302 531 316 b 526 350 532 344 531 346 b 510 352 519 354 517 354 b 492 336 505 350 496 344 b 469 317 485 330 476 320 b 427 311 460 312 453 311 b 381 306 409 311 391 309 b 357 294 373 305 362 298 b 332 260 354 290 342 274 b 300 227 319 240 310 232 b 261 218 287 219 282 218 b 221 227 239 218 234 219 b 202 242 213 231 205 238 b 190 265 199 246 194 256 b 184 304 186 275 184 287 b 189 339 184 319 185 331 b 201 357 192 346 198 354 b 217 369 205 362 212 367 b 245 373 222 371 234 373 b 283 365 262 373 269 372 l 325 344 b 357 331 338 337 353 331 b 386 336 362 331 376 333 b 424 338 399 338 415 339 b 449 339 434 337 444 337 b 477 359 454 340 466 349 b 513 381 494 376 497 379 b 553 387 522 383 540 386 b 580 394 566 389 577 392 b 593 413 582 396 588 405 b 612 442 596 421 606 433 b 629 464 619 448 626 459 l 638 487 b 649 510 641 495 646 506 b 670 523 653 514 662 520 b 692 533 678 525 688 531 b 698 549 695 538 698 544 b 694 564 698 554 696 561 b 665 569 691 569 686 569 b 629 581 641 569 640 569 b 609 604 623 585 614 596 l 586 639 b 565 670 577 651 568 666 b 552 682 561 677 556 681 b 521 670 546 683 538 681 b 483 658 503 660 496 658 b 446 665 475 658 458 661 b 411 671 435 669 419 671 b 386 668 402 671 393 669 b 376 662 382 667 378 664 b 374 650 375 660 374 655 b 380 619 374 646 377 632 b 384 583 384 604 385 592 b 373 548 382 576 378 560 l 357 514 b 338 487 355 507 344 494 b 323 467 330 480 323 469 b 324 456 323 464 323 457 b 330 447 324 453 327 450 b 344 445 333 445 339 444 b 368 457 347 446 359 452 l 384 469 l 412 467 b 441 470 436 465 439 465 b 444 498 443 473 444 486 b 454 533 444 518 445 521 b 487 567 458 541 474 555 b 524 592 500 578 517 588 b 554 600 532 596 545 599 b 578 598 562 601 572 600 b 606 574 582 596 595 585 b 628 544 617 563 626 550 b 628 520 630 537 630 529 b 618 491 626 513 621 500 b 604 466 614 482 607 470 b 587 451 599 460 592 454 b 560 447 581 449 570 447 b 532 453 548 447 539 449 b 509 472 527 456 516 465 b 490 485 501 480 493 485 b 478 481 485 485 481 483 b 470 462 475 480 471 471 b 460 441 469 450 465 444 b 432 436 454 435 450 434 b 401 440 421 437 406 440 b 375 430 394 440 385 436 b 351 419 367 425 356 420 b 328 419 344 418 334 418 b 306 431 321 420 313 425 b 295 457 299 438 296 444 b 290 480 294 467 291 477 b 281 487 289 482 284 486 b 252 491 277 490 264 491 b 221 498 237 491 230 493 b 205 519 216 502 207 510 b 197 546 200 527 197 537 b 202 576 197 554 199 568 b 227 621 205 584 216 604 b 259 661 239 639 254 656 b 281 674 264 665 275 670 b 323 683 286 676 306 681 b 367 693 341 686 360 690 b 399 698 373 694 387 696 b 440 719 419 701 421 702 b 473 740 454 731 463 737 b 502 740 482 742 491 742 b 544 721 511 738 530 729 b 575 702 558 713 572 704 b 591 681 578 699 585 690 b 609 655 596 671 605 660 b 630 623 614 648 623 634 b 650 598 637 610 645 601 b 667 598 656 596 659 596 b 687 609 671 600 680 605 b 724 629 694 615 710 623 b 766 646 738 634 756 642 b 800 657 774 650 790 656 b 825 662 810 658 821 660 b 833 675 828 664 832 669 b 841 697 835 681 839 690 b 850 718 843 704 846 713 b 869 731 854 721 863 728 b 912 738 881 737 888 738 b 955 731 937 738 944 737 b 973 719 961 728 969 722 b 986 697 977 715 983 705 b 995 661 991 687 994 674 b 994 628 996 650 995 635 b 981 606 991 621 985 611 b 961 592 977 602 968 595 b 931 586 955 588 944 586 b 905 590 922 586 910 588 l 888 601 b 871 606 883 604 877 606 b 860 601 866 606 862 605 b 858 578 858 598 857 587 b 853 550 860 563 859 559 b 825 531 848 544 839 537 b 798 513 813 526 802 518 b 784 487 794 509 788 496 b 767 459 781 476 773 466 b 743 437 761 453 750 444 b 727 414 734 431 729 423 b 722 389 724 407 723 395 b 728 370 722 380 724 374 b 742 365 731 367 736 365 b 754 369 744 365 750 367 b 764 390 756 372 762 382 b 774 412 766 398 770 408 b 793 423 779 416 787 421 b 825 426 800 425 814 426 b 853 431 837 426 848 428 b 864 443 858 433 863 438 b 867 462 865 445 867 454 b 873 481 868 469 871 479 b 889 491 876 485 883 489 b 920 490 899 494 906 494 b 946 490 938 486 941 486 b 950 516 952 494 954 496 b 954 548 949 532 950 541 b 973 569 956 555 964 563 b 1001 590 981 573 994 583 b 1019 617 1009 597 1016 606 b 1040 644 1023 626 1030 637 b 1057 665 1046 652 1056 661 b 1064 697 1059 669 1062 683 b 1073 735 1066 712 1070 728 b 1086 754 1076 742 1081 749 b 1106 764 1091 757 1099 762 b 1135 769 1113 767 1125 769 "},"h":{"ha":1081,"x_min":0,"x_max":0,"o":"m 1135 769 b 1106 764 1125 769 1113 767 b 1086 754 1099 762 1091 757 b 1073 735 1081 749 1076 742 b 1064 697 1070 728 1066 712 b 1057 665 1062 683 1059 669 b 1040 644 1056 661 1046 652 b 1019 617 1030 637 1023 626 b 1001 590 1016 606 1009 597 b 973 569 994 583 981 573 b 954 548 964 563 956 555 b 950 516 950 541 949 532 b 946 490 954 496 952 494 b 920 490 941 486 938 486 b 889 491 906 494 899 494 b 873 481 883 489 876 485 b 867 462 871 479 868 469 b 864 443 867 454 865 445 b 853 431 863 438 858 433 b 825 426 848 428 837 426 b 793 423 814 426 800 425 b 774 412 787 421 779 416 b 764 390 770 408 766 398 b 754 369 762 382 756 372 b 742 365 750 367 744 365 b 728 370 736 365 731 367 b 722 389 724 374 722 380 b 727 414 723 395 724 407 b 743 437 729 423 734 431 b 767 459 750 444 761 453 b 784 487 773 466 781 476 b 798 513 788 496 794 509 b 825 531 802 518 813 526 b 853 550 839 537 848 544 b 858 578 859 559 860 563 b 860 601 857 587 858 598 b 871 606 862 605 866 606 b 888 601 877 606 883 604 l 905 590 b 931 586 910 588 922 586 b 961 592 944 586 955 588 b 981 606 968 595 977 602 b 994 628 985 611 991 621 b 995 661 995 635 996 650 b 986 697 994 674 991 687 b 973 719 983 705 977 715 b 955 731 969 722 961 728 b 912 738 944 737 937 738 b 869 731 888 738 881 737 b 850 718 863 728 854 721 b 841 697 846 713 843 704 b 833 675 839 690 835 681 b 825 662 832 669 828 664 b 800 657 821 660 810 658 b 766 646 790 656 774 650 b 724 629 756 642 738 634 b 687 609 710 623 694 615 b 667 598 680 605 671 600 b 650 598 659 596 656 596 b 630 623 645 601 637 610 b 609 655 623 634 614 648 b 591 681 605 660 596 671 b 575 702 585 690 578 699 b 544 721 572 704 558 713 b 502 740 530 729 511 738 b 473 740 491 742 482 742 b 440 719 463 737 454 731 b 399 698 421 702 419 701 b 367 693 387 696 373 694 b 323 683 360 690 341 686 b 281 674 306 681 286 676 b 259 661 275 670 264 665 b 227 621 254 656 239 639 b 202 576 216 604 205 584 b 197 546 199 568 197 554 b 205 519 197 537 200 527 b 221 498 207 510 216 502 b 252 491 230 493 237 491 b 281 487 264 491 277 490 b 290 480 284 486 289 482 b 295 457 291 477 294 467 b 306 431 296 444 299 438 b 328 419 313 425 321 420 b 351 419 334 418 344 418 b 375 430 356 420 367 425 b 401 440 385 436 394 440 b 432 436 406 440 421 437 b 460 441 450 434 454 435 b 470 462 465 444 469 450 b 478 481 471 471 475 480 b 490 485 481 483 485 485 b 509 472 493 485 501 480 b 532 453 516 465 527 456 b 560 447 539 449 548 447 b 587 451 570 447 581 449 b 604 466 592 454 599 460 b 618 491 607 470 614 482 b 628 520 621 500 626 513 b 628 544 630 529 630 537 b 606 574 626 550 617 563 b 578 598 595 585 582 596 b 554 600 572 600 562 601 b 524 592 545 599 532 596 b 487 567 517 588 500 578 b 454 533 474 555 458 541 b 444 498 445 521 444 518 b 441 470 444 486 443 473 b 412 467 439 465 436 465 l 384 469 l 368 457 b 344 445 359 452 347 446 b 330 447 339 444 333 445 b 324 456 327 450 324 453 b 323 467 323 457 323 464 b 338 487 323 469 330 480 b 357 514 344 494 355 507 l 373 548 b 384 583 378 560 382 576 b 380 619 385 592 384 604 b 374 650 377 632 374 646 b 376 662 374 655 375 660 b 386 668 378 664 382 667 b 411 671 393 669 402 671 b 446 665 419 671 435 669 b 483 658 458 661 475 658 b 521 670 496 658 503 660 b 552 682 538 681 546 683 b 565 670 556 681 561 677 b 586 639 568 666 577 651 l 609 604 b 629 581 614 596 623 585 b 665 569 640 569 641 569 b 694 564 686 569 691 569 b 698 549 696 561 698 554 b 692 533 698 544 695 538 b 670 523 688 531 678 525 b 649 510 662 520 653 514 b 638 487 646 506 641 495 l 629 464 b 612 442 626 459 619 448 b 593 413 606 433 596 421 b 580 394 588 405 582 396 b 553 387 577 392 566 389 b 513 381 540 386 522 383 b 477 359 497 379 494 376 b 449 339 466 349 454 340 b 424 338 444 337 434 337 b 386 336 415 339 399 338 b 357 331 376 333 362 331 b 325 344 353 331 338 337 l 283 365 b 245 373 269 372 262 373 b 217 369 234 373 222 371 b 201 357 212 367 205 362 b 189 339 198 354 192 346 b 184 304 185 331 184 319 b 190 265 184 287 186 275 b 202 242 194 256 199 246 b 221 227 205 238 213 231 b 261 218 234 219 239 218 b 300 227 282 218 287 219 b 332 260 310 232 319 240 b 357 294 342 274 354 290 b 381 306 362 298 373 305 b 427 311 391 309 409 311 b 469 317 453 311 460 312 b 492 336 476 320 485 330 b 510 352 496 344 505 350 b 526 350 517 354 519 354 b 531 327 531 346 532 344 b 523 296 531 316 527 302 b 499 267 520 291 510 277 b 473 235 489 256 477 242 b 448 203 469 229 458 214 b 424 168 434 189 429 179 b 423 125 420 154 420 148 b 425 92 425 112 426 96 b 414 79 423 86 419 81 b 374 55 407 76 391 65 b 334 31 358 44 340 34 b 291 23 327 29 308 25 b 234 9 274 20 247 15 b 197 1 220 5 203 1 b 181 6 190 1 183 3 b 176 19 178 7 176 14 b 188 46 176 22 181 35 b 207 74 195 58 204 71 b 228 88 211 78 220 84 b 250 104 237 92 246 99 b 261 126 256 109 260 119 b 261 149 262 133 262 144 b 251 171 259 155 256 164 b 229 191 246 180 240 185 b 155 197 216 197 210 197 l 96 197 l 79 189 b 51 163 62 181 57 177 b 43 125 44 151 43 144 b 47 88 43 112 44 96 b 63 65 50 81 56 70 b 87 52 69 58 79 54 b 116 48 94 49 107 48 b 140 42 127 48 133 46 b 147 18 146 37 147 34 b 157 -12 147 0 148 -3 b 181 -25 163 -19 170 -23 b 205 -27 188 -27 200 -29 l 241 -17 b 291 -6 256 -12 278 -6 l 329 1 b 354 10 336 3 346 6 l 381 27 b 413 46 391 33 404 42 b 443 69 422 52 436 61 b 462 85 450 77 458 84 b 489 92 465 87 477 90 b 520 96 499 92 514 94 b 545 107 529 97 539 103 b 574 152 554 115 561 126 b 607 208 582 170 598 195 b 641 253 617 219 631 240 l 664 287 b 672 309 668 293 671 304 b 679 330 673 316 676 325 b 693 340 681 333 688 338 b 722 340 699 344 707 344 b 752 339 732 338 746 337 b 772 348 759 340 768 344 b 785 369 779 353 783 360 b 794 390 787 377 791 386 b 804 396 795 394 801 396 b 814 393 807 396 811 394 b 824 372 818 390 821 381 b 837 346 826 364 831 352 b 844 325 842 338 844 331 b 837 315 843 319 841 315 b 813 319 833 314 822 316 b 783 319 796 323 794 323 b 765 306 776 317 769 311 b 757 285 761 299 757 291 b 763 259 757 279 760 268 b 766 236 766 251 767 240 b 752 222 765 231 759 227 b 730 209 745 219 735 213 b 715 191 724 204 717 196 b 707 156 712 184 709 169 b 701 122 706 142 703 126 b 676 97 697 119 687 106 b 650 64 658 82 655 78 b 647 30 647 53 646 42 b 656 1 648 18 651 8 b 675 -15 660 -5 669 -13 b 701 -19 681 -18 693 -19 b 735 -11 711 -19 722 -17 b 775 1 746 -6 764 -1 b 807 17 794 4 798 6 l 828 38 b 855 49 835 45 840 47 l 901 55 b 947 63 916 56 937 59 b 979 81 962 67 969 72 b 994 109 985 87 991 98 b 998 142 998 120 999 131 b 990 169 997 151 994 162 b 977 185 986 175 981 182 b 957 197 973 190 964 195 b 899 202 947 202 936 202 b 831 199 874 202 844 200 b 798 190 820 197 805 194 b 777 172 791 187 781 179 b 768 140 771 163 769 156 b 771 103 767 126 768 115 b 784 71 774 94 781 79 b 792 47 788 63 792 53 b 787 34 792 42 790 35 b 764 27 785 31 774 29 b 726 16 753 25 736 20 b 701 6 716 10 705 6 b 686 9 695 6 690 7 b 677 23 683 12 679 18 b 675 45 675 29 674 39 b 682 66 676 53 679 62 b 704 86 685 71 695 80 b 727 112 713 94 723 104 b 735 150 731 119 734 135 b 744 182 737 165 741 179 b 757 195 746 188 753 193 l 780 208 b 794 229 787 214 793 219 b 792 260 799 239 798 243 b 788 288 786 277 786 282 b 799 294 790 291 794 294 b 819 289 803 294 812 292 b 843 285 827 287 837 285 b 861 291 848 285 856 287 b 871 307 865 294 869 301 b 876 329 873 313 876 323 b 881 344 876 333 878 340 b 902 351 884 346 894 350 b 932 356 910 352 924 355 b 964 372 942 359 956 367 b 985 387 973 379 981 386 b 1000 391 989 390 995 391 b 1033 376 1004 391 1019 384 b 1090 346 1047 368 1073 354 b 1141 330 1116 333 1124 331 b 1175 335 1158 329 1164 330 b 1196 352 1182 339 1193 346 b 1206 373 1200 357 1204 367 b 1209 406 1208 379 1209 394 b 1205 443 1209 418 1207 434 b 1194 465 1203 449 1197 460 b 1175 481 1191 469 1181 476 b 1148 487 1169 483 1156 487 b 1119 485 1140 488 1127 487 b 1085 462 1109 483 1101 477 b 1042 431 1070 446 1059 438 b 997 418 1027 424 1012 420 b 958 403 978 415 973 413 b 938 391 949 396 941 391 b 927 397 936 391 931 394 b 906 428 923 402 913 415 b 897 457 894 448 893 451 b 913 464 900 465 901 466 l 938 460 b 959 462 944 459 954 460 b 974 475 964 464 970 469 b 981 510 980 483 981 490 b 982 541 981 524 981 538 b 1002 556 983 543 993 550 b 1028 578 1012 563 1023 571 b 1045 606 1033 582 1041 595 b 1062 627 1052 619 1056 625 b 1100 620 1069 630 1077 628 b 1152 611 1122 613 1136 611 b 1189 619 1169 611 1177 612 b 1211 638 1199 623 1206 629 b 1221 667 1216 644 1220 658 b 1220 701 1222 676 1222 691 b 1213 730 1219 710 1216 724 b 1195 751 1209 737 1201 745 b 1169 764 1190 756 1178 762 b 1135 769 1159 767 1144 769 "},"I":{"ha":800,"x_min":0,"x_max":0,"o":"m 1007 765 b 1031 752 1015 763 1024 757 b 1044 732 1035 746 1042 738 b 1051 703 1047 726 1050 713 b 1047 667 1052 689 1051 679 b 1036 642 1045 657 1039 646 b 1017 627 1032 637 1023 631 b 974 620 1006 621 998 620 b 936 615 948 621 943 620 b 924 596 931 611 926 604 b 919 576 923 589 920 580 b 898 544 917 570 907 557 b 854 469 890 530 869 496 b 805 394 838 444 817 408 b 771 336 794 378 779 353 b 742 281 764 320 750 296 b 706 230 734 269 718 245 b 672 172 690 209 681 194 b 648 131 664 151 658 139 b 624 114 642 122 631 116 b 592 111 618 112 603 111 b 562 106 581 111 568 109 b 546 94 556 104 549 98 b 532 76 544 88 537 81 b 505 60 529 72 516 64 b 465 40 493 56 475 46 l 431 20 b 400 9 423 17 409 12 b 369 -4 392 7 377 1 b 341 -21 360 -10 348 -18 b 310 -29 332 -25 321 -29 b 265 -16 296 -29 288 -25 b 226 -1 250 -9 232 -3 b 206 6 220 0 212 3 b 193 19 202 7 195 14 b 186 51 188 27 186 35 b 181 80 186 67 185 75 b 147 88 176 85 171 86 b 114 94 132 90 118 93 b 100 106 110 96 104 101 b 88 125 95 111 90 119 b 84 156 86 131 84 144 b 90 194 84 169 87 183 l 110 239 b 139 278 120 256 130 270 b 164 294 145 285 157 292 b 202 300 171 295 187 298 b 242 309 216 302 234 306 b 277 319 251 313 266 317 b 302 329 290 319 298 324 b 318 356 306 332 313 345 b 335 387 322 371 330 382 b 357 398 340 391 350 396 b 389 401 365 401 379 401 b 419 393 399 399 413 395 b 437 380 427 389 434 384 b 450 359 440 377 446 369 b 456 317 455 347 456 338 b 448 272 456 294 455 287 b 431 249 444 262 436 253 b 412 239 427 246 418 241 b 391 236 406 237 396 236 b 362 241 384 236 371 238 b 331 253 353 243 339 249 b 299 274 323 256 309 267 b 271 288 285 284 279 288 b 257 280 262 288 260 286 b 262 242 256 274 256 265 b 269 197 269 220 270 209 b 255 144 268 189 261 164 b 237 95 248 122 241 101 b 224 74 234 90 229 80 b 215 52 219 69 216 58 b 219 33 214 42 215 37 b 235 28 221 30 229 28 b 264 42 243 28 251 31 b 295 58 274 48 289 56 b 321 60 302 60 314 61 b 359 47 330 59 346 54 b 390 37 373 42 387 37 b 408 41 393 37 401 39 b 446 61 415 44 432 53 b 491 84 459 70 479 81 b 517 100 503 90 513 96 b 521 135 523 107 524 111 b 520 176 520 150 519 168 b 525 202 520 183 523 195 b 550 231 528 209 537 220 b 582 275 567 247 572 254 b 611 328 589 290 602 313 b 647 387 620 343 637 369 l 682 450 l 709 496 b 738 531 716 508 726 521 b 763 557 748 539 759 550 b 770 579 767 563 770 572 b 767 593 770 584 769 591 b 755 597 764 595 759 597 b 731 590 750 597 740 594 b 705 587 719 585 716 584 b 685 601 699 589 690 595 b 667 630 681 606 672 619 b 638 667 660 644 651 656 b 614 699 622 680 619 685 b 604 721 611 707 606 718 b 585 726 599 724 592 726 b 561 719 580 726 569 723 b 523 713 551 715 543 713 b 482 708 508 713 490 710 b 450 704 473 706 459 704 b 428 698 437 704 432 702 b 420 687 424 694 420 690 b 428 664 420 685 425 675 b 434 624 431 652 434 637 b 425 581 434 609 432 599 l 408 544 b 389 516 406 537 395 524 b 375 492 379 506 375 499 b 378 477 375 486 376 481 b 392 473 380 475 386 473 b 419 484 398 473 407 477 b 460 494 433 494 436 494 b 491 500 482 494 487 494 b 496 527 493 503 495 515 b 506 561 497 539 502 554 b 532 594 508 568 521 582 b 570 622 544 606 561 619 b 603 632 580 627 594 631 b 631 629 615 634 622 632 b 657 605 639 625 647 618 l 677 576 b 681 546 680 569 681 558 b 678 515 681 537 681 522 b 667 493 677 508 670 498 b 648 479 662 488 654 481 b 619 473 643 475 631 473 b 590 479 606 473 595 475 b 565 496 585 481 573 489 b 541 511 554 507 547 511 b 527 508 535 511 529 510 b 519 490 525 507 521 500 b 506 469 516 482 511 472 b 472 466 503 467 492 466 b 423 455 446 466 443 465 b 391 444 410 448 397 444 b 369 449 385 444 375 446 b 353 462 363 452 356 457 b 345 488 350 467 346 479 b 338 512 344 499 341 509 b 317 518 335 516 330 518 b 287 521 307 518 294 519 b 268 531 280 522 271 527 b 257 543 263 533 258 540 b 252 562 256 545 253 554 b 252 592 250 570 250 583 b 272 642 254 601 262 623 b 300 689 281 661 294 682 b 323 706 306 696 317 704 b 372 719 331 710 353 716 b 419 728 392 722 413 727 b 444 731 424 730 435 731 b 472 736 451 731 465 734 b 504 751 481 739 494 744 b 531 761 512 756 524 760 b 574 758 537 762 557 760 b 615 748 592 756 610 751 b 629 737 620 745 626 741 b 639 714 631 733 635 723 b 662 682 644 702 648 695 b 688 648 676 671 682 662 b 704 622 693 638 700 626 b 717 616 706 619 712 616 b 731 621 719 616 727 618 b 751 642 737 624 745 632 b 770 663 756 649 766 659 b 805 675 778 667 793 673 b 835 684 818 678 830 681 b 851 707 838 686 845 697 b 867 734 856 719 863 730 b 884 746 871 738 879 744 b 919 759 891 749 906 756 b 958 768 931 763 950 767 b 984 769 969 769 980 770 "},"i":{"ha":800,"x_min":0,"x_max":0,"o":"m 984 769 b 958 768 980 770 969 769 b 919 759 950 767 931 763 b 884 746 906 756 891 749 b 867 734 879 744 871 738 b 851 707 863 730 856 719 b 835 684 845 697 838 686 b 805 675 830 681 818 678 b 770 663 793 673 778 667 b 751 642 766 659 756 649 b 731 621 745 632 737 624 b 717 616 727 618 719 616 b 704 622 712 616 706 619 b 688 648 700 626 693 638 b 662 682 682 662 676 671 b 639 714 648 695 644 702 b 629 737 635 723 631 733 b 615 748 626 741 620 745 b 574 758 610 751 592 756 b 531 761 557 760 537 762 b 504 751 524 760 512 756 b 472 736 494 744 481 739 b 444 731 465 734 451 731 b 419 728 435 731 424 730 b 372 719 413 727 392 722 b 323 706 353 716 331 710 b 300 689 317 704 306 696 b 272 642 294 682 281 661 b 252 592 262 623 254 601 b 252 562 250 583 250 570 b 257 543 253 554 256 545 b 268 531 258 540 263 533 b 287 521 271 527 280 522 b 317 518 294 519 307 518 b 338 512 330 518 335 516 b 345 488 341 509 344 499 b 353 462 346 479 350 467 b 369 449 356 457 363 452 b 391 444 375 446 385 444 b 423 455 397 444 410 448 b 472 466 443 465 446 466 b 506 469 492 466 503 467 b 519 490 511 472 516 482 b 527 508 521 500 525 507 b 541 511 529 510 535 511 b 565 496 547 511 554 507 b 590 479 573 489 585 481 b 619 473 595 475 606 473 b 648 479 631 473 643 475 b 667 493 654 481 662 488 b 678 515 670 498 677 508 b 681 546 681 522 681 537 b 677 576 681 558 680 569 l 657 605 b 631 629 647 618 639 625 b 603 632 622 632 615 634 b 570 622 594 631 580 627 b 532 594 561 619 544 606 b 506 561 521 582 508 568 b 496 527 502 554 497 539 b 491 500 495 515 493 503 b 460 494 487 494 482 494 b 419 484 436 494 433 494 b 392 473 407 477 398 473 b 378 477 386 473 380 475 b 375 492 376 481 375 486 b 389 516 375 499 379 506 b 408 544 395 524 406 537 l 425 581 b 434 624 432 599 434 609 b 428 664 434 637 431 652 b 420 687 425 675 420 685 b 428 698 420 690 424 694 b 450 704 432 702 437 704 b 482 708 459 704 473 706 b 523 713 490 710 508 713 b 561 719 543 713 551 715 b 585 726 569 723 580 726 b 604 721 592 726 599 724 b 614 699 606 718 611 707 b 638 667 619 685 622 680 b 667 630 651 656 660 644 b 685 601 672 619 681 606 b 705 587 690 595 699 589 b 731 590 716 584 719 585 b 755 597 740 594 750 597 b 767 593 759 597 764 595 b 770 579 769 591 770 584 b 763 557 770 572 767 563 b 738 531 759 550 748 539 b 709 496 726 521 716 508 l 682 450 l 647 387 b 611 328 637 369 620 343 b 582 275 602 313 589 290 b 550 231 572 254 567 247 b 525 202 537 220 528 209 b 520 176 523 195 520 183 b 521 135 519 168 520 150 b 517 100 524 111 523 107 b 491 84 513 96 503 90 b 446 61 479 81 459 70 b 408 41 432 53 415 44 b 390 37 401 39 393 37 b 359 47 387 37 373 42 b 321 60 346 54 330 59 b 295 58 314 61 302 60 b 264 42 289 56 274 48 b 235 28 251 31 243 28 b 219 33 229 28 221 30 b 215 52 215 37 214 42 b 224 74 216 58 219 69 b 237 95 229 80 234 90 b 255 144 241 101 248 122 b 269 197 261 164 268 189 b 262 242 270 209 269 220 b 257 280 256 265 256 274 b 271 288 260 286 262 288 b 299 274 279 288 285 284 b 331 253 309 267 323 256 b 362 241 339 249 353 243 b 391 236 371 238 384 236 b 412 239 396 236 406 237 b 431 249 418 241 427 246 b 448 272 436 253 444 262 b 456 317 455 287 456 294 b 450 359 456 338 455 347 b 437 380 446 369 440 377 b 419 393 434 384 427 389 b 389 401 413 395 399 399 b 357 398 379 401 365 401 b 335 387 350 396 340 391 b 318 356 330 382 322 371 b 302 329 313 345 306 332 b 277 319 298 324 290 319 b 242 309 266 317 251 313 b 202 300 234 306 216 302 b 164 294 187 298 171 295 b 139 278 157 292 145 285 b 110 239 130 270 120 256 l 90 194 b 84 156 87 183 84 169 b 88 125 84 144 86 131 b 100 106 90 119 95 111 b 114 94 104 101 110 96 b 147 88 118 93 132 90 b 181 80 171 86 176 85 b 186 51 185 75 186 67 b 193 19 186 35 188 27 b 206 6 195 14 202 7 b 226 -1 212 3 220 0 b 265 -16 232 -3 250 -9 b 310 -29 288 -25 296 -29 b 341 -21 321 -29 332 -25 b 369 -4 348 -18 360 -10 b 400 9 377 1 392 7 b 431 20 409 12 423 17 l 465 40 b 505 60 475 46 493 56 b 532 76 516 64 529 72 b 546 94 537 81 544 88 b 562 106 549 98 556 104 b 592 111 568 109 581 111 b 624 114 603 111 618 112 b 648 131 631 116 642 122 b 672 172 658 139 664 151 b 706 230 681 194 690 209 b 742 281 718 245 734 269 b 771 336 750 296 764 320 b 805 394 779 353 794 378 b 854 469 817 408 838 444 b 898 544 869 496 890 530 b 919 576 907 557 917 570 b 924 596 920 580 923 589 b 936 615 926 604 931 611 b 974 620 943 620 948 621 b 1017 627 998 620 1006 621 b 1036 642 1023 631 1032 637 b 1047 667 1039 646 1045 657 b 1051 703 1051 679 1052 689 b 1044 732 1050 713 1047 726 b 1031 752 1042 738 1035 746 b 1007 765 1024 757 1015 763 "},"J":{"ha":882,"x_min":0,"x_max":0,"o":"m 981 776 b 1012 771 992 776 1006 774 b 1031 759 1019 769 1027 763 b 1044 741 1034 756 1042 748 b 1053 706 1048 734 1052 719 b 1053 667 1056 695 1056 677 b 1045 638 1052 657 1048 644 b 1032 620 1043 632 1037 624 b 1012 611 1028 618 1019 613 b 985 609 1006 609 993 608 b 959 619 976 611 965 615 b 936 640 952 622 943 632 b 917 655 929 651 923 655 b 906 648 913 655 908 653 b 910 626 905 644 906 639 b 915 596 914 615 916 606 b 907 575 914 589 911 580 b 886 556 905 569 894 562 b 858 537 877 551 866 543 b 820 473 851 530 840 514 b 789 414 806 444 791 419 b 766 394 786 410 775 402 b 743 373 755 388 745 379 b 734 347 740 369 736 356 b 733 322 732 337 732 326 b 741 310 734 317 737 312 b 752 307 744 308 749 307 b 777 327 754 307 766 316 b 824 371 789 337 809 356 b 869 406 842 388 856 400 b 905 419 881 411 895 418 b 933 417 912 419 925 419 b 960 405 943 414 953 408 b 976 382 965 401 972 390 b 983 335 982 370 983 362 b 974 285 983 306 982 302 b 952 258 968 271 962 266 b 924 249 944 255 931 250 b 895 252 916 248 904 249 b 873 264 889 254 878 259 b 856 288 869 269 861 279 b 834 309 850 295 842 306 b 815 317 829 313 819 317 b 791 302 807 317 803 313 b 769 283 783 294 773 285 b 733 281 764 281 754 279 b 696 277 707 283 704 283 b 684 249 690 271 688 266 b 676 219 682 238 679 225 b 640 179 673 214 657 195 b 603 132 619 157 606 143 b 595 106 599 125 596 112 b 598 86 594 97 594 92 b 608 78 601 81 606 78 b 626 86 611 78 619 81 b 645 102 633 90 642 97 b 668 141 650 108 659 126 b 688 176 674 156 683 172 b 708 189 692 180 701 186 b 739 194 715 191 729 194 b 772 189 751 194 764 192 b 796 172 781 186 792 178 b 811 146 803 167 808 155 b 816 106 814 136 816 118 b 812 69 816 92 815 75 b 801 48 810 63 806 54 b 780 33 797 43 788 36 b 747 30 770 30 760 29 b 696 45 732 31 721 33 b 654 62 677 56 660 62 b 625 53 649 62 635 58 b 591 41 616 48 600 43 b 559 38 581 39 567 38 b 537 31 550 38 542 36 b 523 4 531 28 527 19 b 507 -39 520 -7 514 -26 b 484 -72 501 -53 494 -64 b 461 -85 478 -78 467 -84 b 433 -85 455 -86 443 -86 l 401 -81 b 381 -86 386 -80 384 -81 b 380 -106 379 -92 379 -99 b 376 -133 381 -116 380 -123 b 359 -152 371 -142 368 -147 b 332 -159 353 -155 341 -158 b 308 -166 324 -160 313 -163 b 293 -184 305 -169 297 -177 b 274 -209 288 -194 281 -204 b 216 -242 269 -214 244 -229 b 145 -274 189 -256 156 -270 b 105 -294 132 -279 115 -288 b 76 -310 94 -301 81 -308 b 48 -313 71 -311 58 -313 b 6 -307 37 -313 19 -310 b -26 -300 -7 -303 -21 -300 b -46 -294 -30 -300 -40 -297 b -65 -279 -56 -291 -62 -285 b -69 -250 -68 -273 -69 -261 b -75 -224 -69 -236 -71 -229 b -86 -219 -78 -222 -82 -219 b -116 -216 -90 -218 -103 -217 b -146 -209 -132 -216 -141 -214 b -163 -189 -152 -205 -159 -196 b -169 -157 -168 -180 -169 -170 b -165 -123 -169 -149 -168 -133 b -152 -93 -162 -114 -156 -100 b -130 -64 -147 -84 -138 -72 b -101 -43 -122 -56 -109 -47 b -61 -32 -92 -40 -75 -34 b -17 -19 -48 -29 -28 -23 b 26 -8 0 -11 9 -8 b 66 -2 40 -8 52 -6 b 126 16 75 3 103 10 l 204 31 b 272 38 225 35 255 38 b 314 44 301 38 306 39 l 337 61 b 366 75 344 68 357 73 b 402 78 373 76 390 78 b 431 82 414 78 425 80 b 443 95 436 84 441 91 l 449 115 b 465 144 451 120 458 133 b 484 180 470 155 481 171 b 502 206 488 190 497 201 b 522 224 506 212 517 219 b 540 243 529 228 537 236 b 551 274 544 248 547 263 b 548 303 554 293 554 295 b 537 310 545 307 541 310 b 502 284 533 310 519 301 b 461 239 486 269 469 249 b 439 212 455 230 444 218 b 417 194 434 206 424 198 b 381 189 407 190 398 189 b 344 195 362 188 354 190 b 323 213 337 198 327 206 b 310 238 319 219 312 230 b 306 276 307 246 306 264 b 309 312 306 289 307 306 b 324 335 311 319 319 330 b 352 351 332 344 340 348 b 383 351 364 353 372 353 b 404 344 391 349 400 346 l 436 324 b 472 306 449 315 466 306 b 501 322 482 304 484 305 l 519 340 l 546 337 b 582 339 562 336 578 336 b 594 348 587 341 592 344 b 600 373 595 352 598 364 b 624 414 603 390 606 394 b 656 460 641 431 648 442 b 669 491 660 472 668 487 b 680 508 670 495 675 503 b 706 525 684 515 695 521 b 731 540 717 529 729 535 b 737 559 735 544 737 553 b 731 576 737 566 735 572 b 709 579 727 581 722 581 l 681 577 b 663 582 676 577 669 579 b 642 614 658 585 649 600 b 613 648 631 635 625 641 b 592 668 604 655 594 663 b 582 693 589 673 584 684 b 573 711 580 700 576 709 b 561 715 571 713 565 715 b 543 708 556 715 548 712 l 520 695 b 497 690 514 693 503 690 b 463 696 490 690 476 693 b 418 697 441 702 440 702 b 381 693 405 694 389 693 b 363 684 370 693 368 691 b 366 651 358 677 358 675 b 372 606 369 635 372 619 b 361 549 372 592 369 576 l 344 506 b 326 481 343 501 333 489 b 312 454 314 468 311 464 b 322 439 313 445 315 442 b 342 436 327 436 332 434 b 371 453 348 438 360 444 b 400 470 382 462 395 469 b 429 469 406 471 419 470 b 455 469 445 466 450 466 b 458 487 459 472 459 477 b 454 518 456 495 455 508 b 455 545 453 526 454 539 b 470 570 456 554 461 561 b 518 596 483 583 490 587 b 571 607 536 602 557 606 b 601 606 582 608 596 608 b 620 595 606 606 615 601 b 639 569 628 590 635 579 b 647 531 644 558 647 548 b 642 494 647 520 644 503 b 625 466 639 484 632 472 b 604 450 619 459 610 452 b 580 447 597 448 586 447 b 544 456 573 447 556 451 b 506 466 531 462 515 466 b 481 453 494 466 492 464 b 462 438 475 447 467 440 b 434 438 456 434 451 434 b 405 440 422 440 409 441 b 382 426 401 439 390 432 b 356 410 375 419 363 412 b 331 406 349 408 339 406 b 306 412 325 406 314 409 b 290 426 300 417 292 422 b 283 454 288 430 285 443 b 275 481 282 470 281 478 b 244 489 270 484 260 487 b 211 495 231 490 216 493 b 196 508 206 498 200 504 b 186 535 193 514 188 526 b 188 572 183 549 184 556 b 209 628 190 582 200 607 b 239 679 221 655 230 670 b 269 696 248 687 256 693 b 307 703 281 699 297 702 b 344 713 318 704 334 708 b 384 721 356 717 372 720 b 415 728 395 722 408 725 b 442 744 420 730 433 737 b 469 765 451 754 463 762 b 498 771 476 769 486 771 b 544 757 515 771 520 769 l 583 738 b 602 719 594 733 598 730 l 614 693 b 631 671 617 682 622 676 l 649 656 b 662 634 653 654 659 643 b 674 611 667 624 671 614 b 689 606 677 607 683 606 b 720 619 695 606 706 609 b 758 640 732 627 750 636 b 803 659 769 643 788 652 b 852 678 819 669 838 675 b 883 686 865 681 878 684 b 896 710 887 690 894 700 b 912 739 902 719 907 733 b 930 759 915 745 924 755 b 951 772 935 764 945 770 b 981 776 956 774 969 776 m 368 43 b 345 32 362 44 356 41 b 321 14 339 25 327 17 b 262 6 313 10 300 8 b 156 -7 225 5 201 1 b 77 -28 127 -14 91 -23 b 33 -38 59 -36 49 -38 b 6 -42 20 -38 10 -39 b -1 -56 1 -44 -1 -49 b 6 -81 -1 -59 2 -72 b 13 -122 10 -94 13 -107 b 7 -164 13 -134 10 -153 b -6 -198 4 -175 -2 -191 b -19 -217 -9 -206 -16 -215 l -32 -233 b -42 -255 -38 -240 -42 -250 b -33 -269 -42 -260 -39 -266 b -19 -271 -29 -271 -23 -273 b 6 -252 -14 -270 -4 -261 b 32 -230 16 -239 26 -231 b 58 -228 39 -228 51 -227 b 94 -238 67 -229 83 -233 b 127 -248 106 -244 120 -248 b 193 -221 135 -248 155 -240 b 255 -189 223 -207 250 -193 b 269 -170 259 -184 265 -176 b 282 -150 271 -164 279 -155 b 301 -137 287 -144 294 -138 b 325 -132 306 -135 317 -133 l 344 -127 b 349 -99 346 -125 348 -117 b 360 -64 351 -79 353 -73 b 371 -44 365 -57 369 -49 b 380 -5 373 -40 377 -22 b 381 34 382 19 382 29 b 368 43 378 39 372 43 "},"j":{"ha":882,"x_min":0,"x_max":0,"o":"m 981 776 b 951 772 969 776 956 774 b 930 759 945 770 935 764 b 912 739 924 755 915 745 b 896 710 907 733 902 719 b 883 686 894 700 887 690 b 852 678 878 684 865 681 b 803 659 838 675 819 669 b 758 640 788 652 769 643 b 720 619 750 636 732 627 b 689 606 706 609 695 606 b 674 611 683 606 677 607 b 662 634 671 614 667 624 b 649 656 659 643 653 654 l 631 671 b 614 693 622 676 617 682 l 602 719 b 583 738 598 730 594 733 l 544 757 b 498 771 520 769 515 771 b 469 765 486 771 476 769 b 442 744 463 762 451 754 b 415 728 433 737 420 730 b 384 721 408 725 395 722 b 344 713 372 720 356 717 b 307 703 334 708 318 704 b 269 696 297 702 281 699 b 239 679 256 693 248 687 b 209 628 230 670 221 655 b 188 572 200 607 190 582 b 186 535 184 556 183 549 b 196 508 188 526 193 514 b 211 495 200 504 206 498 b 244 489 216 493 231 490 b 275 481 260 487 270 484 b 283 454 281 478 282 470 b 290 426 285 443 288 430 b 306 412 292 422 300 417 b 331 406 314 409 325 406 b 356 410 339 406 349 408 b 382 426 363 412 375 419 b 405 440 390 432 401 439 b 434 438 409 441 422 440 b 462 438 451 434 456 434 b 481 453 467 440 475 447 b 506 466 492 464 494 466 b 544 456 515 466 531 462 b 580 447 556 451 573 447 b 604 450 586 447 597 448 b 625 466 610 452 619 459 b 642 494 632 472 639 484 b 647 531 644 503 647 520 b 639 569 647 548 644 558 b 620 595 635 579 628 590 b 601 606 615 601 606 606 b 571 607 596 608 582 608 b 518 596 557 606 536 602 b 470 570 490 587 483 583 b 455 545 461 561 456 554 b 454 518 454 539 453 526 b 458 487 455 508 456 495 b 455 469 459 477 459 472 b 429 469 450 466 445 466 b 400 470 419 470 406 471 b 371 453 395 469 382 462 b 342 436 360 444 348 438 b 322 439 332 434 327 436 b 312 454 315 442 313 445 b 326 481 311 464 314 468 b 344 506 333 489 343 501 l 361 549 b 372 606 369 576 372 592 b 366 651 372 619 369 635 b 363 684 358 675 358 677 b 381 693 368 691 370 693 b 418 697 389 693 405 694 b 463 696 440 702 441 702 b 497 690 476 693 490 690 b 520 695 503 690 514 693 l 543 708 b 561 715 548 712 556 715 b 573 711 565 715 571 713 b 582 693 576 709 580 700 b 592 668 584 684 589 673 b 613 648 594 663 604 655 b 642 614 625 641 631 635 b 663 582 649 600 658 585 b 681 577 669 579 676 577 l 709 579 b 731 576 722 581 727 581 b 737 559 735 572 737 566 b 731 540 737 553 735 544 b 706 525 729 535 717 529 b 680 508 695 521 684 515 b 669 491 675 503 670 495 b 656 460 668 487 660 472 b 624 414 648 442 641 431 b 600 373 606 394 603 390 b 594 348 598 364 595 352 b 582 339 592 344 587 341 b 546 337 578 336 562 336 l 519 340 l 501 322 b 472 306 484 305 482 304 b 436 324 466 306 449 315 l 404 344 b 383 351 400 346 391 349 b 352 351 372 353 364 353 b 324 335 340 348 332 344 b 309 312 319 330 311 319 b 306 276 307 306 306 289 b 310 238 306 264 307 246 b 323 213 312 230 319 219 b 344 195 327 206 337 198 b 381 189 354 190 362 188 b 417 194 398 189 407 190 b 439 212 424 198 434 206 b 461 239 444 218 455 230 b 502 284 469 249 486 269 b 537 310 519 301 533 310 b 548 303 541 310 545 307 b 551 274 554 295 554 293 b 540 243 547 263 544 248 b 522 224 537 236 529 228 b 502 206 517 219 506 212 b 484 180 497 201 488 190 b 465 144 481 171 470 155 b 449 115 458 133 451 120 l 443 95 b 431 82 441 91 436 84 b 402 78 425 80 414 78 b 366 75 390 78 373 76 b 337 61 357 73 344 68 l 314 44 b 272 38 306 39 301 38 b 204 31 255 38 225 35 l 126 16 b 66 -2 103 10 75 3 b 26 -8 52 -6 40 -8 b -17 -19 9 -8 0 -11 b -61 -32 -28 -23 -48 -29 b -101 -43 -75 -34 -92 -40 b -130 -64 -109 -47 -122 -56 b -152 -93 -138 -72 -147 -84 b -165 -123 -156 -100 -162 -114 b -169 -157 -168 -133 -169 -149 b -163 -189 -169 -170 -168 -180 b -146 -209 -159 -196 -152 -205 b -116 -216 -141 -214 -132 -216 b -86 -219 -103 -217 -90 -218 b -75 -224 -82 -219 -78 -222 b -69 -250 -71 -229 -69 -236 b -65 -279 -69 -261 -68 -273 b -46 -294 -62 -285 -56 -291 b -26 -300 -40 -297 -30 -300 b 6 -307 -21 -300 -7 -303 b 48 -313 19 -310 37 -313 b 76 -310 58 -313 71 -311 b 105 -294 81 -308 94 -301 b 145 -274 115 -288 132 -279 b 216 -242 156 -270 189 -256 b 274 -209 244 -229 269 -214 b 293 -184 281 -204 288 -194 b 308 -166 297 -177 305 -169 b 332 -159 313 -163 324 -160 b 359 -152 341 -158 353 -155 b 376 -133 368 -147 371 -142 b 380 -106 380 -123 381 -116 b 381 -86 379 -99 379 -92 b 401 -81 384 -81 386 -80 l 433 -85 b 461 -85 443 -86 455 -86 b 484 -72 467 -84 478 -78 b 507 -39 494 -64 501 -53 b 523 4 514 -26 520 -7 b 537 31 527 19 531 28 b 559 38 542 36 550 38 b 591 41 567 38 581 39 b 625 53 600 43 616 48 b 654 62 635 58 649 62 b 696 45 660 62 677 56 b 747 30 721 33 732 31 b 780 33 760 29 770 30 b 801 48 788 36 797 43 b 812 69 806 54 810 63 b 816 106 815 75 816 92 b 811 146 816 118 814 136 b 796 172 808 155 803 167 b 772 189 792 178 781 186 b 739 194 764 192 751 194 b 708 189 729 194 715 191 b 688 176 701 186 692 180 b 668 141 683 172 674 156 b 645 102 659 126 650 108 b 626 86 642 97 633 90 b 608 78 619 81 611 78 b 598 86 606 78 601 81 b 595 106 594 92 594 97 b 603 132 596 112 599 125 b 640 179 606 143 619 157 b 676 219 657 195 673 214 b 684 249 679 225 682 238 b 696 277 688 266 690 271 b 733 281 704 283 707 283 b 769 283 754 279 764 281 b 791 302 773 285 783 294 b 815 317 803 313 807 317 b 834 309 819 317 829 313 b 856 288 842 306 850 295 b 873 264 861 279 869 269 b 895 252 878 259 889 254 b 924 249 904 249 916 248 b 952 258 931 250 944 255 b 974 285 962 266 968 271 b 983 335 982 302 983 306 b 976 382 983 362 982 370 b 960 405 972 390 965 401 b 933 417 953 408 943 414 b 905 419 925 419 912 419 b 869 406 895 418 881 411 b 824 371 856 400 842 388 b 777 327 809 356 789 337 b 752 307 766 316 754 307 b 741 310 749 307 744 308 b 733 322 737 312 734 317 b 734 347 732 326 732 337 b 743 373 736 356 740 369 b 766 394 745 379 755 388 b 789 414 775 402 786 410 b 820 473 791 419 806 444 b 858 537 840 514 851 530 b 886 556 866 543 877 551 b 907 575 894 562 905 569 b 915 596 911 580 914 589 b 910 626 916 606 914 615 b 906 648 906 639 905 644 b 917 655 908 653 913 655 b 936 640 923 655 929 651 b 959 619 943 632 952 622 b 985 609 965 615 976 611 b 1012 611 993 608 1006 609 b 1032 620 1019 613 1028 618 b 1045 638 1037 624 1043 632 b 1053 667 1048 644 1052 657 b 1053 706 1056 677 1056 695 b 1044 741 1052 719 1048 734 b 1031 759 1042 748 1034 756 b 1012 771 1027 763 1019 769 b 981 776 1006 774 992 776 m 368 43 b 381 34 372 43 378 39 b 380 -5 382 29 382 19 b 371 -44 377 -22 373 -40 b 360 -64 369 -49 365 -57 b 349 -99 353 -73 351 -79 b 344 -127 348 -117 346 -125 l 325 -132 b 301 -137 317 -133 306 -135 b 282 -150 294 -138 287 -144 b 269 -170 279 -155 271 -164 b 255 -189 265 -176 259 -184 b 193 -221 250 -193 223 -207 b 127 -248 155 -240 135 -248 b 94 -238 120 -248 106 -244 b 58 -228 83 -233 67 -229 b 32 -230 51 -227 39 -228 b 6 -252 26 -231 16 -239 b -19 -271 -4 -261 -14 -270 b -33 -269 -23 -273 -29 -271 b -42 -255 -39 -266 -42 -260 b -32 -233 -42 -250 -38 -240 l -19 -217 b -6 -198 -16 -215 -9 -206 b 7 -164 -2 -191 4 -175 b 13 -122 10 -153 13 -134 b 6 -81 13 -107 10 -94 b -1 -56 2 -72 -1 -59 b 6 -42 -1 -49 1 -44 b 33 -38 10 -39 20 -38 b 77 -28 49 -38 59 -36 b 156 -7 91 -23 127 -14 b 262 6 201 1 225 5 b 321 14 300 8 313 10 b 345 32 327 17 339 25 b 368 43 356 41 362 44 "},"K":{"ha":1110,"x_min":0,"x_max":0,"o":"m 938 779 b 969 771 953 778 962 776 b 987 752 977 767 983 758 b 994 727 992 744 994 733 b 989 704 994 720 993 709 b 975 678 986 697 981 685 b 955 658 969 669 961 661 b 914 655 944 654 938 654 b 873 654 897 656 880 656 b 857 642 866 651 860 647 b 851 608 856 638 852 622 b 844 572 850 595 847 579 b 824 552 842 566 832 558 b 803 536 817 547 806 540 b 791 505 798 531 794 520 b 781 472 788 492 784 478 b 767 458 780 468 771 461 b 740 452 761 455 749 452 b 716 449 730 451 719 450 b 709 442 713 448 709 444 b 710 429 708 439 708 432 b 722 421 712 426 717 422 b 744 421 726 420 736 420 l 781 425 b 822 417 802 427 805 426 b 847 411 839 408 842 408 b 856 422 851 414 854 419 b 846 446 856 426 851 436 l 834 475 b 837 499 833 481 834 492 b 856 537 839 506 847 523 l 876 571 b 889 592 878 578 884 586 b 908 606 894 598 903 604 b 939 610 914 608 927 610 b 969 615 949 610 963 612 b 981 625 975 617 980 621 b 984 641 983 629 984 637 b 993 665 984 645 988 656 b 1008 688 997 674 1004 683 b 1065 719 1015 693 1039 706 b 1124 743 1101 738 1115 743 b 1145 738 1132 743 1142 741 b 1165 723 1151 735 1159 728 b 1208 713 1175 716 1180 715 b 1251 705 1227 711 1243 707 b 1271 685 1258 701 1266 694 b 1279 649 1278 674 1279 668 b 1270 609 1279 631 1277 623 b 1247 580 1266 600 1256 586 b 1217 559 1238 571 1226 563 b 1180 546 1208 556 1192 548 b 1151 536 1169 543 1155 539 b 1135 517 1145 532 1139 524 b 1119 494 1131 507 1123 499 b 1104 485 1116 491 1109 487 b 1080 481 1098 483 1089 481 b 1052 487 1072 481 1059 484 b 1033 506 1042 492 1037 497 b 1031 536 1029 513 1029 521 b 1039 571 1031 545 1035 561 b 1056 606 1042 581 1050 597 b 1076 634 1062 618 1071 629 b 1099 644 1081 638 1093 643 b 1122 653 1106 646 1117 649 b 1138 666 1129 655 1135 661 b 1144 689 1141 672 1143 682 b 1139 707 1144 698 1142 705 b 1124 714 1136 711 1130 714 b 1101 706 1119 714 1109 709 l 1056 683 b 1019 657 1031 670 1023 666 b 1015 610 1014 647 1014 642 b 1012 546 1017 584 1016 568 b 996 494 1008 527 1003 509 b 975 459 990 483 981 467 b 954 439 969 451 960 442 b 921 429 946 434 931 431 b 895 424 909 428 898 425 b 881 406 892 423 885 414 b 864 384 875 396 868 387 b 845 381 860 382 852 381 b 813 390 839 381 825 384 b 787 396 797 397 791 398 b 780 389 784 394 781 391 b 769 362 779 386 773 374 b 764 332 766 349 763 335 b 768 323 764 330 766 325 b 800 318 769 322 784 319 b 840 310 822 317 831 315 b 857 293 846 306 853 298 b 863 256 862 285 863 277 b 856 216 863 236 862 228 b 824 177 852 206 840 192 b 792 132 802 156 799 152 b 780 102 789 120 782 106 b 758 86 775 97 767 91 b 724 82 746 81 741 81 b 695 80 708 83 702 83 b 690 47 688 75 688 74 b 687 9 692 27 691 19 b 666 -19 685 3 674 -10 b 644 -46 656 -30 646 -42 b 631 -95 640 -52 634 -73 l 615 -159 b 600 -203 610 -174 605 -194 b 578 -239 596 -213 586 -230 b 560 -265 569 -249 561 -260 b 566 -279 558 -270 560 -274 b 578 -285 569 -282 574 -285 b 599 -280 581 -285 591 -283 b 638 -259 607 -277 625 -269 b 679 -244 656 -248 667 -244 b 706 -238 689 -242 700 -240 b 715 -228 709 -236 714 -231 b 712 -201 716 -224 715 -212 b 707 -172 709 -191 707 -177 b 715 -136 707 -168 711 -151 b 730 -78 720 -120 726 -95 b 741 -40 732 -62 737 -44 b 754 -22 743 -35 748 -27 b 776 -10 758 -19 769 -13 b 843 -3 786 -6 807 -4 b 912 -6 886 -1 898 -2 b 942 -23 925 -10 933 -15 b 956 -46 947 -31 955 -41 b 959 -75 958 -54 959 -66 b 956 -104 959 -82 957 -96 b 943 -124 953 -111 946 -120 b 927 -136 939 -129 931 -134 b 893 -143 921 -139 906 -142 b 863 -150 875 -144 867 -146 b 857 -169 861 -153 857 -161 b 853 -193 856 -176 854 -187 b 843 -213 852 -197 847 -207 b 817 -229 836 -219 827 -225 b 786 -232 807 -231 794 -232 b 761 -236 779 -232 767 -234 b 742 -247 755 -237 746 -242 b 726 -260 737 -251 731 -257 b 694 -269 721 -265 708 -268 b 653 -285 676 -272 669 -274 b 619 -304 643 -292 627 -299 b 588 -311 611 -306 597 -310 b 557 -308 576 -313 569 -312 b 539 -295 550 -306 541 -299 b 531 -269 536 -292 532 -280 b 522 -247 530 -257 527 -249 b 493 -241 520 -244 506 -242 b 458 -233 474 -240 464 -237 b 443 -218 454 -231 447 -224 b 434 -192 440 -212 435 -200 b 437 -155 433 -181 434 -168 b 450 -115 440 -142 445 -124 b 480 -60 455 -105 469 -81 b 522 -4 494 -37 509 -18 b 556 42 538 12 546 22 b 578 76 562 57 571 71 b 601 87 583 81 594 85 b 627 90 608 90 619 91 b 647 92 632 89 643 90 b 658 100 652 93 657 97 b 658 122 659 104 659 114 b 662 153 657 132 657 144 b 678 187 664 161 671 176 b 696 218 686 197 694 212 b 709 267 698 225 706 246 b 723 316 713 286 720 308 b 730 337 727 323 730 332 b 721 352 730 343 727 348 b 704 358 716 356 709 358 b 687 355 698 358 692 356 b 676 344 683 353 678 348 b 669 318 674 339 671 328 b 657 289 668 308 663 295 l 628 244 l 594 196 b 573 163 587 188 578 173 l 558 131 b 542 106 555 121 547 112 b 520 93 536 101 528 95 b 481 85 515 90 497 86 b 444 80 467 84 450 81 b 429 63 441 78 433 70 b 403 39 423 56 413 45 b 363 16 394 32 377 21 b 331 -2 351 8 336 1 b 302 -13 325 -5 312 -10 b 269 -18 292 -15 277 -18 b 227 -27 262 -18 243 -21 b 182 -36 209 -33 193 -36 b 156 -31 172 -36 161 -34 b 140 -17 150 -28 143 -21 b 133 9 136 -10 133 -1 b 125 34 133 23 131 28 b 94 41 119 41 115 41 b 59 46 80 41 68 43 b 39 63 52 51 43 57 b 28 86 34 68 30 79 b 23 119 25 94 23 109 b 27 150 23 131 25 144 b 39 170 29 156 33 164 b 61 188 43 176 53 183 b 138 194 73 194 81 194 b 216 186 200 194 202 194 b 237 164 225 181 231 174 b 244 136 241 156 244 144 b 240 111 244 128 242 117 b 223 92 237 105 229 96 l 200 73 b 176 44 193 67 182 55 b 163 15 169 33 164 19 b 167 -2 161 6 163 3 b 182 -7 169 -6 177 -7 b 215 0 188 -7 203 -4 b 269 13 226 4 251 9 b 344 37 301 17 306 18 b 395 68 366 48 390 62 b 412 89 402 74 409 82 b 415 131 416 96 417 105 b 419 178 414 158 414 168 b 444 209 422 188 431 197 b 475 248 460 223 468 232 b 499 291 480 258 492 278 b 537 358 508 305 525 334 b 572 415 550 384 565 407 b 615 444 581 425 594 433 b 647 467 639 455 644 458 b 652 492 649 472 651 484 b 657 513 653 501 656 510 b 676 536 659 518 668 527 b 692 563 688 548 692 554 b 686 579 692 569 689 576 b 666 583 683 581 676 583 b 639 587 657 583 645 585 b 613 604 632 590 620 598 b 594 624 606 609 597 619 l 588 646 b 576 669 586 655 581 664 b 554 687 572 674 561 682 b 529 697 545 694 535 697 b 499 689 522 697 510 694 b 467 681 489 685 474 681 b 429 689 458 681 442 685 b 393 697 416 694 399 697 b 373 692 383 697 377 695 b 367 679 370 687 367 681 b 372 653 367 675 369 663 b 375 607 375 640 377 626 b 359 539 374 587 370 570 b 327 476 346 499 344 494 b 309 448 316 463 309 454 b 317 433 309 444 313 436 b 335 430 321 430 325 429 b 367 444 342 431 356 436 b 417 456 385 454 390 455 b 450 465 444 458 445 458 b 449 498 452 470 452 480 b 449 539 445 519 445 527 b 458 562 451 546 455 557 b 476 577 462 567 470 573 b 526 592 482 580 506 587 b 573 600 550 599 567 602 b 607 583 579 599 594 591 b 636 561 620 575 633 564 b 642 544 639 557 642 549 b 633 517 642 537 637 525 b 606 481 629 507 617 492 b 573 454 595 469 581 458 b 520 446 560 448 553 446 b 461 435 483 445 481 445 b 419 427 444 428 438 426 b 372 414 398 427 394 426 b 332 402 353 405 344 402 b 306 406 323 402 312 404 b 288 418 300 408 293 414 b 281 447 282 425 281 431 b 276 475 281 464 280 470 b 244 484 270 481 265 482 b 209 493 226 486 216 489 b 195 509 205 495 198 504 b 188 549 190 519 188 525 b 194 595 188 569 190 583 b 216 643 197 604 206 625 b 243 686 224 660 237 681 b 267 703 249 693 260 700 b 306 712 275 706 293 709 l 360 720 l 399 726 b 429 742 406 727 418 733 b 458 758 439 750 452 757 b 481 759 465 760 476 761 b 516 743 489 758 503 752 l 557 719 b 593 693 568 713 583 701 b 616 655 606 679 610 673 b 631 623 620 639 626 628 b 651 612 637 619 645 614 b 667 615 656 610 663 611 b 686 627 671 617 679 622 b 730 649 692 631 712 642 b 776 668 748 657 769 666 b 819 672 786 670 801 673 b 851 677 841 670 847 672 b 859 706 856 680 857 689 b 868 745 860 723 863 737 b 884 765 871 753 879 761 b 906 776 889 769 899 774 b 938 779 912 779 925 780 "},"k":{"ha":1110,"x_min":0,"x_max":0,"o":"m 938 779 b 906 776 925 780 912 779 b 884 765 899 774 889 769 b 868 745 879 761 871 753 b 859 706 863 737 860 723 b 851 677 857 689 856 680 b 819 672 847 672 841 670 b 776 668 801 673 786 670 b 730 649 769 666 748 657 b 686 627 712 642 692 631 b 667 615 679 622 671 617 b 651 612 663 611 656 610 b 631 623 645 614 637 619 b 616 655 626 628 620 639 b 593 693 610 673 606 679 b 557 719 583 701 568 713 l 516 743 b 481 759 503 752 489 758 b 458 758 476 761 465 760 b 429 742 452 757 439 750 b 399 726 418 733 406 727 l 360 720 l 306 712 b 267 703 293 709 275 706 b 243 686 260 700 249 693 b 216 643 237 681 224 660 b 194 595 206 625 197 604 b 188 549 190 583 188 569 b 195 509 188 525 190 519 b 209 493 198 504 205 495 b 244 484 216 489 226 486 b 276 475 265 482 270 481 b 281 447 280 470 281 464 b 288 418 281 431 282 425 b 306 406 293 414 300 408 b 332 402 312 404 323 402 b 372 414 344 402 353 405 b 419 427 394 426 398 427 b 461 435 438 426 444 428 b 520 446 481 445 483 445 b 573 454 553 446 560 448 b 606 481 581 458 595 469 b 633 517 617 492 629 507 b 642 544 637 525 642 537 b 636 561 642 549 639 557 b 607 583 633 564 620 575 b 573 600 594 591 579 599 b 526 592 567 602 550 599 b 476 577 506 587 482 580 b 458 562 470 573 462 567 b 449 539 455 557 451 546 b 449 498 445 527 445 519 b 450 465 452 480 452 470 b 417 456 445 458 444 458 b 367 444 390 455 385 454 b 335 430 356 436 342 431 b 317 433 325 429 321 430 b 309 448 313 436 309 444 b 327 476 309 454 316 463 b 359 539 344 494 346 499 b 375 607 370 570 374 587 b 372 653 377 626 375 640 b 367 679 369 663 367 675 b 373 692 367 681 370 687 b 393 697 377 695 383 697 b 429 689 399 697 416 694 b 467 681 442 685 458 681 b 499 689 474 681 489 685 b 529 697 510 694 522 697 b 554 687 535 697 545 694 b 576 669 561 682 572 674 b 588 646 581 664 586 655 l 594 624 b 613 604 597 619 606 609 b 639 587 620 598 632 590 b 666 583 645 585 657 583 b 686 579 676 583 683 581 b 692 563 689 576 692 569 b 676 536 692 554 688 548 b 657 513 668 527 659 518 b 652 492 656 510 653 501 b 647 467 651 484 649 472 b 615 444 644 458 639 455 b 572 415 594 433 581 425 b 537 358 565 407 550 384 b 499 291 525 334 508 305 b 475 248 492 278 480 258 b 444 209 468 232 460 223 b 419 178 431 197 422 188 b 415 131 414 168 414 158 b 412 89 417 105 416 96 b 395 68 409 82 402 74 b 344 37 390 62 366 48 b 269 13 306 18 301 17 b 215 0 251 9 226 4 b 182 -7 203 -4 188 -7 b 167 -2 177 -7 169 -6 b 163 15 163 3 161 6 b 176 44 164 19 169 33 b 200 73 182 55 193 67 l 223 92 b 240 111 229 96 237 105 b 244 136 242 117 244 128 b 237 164 244 144 241 156 b 216 186 231 174 225 181 b 138 194 202 194 200 194 b 61 188 81 194 73 194 b 39 170 53 183 43 176 b 27 150 33 164 29 156 b 23 119 25 144 23 131 b 28 86 23 109 25 94 b 39 63 30 79 34 68 b 59 46 43 57 52 51 b 94 41 68 43 80 41 b 125 34 115 41 119 41 b 133 9 131 28 133 23 b 140 -17 133 -1 136 -10 b 156 -31 143 -21 150 -28 b 182 -36 161 -34 172 -36 b 227 -27 193 -36 209 -33 b 269 -18 243 -21 262 -18 b 302 -13 277 -18 292 -15 b 331 -2 312 -10 325 -5 b 363 16 336 1 351 8 b 403 39 377 21 394 32 b 429 63 413 45 423 56 b 444 80 433 70 441 78 b 481 85 450 81 467 84 b 520 93 497 86 515 90 b 542 106 528 95 536 101 b 558 131 547 112 555 121 l 573 163 b 594 196 578 173 587 188 l 628 244 l 657 289 b 669 318 663 295 668 308 b 676 344 671 328 674 339 b 687 355 678 348 683 353 b 704 358 692 356 698 358 b 721 352 709 358 716 356 b 730 337 727 348 730 343 b 723 316 730 332 727 323 b 709 267 720 308 713 286 b 696 218 706 246 698 225 b 678 187 694 212 686 197 b 662 153 671 176 664 161 b 658 122 657 144 657 132 b 658 100 659 114 659 104 b 647 92 657 97 652 93 b 627 90 643 90 632 89 b 601 87 619 91 608 90 b 578 76 594 85 583 81 b 556 42 571 71 562 57 b 522 -4 546 22 538 12 b 480 -60 509 -18 494 -37 b 450 -115 469 -81 455 -105 b 437 -155 445 -124 440 -142 b 434 -192 434 -168 433 -181 b 443 -218 435 -200 440 -212 b 458 -233 447 -224 454 -231 b 493 -241 464 -237 474 -240 b 522 -247 506 -242 520 -244 b 531 -269 527 -249 530 -257 b 539 -295 532 -280 536 -292 b 557 -308 541 -299 550 -306 b 588 -311 569 -312 576 -313 b 619 -304 597 -310 611 -306 b 653 -285 627 -299 643 -292 b 694 -269 669 -274 676 -272 b 726 -260 708 -268 721 -265 b 742 -247 731 -257 737 -251 b 761 -236 746 -242 755 -237 b 786 -232 767 -234 779 -232 b 817 -229 794 -232 807 -231 b 843 -213 827 -225 836 -219 b 853 -193 847 -207 852 -197 b 857 -169 854 -187 856 -176 b 863 -150 857 -161 861 -153 b 893 -143 867 -146 875 -144 b 927 -136 906 -142 921 -139 b 943 -124 931 -134 939 -129 b 956 -104 946 -120 953 -111 b 959 -75 957 -96 959 -82 b 956 -46 959 -66 958 -54 b 942 -23 955 -41 947 -31 b 912 -6 933 -15 925 -10 b 843 -3 898 -2 886 -1 b 776 -10 807 -4 786 -6 b 754 -22 769 -13 758 -19 b 741 -40 748 -27 743 -35 b 730 -78 737 -44 732 -62 b 715 -136 726 -95 720 -120 b 707 -172 711 -151 707 -168 b 712 -201 707 -177 709 -191 b 715 -228 715 -212 716 -224 b 706 -238 714 -231 709 -236 b 679 -244 700 -240 689 -242 b 638 -259 667 -244 656 -248 b 599 -280 625 -269 607 -277 b 578 -285 591 -283 581 -285 b 566 -279 574 -285 569 -282 b 560 -265 560 -274 558 -270 b 578 -239 561 -260 569 -249 b 600 -203 586 -230 596 -213 b 615 -159 605 -194 610 -174 l 631 -95 b 644 -46 634 -73 640 -52 b 666 -19 646 -42 656 -30 b 687 9 674 -10 685 3 b 690 47 691 19 692 27 b 695 80 688 74 688 75 b 724 82 702 83 708 83 b 758 86 741 81 746 81 b 780 102 767 91 775 97 b 792 132 782 106 789 120 b 824 177 799 152 802 156 b 856 216 840 192 852 206 b 863 256 862 228 863 236 b 857 293 863 277 862 285 b 840 310 853 298 846 306 b 800 318 831 315 822 317 b 768 323 784 319 769 322 b 764 332 766 325 764 330 b 769 362 763 335 766 349 b 780 389 773 374 779 386 b 787 396 781 391 784 394 b 813 390 791 398 797 397 b 845 381 825 384 839 381 b 864 384 852 381 860 382 b 881 406 868 387 875 396 b 895 424 885 414 892 423 b 921 429 898 425 909 428 b 954 439 931 431 946 434 b 975 459 960 442 969 451 b 996 494 981 467 990 483 b 1012 546 1003 509 1008 527 b 1015 610 1016 568 1017 584 b 1019 657 1014 642 1014 647 b 1056 683 1023 666 1031 670 l 1101 706 b 1124 714 1109 709 1119 714 b 1139 707 1130 714 1136 711 b 1144 689 1142 705 1144 698 b 1138 666 1143 682 1141 672 b 1122 653 1135 661 1129 655 b 1099 644 1117 649 1106 646 b 1076 634 1093 643 1081 638 b 1056 606 1071 629 1062 618 b 1039 571 1050 597 1042 581 b 1031 536 1035 561 1031 545 b 1033 506 1029 521 1029 513 b 1052 487 1037 497 1042 492 b 1080 481 1059 484 1072 481 b 1104 485 1089 481 1098 483 b 1119 494 1109 487 1116 491 b 1135 517 1123 499 1131 507 b 1151 536 1139 524 1145 532 b 1180 546 1155 539 1169 543 b 1217 559 1192 548 1208 556 b 1247 580 1226 563 1238 571 b 1270 609 1256 586 1266 600 b 1279 649 1277 623 1279 631 b 1271 685 1279 668 1278 674 b 1251 705 1266 694 1258 701 b 1208 713 1243 707 1227 711 b 1165 723 1180 715 1175 716 b 1145 738 1159 728 1151 735 b 1124 743 1142 741 1132 743 b 1065 719 1115 743 1101 738 b 1008 688 1039 706 1015 693 b 993 665 1004 683 997 674 b 984 641 988 656 984 645 b 981 625 984 637 983 629 b 969 615 980 621 975 617 b 939 610 963 612 949 610 b 908 606 927 610 914 608 b 889 592 903 604 894 598 b 876 571 884 586 878 578 l 856 537 b 837 499 847 523 839 506 b 834 475 834 492 833 481 l 846 446 b 856 422 851 436 856 426 b 847 411 854 419 851 414 b 822 417 842 408 839 408 b 781 425 805 426 802 427 l 744 421 b 722 421 736 420 726 420 b 710 429 717 422 712 426 b 709 442 708 432 708 439 b 716 449 709 444 713 448 b 740 452 719 450 730 451 b 767 458 749 452 761 455 b 781 472 771 461 780 468 b 791 505 784 478 788 492 b 803 536 794 520 798 531 b 824 552 806 540 817 547 b 844 572 832 558 842 566 b 851 608 847 579 850 595 b 857 642 852 622 856 638 b 873 654 860 647 866 651 b 914 655 880 656 897 656 b 955 658 938 654 944 654 b 975 678 961 661 969 669 b 989 704 981 685 986 697 b 994 727 993 709 994 720 b 987 752 994 733 992 744 b 969 771 983 758 977 767 b 938 779 962 776 953 778 "},"L":{"ha":1009,"x_min":0,"x_max":0,"o":"m 631 853 b 670 842 654 852 658 851 b 694 814 680 836 687 828 b 704 763 703 796 704 793 b 696 718 704 738 702 730 b 680 696 693 710 686 700 b 653 685 675 693 663 688 b 615 688 638 682 632 682 b 572 706 604 691 584 698 b 537 720 559 713 544 719 b 494 705 526 721 519 719 b 461 681 471 694 462 686 b 462 645 460 677 461 661 b 463 603 465 630 465 613 b 450 547 462 594 456 569 b 427 488 443 526 433 499 b 417 463 421 478 417 466 b 423 453 417 459 419 456 b 445 456 429 451 435 452 b 474 463 455 460 468 463 b 494 458 481 463 490 460 b 507 444 499 456 505 449 b 509 427 509 439 510 431 b 496 396 508 423 502 409 b 481 345 491 382 483 361 b 472 308 478 330 474 313 b 456 294 469 304 462 296 b 430 287 450 291 438 288 b 401 289 421 286 409 287 b 378 302 394 291 383 296 b 361 326 372 307 364 319 b 356 365 358 334 356 349 b 358 406 356 378 356 396 b 355 431 360 422 360 425 b 330 438 349 436 344 438 b 299 444 319 438 306 440 b 281 456 293 446 284 452 b 270 475 278 459 273 468 b 266 508 268 481 267 496 b 270 546 266 522 268 538 b 290 582 274 556 282 571 b 316 633 297 594 308 617 b 341 674 324 654 332 666 b 366 690 347 681 359 688 b 405 696 373 692 391 694 b 448 711 426 698 432 700 l 474 729 b 504 743 480 731 493 737 l 532 756 b 547 770 536 758 543 766 b 556 797 550 776 555 788 b 568 827 558 806 565 819 b 589 846 572 834 580 841 b 631 853 601 853 606 854 m 1039 749 b 1065 744 1048 750 1059 747 b 1078 734 1070 742 1076 737 l 1083 712 b 1093 693 1085 703 1090 694 b 1123 685 1095 690 1109 686 b 1159 678 1140 684 1153 681 b 1177 658 1165 675 1173 666 b 1183 626 1181 649 1183 638 b 1179 594 1183 617 1181 602 b 1165 572 1176 587 1170 577 b 1141 553 1161 567 1150 558 b 1110 510 1126 543 1123 538 b 1081 472 1096 483 1094 480 b 1041 464 1071 468 1058 465 l 1008 461 b 988 447 1005 460 996 453 b 956 425 981 441 967 430 b 920 403 945 419 929 409 b 891 387 911 396 898 389 b 868 383 883 385 872 383 b 850 380 863 383 854 382 b 834 359 845 378 840 369 b 818 332 830 349 822 336 b 804 320 813 327 806 321 b 754 314 800 319 777 315 b 704 306 715 312 710 311 b 691 281 699 302 694 290 b 664 233 687 267 681 255 l 623 186 b 594 136 607 169 604 163 b 577 96 590 119 581 101 b 558 81 572 91 565 85 b 520 75 553 80 536 76 b 475 59 498 72 492 70 b 449 41 465 53 454 44 b 442 12 443 35 442 31 b 436 -31 442 -1 439 -20 b 433 -59 433 -42 432 -55 b 452 -75 435 -65 439 -69 b 474 -88 460 -79 471 -85 b 483 -121 478 -94 481 -105 b 491 -154 485 -136 489 -151 b 512 -175 492 -156 501 -166 b 540 -204 523 -183 536 -197 b 554 -235 544 -211 551 -225 b 569 -260 557 -244 565 -256 b 589 -274 574 -265 582 -271 b 620 -281 595 -276 609 -280 b 687 -286 631 -283 660 -284 b 754 -275 732 -286 732 -286 b 796 -263 768 -269 783 -264 b 823 -255 812 -261 820 -258 b 825 -233 826 -251 827 -244 l 822 -201 b 826 -168 820 -191 821 -181 b 841 -132 830 -158 835 -143 b 853 -68 845 -119 849 -100 b 866 7 856 -43 862 -8 b 880 48 869 22 876 41 b 899 76 883 55 891 68 b 913 99 906 85 912 94 b 911 114 915 103 913 110 b 900 124 910 119 905 122 b 864 122 895 125 879 125 b 819 111 846 120 829 116 b 793 95 808 106 796 99 b 767 61 789 92 777 76 b 736 23 756 46 743 30 b 709 10 730 19 718 13 b 683 5 702 7 689 5 b 659 9 677 5 667 7 b 636 21 653 10 644 17 b 619 44 631 28 623 38 b 612 78 616 53 613 68 b 615 119 610 92 612 105 b 627 149 618 130 623 144 b 646 167 631 155 639 163 b 677 173 655 171 665 173 b 705 168 687 173 698 170 b 730 149 711 165 722 156 b 756 131 737 142 749 134 b 774 125 763 128 771 125 b 804 136 779 125 791 131 b 858 152 821 145 832 148 b 902 154 876 154 895 155 b 922 146 908 152 919 149 b 936 132 926 144 932 137 b 942 98 940 126 941 117 b 948 69 942 77 943 73 b 966 60 952 66 960 61 l 987 57 b 1007 50 994 56 1002 53 b 1024 31 1013 46 1020 37 b 1033 -19 1030 19 1032 10 l 1031 -76 b 1020 -114 1028 -87 1024 -104 b 997 -156 1017 -123 1006 -143 b 968 -206 987 -170 975 -194 b 947 -243 961 -221 952 -237 b 925 -259 944 -249 932 -256 b 883 -271 919 -263 899 -269 b 839 -281 868 -274 847 -279 b 802 -292 830 -286 813 -290 b 760 -306 788 -294 772 -298 l 741 -315 l 681 -314 b 604 -308 640 -313 616 -311 b 570 -296 593 -306 578 -300 b 547 -280 562 -292 552 -284 b 531 -252 543 -275 535 -262 b 518 -222 527 -241 519 -229 b 493 -195 515 -216 503 -204 b 468 -169 481 -186 471 -175 b 456 -136 462 -163 458 -151 b 448 -106 455 -123 451 -111 b 431 -97 444 -104 438 -99 b 412 -82 425 -94 417 -87 b 404 -67 406 -78 404 -70 b 396 -53 404 -64 400 -57 b 376 -44 391 -45 386 -44 l 334 -46 b 283 -42 309 -49 304 -48 b 236 -40 261 -35 260 -35 l 198 -47 b 162 -58 190 -48 173 -54 b 126 -66 144 -66 137 -68 b 105 -58 119 -65 109 -62 b 95 -43 101 -55 96 -47 l 91 -26 b 79 -15 89 -21 83 -17 b 56 -15 73 -12 64 -12 l 26 -18 b 1 -14 17 -18 6 -16 b -17 -2 -4 -11 -12 -6 b -31 18 -22 3 -28 12 b -35 54 -33 24 -35 38 b -30 94 -35 73 -34 82 b -15 115 -26 101 -20 111 b 4 127 -11 119 -3 124 l 29 133 b 93 131 36 134 65 133 b 186 124 120 128 162 125 b 252 116 215 122 238 119 b 294 106 264 112 282 108 b 335 90 303 105 322 96 b 405 76 358 78 359 78 l 451 74 l 456 82 b 457 111 460 90 460 93 b 455 151 455 122 454 140 b 465 186 456 163 459 175 b 490 212 472 196 480 206 b 514 228 497 217 509 224 b 529 244 519 231 527 238 b 531 262 531 248 532 256 b 515 287 530 269 523 278 b 499 312 507 295 500 306 b 501 342 498 319 499 331 b 514 386 503 352 509 371 b 531 419 519 403 527 414 b 551 425 536 422 544 425 b 570 419 556 425 566 422 b 590 398 575 417 584 406 b 606 381 594 389 602 381 b 619 381 608 381 614 381 b 631 399 625 383 628 387 b 639 422 633 407 637 419 b 656 445 641 426 649 437 b 681 481 664 455 675 469 b 707 517 687 491 698 507 b 729 545 715 526 725 539 l 742 576 b 759 606 744 585 752 599 b 787 625 768 617 775 621 b 815 630 795 627 808 630 b 840 633 823 630 833 631 b 867 653 845 635 857 643 b 900 676 880 665 888 672 b 927 686 908 679 921 683 b 959 711 932 690 947 701 b 990 735 970 721 984 732 b 1012 744 995 738 1005 743 b 1039 749 1018 747 1030 749 m 1037 720 b 1013 715 1031 720 1019 718 b 977 689 1005 712 989 700 b 945 664 964 678 950 667 b 916 650 942 661 928 656 b 886 632 898 644 891 639 b 882 588 881 623 881 618 b 881 543 883 565 882 552 b 856 509 878 535 868 521 b 827 475 845 498 832 482 b 798 443 822 467 808 452 b 772 412 785 431 775 419 l 764 382 b 764 355 762 368 762 362 b 774 344 767 350 770 345 b 789 345 777 344 784 344 b 810 373 795 348 802 356 b 831 404 819 390 825 400 b 865 412 838 406 852 410 b 909 431 884 416 891 418 l 949 455 b 973 471 961 460 969 466 b 976 521 976 479 977 491 b 984 580 976 559 976 563 b 1000 607 988 589 996 602 l 1019 642 b 1043 681 1025 655 1036 672 b 1056 705 1051 691 1056 699 b 1052 717 1056 710 1054 715 b 1037 720 1049 719 1043 720 m 156 96 b 141 90 151 96 144 94 b 135 56 134 83 133 81 b 132 15 138 34 138 25 l 124 -10 b 122 -28 121 -17 120 -24 b 132 -35 123 -31 128 -35 b 160 -28 138 -36 150 -33 b 198 -17 170 -23 187 -19 b 240 -8 208 -16 228 -11 b 286 -12 262 -4 262 -4 b 316 -18 304 -19 312 -19 b 323 -6 319 -16 322 -10 b 323 31 324 -3 324 15 b 314 69 321 58 320 63 b 294 76 309 71 301 75 b 257 85 286 77 269 81 b 199 94 244 88 219 93 b 156 96 181 95 161 96 "},"l":{"ha":1009,"x_min":0,"x_max":0,"o":"m 631 853 b 589 846 606 854 601 853 b 568 827 580 841 572 834 b 556 797 565 819 558 806 b 547 770 555 788 550 776 b 532 756 543 766 536 758 l 504 743 b 474 729 493 737 480 731 l 448 711 b 405 696 432 700 426 698 b 366 690 391 694 373 692 b 341 674 359 688 347 681 b 316 633 332 666 324 654 b 290 582 308 617 297 594 b 270 546 282 571 274 556 b 266 508 268 538 266 522 b 270 475 267 496 268 481 b 281 456 273 468 278 459 b 299 444 284 452 293 446 b 330 438 306 440 319 438 b 355 431 344 438 349 436 b 358 406 360 425 360 422 b 356 365 356 396 356 378 b 361 326 356 349 358 334 b 378 302 364 319 372 307 b 401 289 383 296 394 291 b 430 287 409 287 421 286 b 456 294 438 288 450 291 b 472 308 462 296 469 304 b 481 345 474 313 478 330 b 496 396 483 361 491 382 b 509 427 502 409 508 423 b 507 444 510 431 509 439 b 494 458 505 449 499 456 b 474 463 490 460 481 463 b 445 456 468 463 455 460 b 423 453 435 452 429 451 b 417 463 419 456 417 459 b 427 488 417 466 421 478 b 450 547 433 499 443 526 b 463 603 456 569 462 594 b 462 645 465 613 465 630 b 461 681 461 661 460 677 b 494 705 462 686 471 694 b 537 720 519 719 526 721 b 572 706 544 719 559 713 b 615 688 584 698 604 691 b 653 685 632 682 638 682 b 680 696 663 688 675 693 b 696 718 686 700 693 710 b 704 763 702 730 704 738 b 694 814 704 793 703 796 b 670 842 687 828 680 836 b 631 853 658 851 654 852 m 1039 749 b 1012 744 1030 749 1018 747 b 990 735 1005 743 995 738 b 959 711 984 732 970 721 b 927 686 947 701 932 690 b 900 676 921 683 908 679 b 867 653 888 672 880 665 b 840 633 857 643 845 635 b 815 630 833 631 823 630 b 787 625 808 630 795 627 b 759 606 775 621 768 617 b 742 576 752 599 744 585 l 729 545 b 707 517 725 539 715 526 b 681 481 698 507 687 491 b 656 445 675 469 664 455 b 639 422 649 437 641 426 b 631 399 637 419 633 407 b 619 381 628 387 625 383 b 606 381 614 381 608 381 b 590 398 602 381 594 389 b 570 419 584 406 575 417 b 551 425 566 422 556 425 b 531 419 544 425 536 422 b 514 386 527 414 519 403 b 501 342 509 371 503 352 b 499 312 499 331 498 319 b 515 287 500 306 507 295 b 531 262 523 278 530 269 b 529 244 532 256 531 248 b 514 228 527 238 519 231 b 490 212 509 224 497 217 b 465 186 480 206 472 196 b 455 151 459 175 456 163 b 457 111 454 140 455 122 b 456 82 460 93 460 90 l 451 74 l 405 76 b 335 90 359 78 358 78 b 294 106 322 96 303 105 b 252 116 282 108 264 112 b 186 124 238 119 215 122 b 93 131 162 125 120 128 b 29 133 65 133 36 134 l 4 127 b -15 115 -3 124 -11 119 b -30 94 -20 111 -26 101 b -35 54 -34 82 -35 73 b -31 18 -35 38 -33 24 b -17 -2 -28 12 -22 3 b 1 -14 -12 -6 -4 -11 b 26 -18 6 -16 17 -18 l 56 -15 b 79 -15 64 -12 73 -12 b 91 -26 83 -17 89 -21 l 95 -43 b 105 -58 96 -47 101 -55 b 126 -66 109 -62 119 -65 b 162 -58 137 -68 144 -66 b 198 -47 173 -54 190 -48 l 236 -40 b 283 -42 260 -35 261 -35 b 334 -46 304 -48 309 -49 l 376 -44 b 396 -53 386 -44 391 -45 b 404 -67 400 -57 404 -64 b 412 -82 404 -70 406 -78 b 431 -97 417 -87 425 -94 b 448 -106 438 -99 444 -104 b 456 -136 451 -111 455 -123 b 468 -169 458 -151 462 -163 b 493 -195 471 -175 481 -186 b 518 -222 503 -204 515 -216 b 531 -252 519 -229 527 -241 b 547 -280 535 -262 543 -275 b 570 -296 552 -284 562 -292 b 604 -308 578 -300 593 -306 b 681 -314 616 -311 640 -313 l 741 -315 l 760 -306 b 802 -292 772 -298 788 -294 b 839 -281 813 -290 830 -286 b 883 -271 847 -279 868 -274 b 925 -259 899 -269 919 -263 b 947 -243 932 -256 944 -249 b 968 -206 952 -237 961 -221 b 997 -156 975 -194 987 -170 b 1020 -114 1006 -143 1017 -123 b 1031 -76 1024 -104 1028 -87 l 1033 -19 b 1024 31 1032 10 1030 19 b 1007 50 1020 37 1013 46 b 987 57 1002 53 994 56 l 966 60 b 948 69 960 61 952 66 b 942 98 943 73 942 77 b 936 132 941 117 940 126 b 922 146 932 137 926 144 b 902 154 919 149 908 152 b 858 152 895 155 876 154 b 804 136 832 148 821 145 b 774 125 791 131 779 125 b 756 131 771 125 763 128 b 730 149 749 134 737 142 b 705 168 722 156 711 165 b 677 173 698 170 687 173 b 646 167 665 173 655 171 b 627 149 639 163 631 155 b 615 119 623 144 618 130 b 612 78 612 105 610 92 b 619 44 613 68 616 53 b 636 21 623 38 631 28 b 659 9 644 17 653 10 b 683 5 667 7 677 5 b 709 10 689 5 702 7 b 736 23 718 13 730 19 b 767 61 743 30 756 46 b 793 95 777 76 789 92 b 819 111 796 99 808 106 b 864 122 829 116 846 120 b 900 124 879 125 895 125 b 911 114 905 122 910 119 b 913 99 913 110 915 103 b 899 76 912 94 906 85 b 880 48 891 68 883 55 b 866 7 876 41 869 22 b 853 -68 862 -8 856 -43 b 841 -132 849 -100 845 -119 b 826 -168 835 -143 830 -158 b 822 -201 821 -181 820 -191 l 825 -233 b 823 -255 827 -244 826 -251 b 796 -263 820 -258 812 -261 b 754 -275 783 -264 768 -269 b 687 -286 732 -286 732 -286 b 620 -281 660 -284 631 -283 b 589 -274 609 -280 595 -276 b 569 -260 582 -271 574 -265 b 554 -235 565 -256 557 -244 b 540 -204 551 -225 544 -211 b 512 -175 536 -197 523 -183 b 491 -154 501 -166 492 -156 b 483 -121 489 -151 485 -136 b 474 -88 481 -105 478 -94 b 452 -75 471 -85 460 -79 b 433 -59 439 -69 435 -65 b 436 -31 432 -55 433 -42 b 442 12 439 -20 442 -1 b 449 41 442 31 443 35 b 475 59 454 44 465 53 b 520 75 492 70 498 72 b 558 81 536 76 553 80 b 577 96 565 85 572 91 b 594 136 581 101 590 119 b 623 186 604 163 607 169 l 664 233 b 691 281 681 255 687 267 b 704 306 694 290 699 302 b 754 314 710 311 715 312 b 804 320 777 315 800 319 b 818 332 806 321 813 327 b 834 359 822 336 830 349 b 850 380 840 369 845 378 b 868 383 854 382 863 383 b 891 387 872 383 883 385 b 920 403 898 389 911 396 b 956 425 929 409 945 419 b 988 447 967 430 981 441 b 1008 461 996 453 1005 460 l 1041 464 b 1081 472 1058 465 1071 468 b 1110 510 1094 480 1096 483 b 1141 553 1123 538 1126 543 b 1165 572 1150 558 1161 567 b 1179 594 1170 577 1176 587 b 1183 626 1181 602 1183 617 b 1177 658 1183 638 1181 649 b 1159 678 1173 666 1165 675 b 1123 685 1153 681 1140 684 b 1093 693 1109 686 1095 690 b 1083 712 1090 694 1085 703 l 1078 734 b 1065 744 1076 737 1070 742 b 1039 749 1059 747 1048 750 m 1037 720 b 1052 717 1043 720 1049 719 b 1056 705 1054 715 1056 710 b 1043 681 1056 699 1051 691 b 1019 642 1036 672 1025 655 l 1000 607 b 984 580 996 602 988 589 b 976 521 976 563 976 559 b 973 471 977 491 976 479 b 949 455 969 466 961 460 l 909 431 b 865 412 891 418 884 416 b 831 404 852 410 838 406 b 810 373 825 400 819 390 b 789 345 802 356 795 348 b 774 344 784 344 777 344 b 764 355 770 345 767 350 b 764 382 762 362 762 368 l 772 412 b 798 443 775 419 785 431 b 827 475 808 452 822 467 b 856 509 832 482 845 498 b 881 543 868 521 878 535 b 882 588 882 552 883 565 b 886 632 881 618 881 623 b 916 650 891 639 898 644 b 945 664 928 656 942 661 b 977 689 950 667 964 678 b 1013 715 989 700 1005 712 b 1037 720 1019 718 1031 720 m 156 96 b 199 94 161 96 181 95 b 257 85 219 93 244 88 b 294 76 269 81 286 77 b 314 69 301 75 309 71 b 323 31 320 63 321 58 b 323 -6 324 15 324 -3 b 316 -18 322 -10 319 -16 b 286 -12 312 -19 304 -19 b 240 -8 262 -4 262 -4 b 198 -17 228 -11 208 -16 b 160 -28 187 -19 170 -23 b 132 -35 150 -33 138 -36 b 122 -28 128 -35 123 -31 b 124 -10 120 -24 121 -17 l 132 15 b 135 56 138 25 138 34 b 141 90 133 81 134 83 b 156 96 144 94 151 96 "}}}
